<svg width="141" height="104" viewBox="0 0 141 104" fill="none" xmlns="http://www.w3.org/2000/svg">
<g clip-path="url(#clip0_393_300)">
<path d="M125.756 55.7234C125.142 62.8343 122.048 69.7058 117.635 75.3889C117.45 75.6266 117.264 75.8621 117.075 76.0954C116.65 76.6203 116.214 77.1353 115.767 77.6404C115.22 78.2626 114.657 78.8706 114.078 79.4643C113.607 79.9529 113.125 80.431 112.632 80.8987C112.252 81.2635 111.867 81.6211 111.477 81.9716C106.794 86.212 101.414 89.7113 95.8707 92.7716C85.0528 98.7419 73.1954 103.265 60.862 103.923C48.5302 104.58 35.6564 101.041 26.6127 92.6132C14.4242 81.2552 11.0225 62.3111 15.9711 46.3875C19.2624 35.7939 25.9801 26.2103 35.1227 19.9512C44.1862 13.7465 55.6202 10.9537 66.4414 12.7793C75.0799 7.51872 86.3887 7.41804 95.7801 11.3119C100.791 13.39 105.288 16.48 109.234 20.2137C111.04 21.9271 112.731 23.7595 114.294 25.6987C114.454 25.8951 114.612 26.0932 114.769 26.2929C115.424 27.1231 116.058 27.9705 116.671 28.8348C117.551 30.0745 118.386 31.3416 119.177 32.6362C119.394 32.9928 119.61 33.3509 119.821 33.7124C119.963 33.9551 120.106 34.1994 120.246 34.4453C120.249 34.4504 120.251 34.456 120.253 34.4618C122.445 38.3259 124.237 42.4492 125.171 46.7589C125.336 47.5215 125.475 48.2874 125.582 49.0599V49.0615C125.675 49.7168 125.746 50.3754 125.794 51.0373C125.907 52.5979 125.894 54.1649 125.756 55.7234Z" fill="#3F3D56"/>
<path opacity="0.3" d="M93.5745 66.4734L69.1183 46.0588L92.8771 67.2911C92.9231 67.3687 92.987 67.4343 93.0633 67.4823C93.1397 67.5303 93.2263 67.5593 93.3161 67.5671C93.4059 67.5748 93.4963 67.561 93.5797 67.5267C93.663 67.4925 93.7371 67.4388 93.7957 67.3701C93.8542 67.3015 93.8956 67.2198 93.9163 67.132C93.9371 67.0441 93.9367 66.9525 93.915 66.8648C93.8934 66.7772 93.8513 66.6959 93.7921 66.6278C93.7328 66.5597 93.6583 66.5068 93.5745 66.4734Z" fill="#F0F0F0"/>
<path d="M37.4899 56.0849C45.587 56.0849 52.151 49.5077 52.151 41.3944C52.151 33.281 45.587 26.7039 37.4899 26.7039C29.3928 26.7039 22.8288 33.281 22.8288 41.3944C22.8288 49.5077 29.3928 56.0849 37.4899 56.0849Z" fill="#F2F2F2"/>
<path d="M50.5037 40.4041C50.5038 42.1599 50.1588 43.8986 49.4882 45.5208C48.8177 47.1429 47.8349 48.6169 46.5958 49.8585C45.3568 51.1 43.8858 52.0848 42.2668 52.7567C40.6479 53.4285 38.9127 53.7743 37.1604 53.7741C35.5986 53.7733 34.0489 53.4996 32.5809 52.9653C30.2856 52.1274 28.2636 50.6746 26.7352 48.7651C25.2068 46.8555 24.2305 44.5624 23.9126 42.1354C23.5948 39.7084 23.9475 37.2406 24.9323 35.0005C25.9172 32.7604 27.4966 30.834 29.4984 29.4311C31.5002 28.0281 33.8478 27.2023 36.2856 27.0435C38.7234 26.8848 41.1579 27.3993 43.3241 28.5309C45.4903 29.6625 47.3051 31.3679 48.571 33.4614C49.8369 35.5549 50.5054 37.9563 50.5037 40.4041Z" fill="white"/>
<path d="M34.8542 40.0739C37.1286 40.0739 38.9725 38.2264 38.9725 35.9474C38.9725 33.6683 37.1286 31.8208 34.8542 31.8208C32.5797 31.8208 30.7359 33.6683 30.7359 35.9474C30.7359 38.2264 32.5797 40.0739 34.8542 40.0739Z" fill="#E4E4E4"/>
<path d="M49.9831 36.6951C49.0906 37.1253 48.0732 37.2189 47.1174 36.9586C46.1616 36.6982 45.3314 36.1015 44.7791 35.2777C44.2267 34.4539 43.9891 33.4582 44.1099 32.4732C44.2306 31.4881 44.7016 30.5797 45.4365 29.9143C47.6205 31.6443 49.2102 34.0151 49.9831 36.6951Z" fill="#F2F2F2"/>
<path d="M41.6082 46.3461C42.427 46.3461 43.0907 45.681 43.0907 44.8606C43.0907 44.0401 42.427 43.375 41.6082 43.375C40.7894 43.375 40.1256 44.0401 40.1256 44.8606C40.1256 45.681 40.7894 46.3461 41.6082 46.3461Z" fill="#E4E4E4"/>
<path d="M35.5131 53.2788C35.513 53.4092 35.4958 53.5391 35.4621 53.665C34.4783 53.5417 33.5118 53.3069 32.5809 52.9652C32.6582 52.6067 32.8651 52.2896 33.1617 52.0748C33.4583 51.86 33.8238 51.7627 34.1877 51.8016C34.5516 51.8405 34.8883 52.0129 35.133 52.2856C35.3777 52.5583 35.5131 52.9121 35.5131 53.2788Z" fill="#F2F2F2"/>
<path d="M26.7824 39.7438C26.7823 40.4975 26.4964 41.223 25.9826 41.7734C25.4687 42.3238 24.7654 42.658 24.0149 42.7083C23.6752 40.7462 23.7742 38.7331 24.3048 36.814C24.997 36.9296 25.6258 37.2875 26.0795 37.8239C26.5331 38.3604 26.7822 39.0407 26.7824 39.7438Z" fill="#F2F2F2"/>
<path d="M99.9023 35.0237C100.239 35.0237 100.512 34.7501 100.512 34.4126C100.512 34.0751 100.239 33.8015 99.9023 33.8015C99.5655 33.8015 99.2924 34.0751 99.2924 34.4126C99.2924 34.7501 99.5655 35.0237 99.9023 35.0237Z" fill="#006C61"/>
<path d="M94.2761 20.156C94.4729 20.156 94.6324 19.9961 94.6324 19.7989C94.6324 19.6017 94.4729 19.4419 94.2761 19.4419C94.0793 19.4419 93.9198 19.6017 93.9198 19.7989C93.9198 19.9961 94.0793 20.156 94.2761 20.156Z" fill="#F0F0F0"/>
<path d="M37.1143 90.1423C37.3111 90.1423 37.4706 89.9824 37.4706 89.7853C37.4706 89.5881 37.3111 89.4282 37.1143 89.4282C36.9175 89.4282 36.758 89.5881 36.758 89.7853C36.758 89.9824 36.9175 90.1423 37.1143 90.1423Z" fill="#F0F0F0"/>
<path d="M96.2988 55.0905C96.4956 55.0905 96.6552 54.9307 96.6552 54.7335C96.6552 54.5363 96.4956 54.3765 96.2988 54.3765C96.102 54.3765 95.9425 54.5363 95.9425 54.7335C95.9425 54.9307 96.102 55.0905 96.2988 55.0905Z" fill="#F0F0F0"/>
<path d="M50.3182 58.4625C50.6551 58.4625 50.9281 58.1889 50.9281 57.8514C50.9281 57.5138 50.6551 57.2402 50.3182 57.2402C49.9814 57.2402 49.7083 57.5138 49.7083 57.8514C49.7083 58.1889 49.9814 58.4625 50.3182 58.4625Z" fill="#006C61"/>
<path d="M28.2443 71.6314C29.8348 71.6314 31.1243 70.3394 31.1243 68.7457C31.1243 67.1519 29.8348 65.8599 28.2443 65.8599C26.6537 65.8599 25.3643 67.1519 25.3643 68.7457C25.3643 70.3394 26.6537 71.6314 28.2443 71.6314Z" fill="#006C61"/>
<path d="M44.0331 72.3156C44.2298 72.3156 44.3894 72.1558 44.3894 71.9586C44.3894 71.7614 44.2298 71.6016 44.0331 71.6016C43.8363 71.6016 43.6767 71.7614 43.6767 71.9586C43.6767 72.1558 43.8363 72.3156 44.0331 72.3156Z" fill="#F0F0F0"/>
<path d="M80.2739 16.5246C80.4707 16.5246 80.6303 16.3648 80.6303 16.1676C80.6303 15.9704 80.4707 15.8105 80.2739 15.8105C80.0771 15.8105 79.9176 15.9704 79.9176 16.1676C79.9176 16.3648 80.0771 16.5246 80.2739 16.5246Z" fill="#F0F0F0"/>
<path d="M59.0236 92.6181C59.2204 92.6181 59.3799 92.4583 59.3799 92.2611C59.3799 92.0639 59.2204 91.9041 59.0236 91.9041C58.8268 91.9041 58.6673 92.0639 58.6673 92.2611C58.6673 92.4583 58.8268 92.6181 59.0236 92.6181Z" fill="#F0F0F0"/>
<path d="M53.7522 19.8259C53.949 19.8259 54.1085 19.666 54.1085 19.4689C54.1085 19.2717 53.949 19.1118 53.7522 19.1118C53.5554 19.1118 53.3959 19.2717 53.3959 19.4689C53.3959 19.666 53.5554 19.8259 53.7522 19.8259Z" fill="#F0F0F0"/>
<path d="M62.9771 37.1574C63.1739 37.1574 63.3335 36.9976 63.3335 36.8004C63.3335 36.6032 63.1739 36.4434 62.9771 36.4434C62.7803 36.4434 62.6208 36.6032 62.6208 36.8004C62.6208 36.9976 62.7803 37.1574 62.9771 37.1574Z" fill="#F0F0F0"/>
<path d="M48.8562 79.6848C49.053 79.6848 49.2126 79.5249 49.2126 79.3277C49.2126 79.1306 49.053 78.9707 48.8562 78.9707C48.6594 78.9707 48.4999 79.1306 48.4999 79.3277C48.4999 79.5249 48.6594 79.6848 48.8562 79.6848Z" fill="#F0F0F0"/>
<path d="M90.5332 81.9958C90.73 81.9958 90.8896 81.836 90.8896 81.6388C90.8896 81.4416 90.73 81.2817 90.5332 81.2817C90.3364 81.2817 90.1769 81.4416 90.1769 81.6388C90.1769 81.836 90.3364 81.9958 90.5332 81.9958Z" fill="#F0F0F0"/>
<path d="M72.0833 61.198C72.2801 61.198 72.4396 61.0381 72.4396 60.8409C72.4396 60.6437 72.2801 60.4839 72.0833 60.4839C71.8865 60.4839 71.727 60.6437 71.727 60.8409C71.727 61.0381 71.8865 61.198 72.0833 61.198Z" fill="#F0F0F0"/>
<path d="M81.473 37.0988C81.6698 37.0988 81.8293 36.939 81.8293 36.7418C81.8293 36.5446 81.6698 36.3848 81.473 36.3848C81.2762 36.3848 81.1167 36.5446 81.1167 36.7418C81.1167 36.939 81.2762 37.0988 81.473 37.0988Z" fill="#F0F0F0"/>
<path d="M98.5442 49.014C98.9344 49.014 99.2507 48.6971 99.2507 48.3061C99.2507 47.9151 98.9344 47.5981 98.5442 47.5981C98.154 47.5981 97.8377 47.9151 97.8377 48.3061C97.8377 48.6971 98.154 49.014 98.5442 49.014Z" fill="#FF6584"/>
<path d="M69.881 25.5753C70.2712 25.5753 70.5875 25.2583 70.5875 24.8674C70.5875 24.4764 70.2712 24.1594 69.881 24.1594C69.4908 24.1594 69.1745 24.4764 69.1745 24.8674C69.1745 25.2583 69.4908 25.5753 69.881 25.5753Z" fill="#FF6584"/>
<path d="M69.881 74.2687C70.2712 74.2687 70.5875 73.9517 70.5875 73.5607C70.5875 73.1697 70.2712 72.8528 69.881 72.8528C69.4908 72.8528 69.1745 73.1697 69.1745 73.5607C69.1745 73.9517 69.4908 74.2687 69.881 74.2687Z" fill="#FF6584"/>
<path d="M113.899 77.6404C113.624 77.6407 113.356 77.7307 113.136 77.8968C112.917 78.063 112.757 78.2963 112.681 78.5614C112.648 78.6751 112.631 78.7929 112.632 78.9114V80.8987C113.125 80.4316 113.607 79.9535 114.078 79.4643C114.657 78.8701 115.219 78.2621 115.767 77.6404H113.899Z" fill="#006C61"/>
<path d="M118.384 87.9666C116.257 87.9666 113.926 87.8861 111.39 87.725C98.2755 86.8905 81.2877 83.9891 63.5564 79.5557C45.8251 75.1222 29.4685 69.686 17.4999 64.2488C11.6696 61.6 7.19494 59.0928 4.20026 56.7966C1.02967 54.3658 -0.357195 52.2469 0.0780361 50.499C0.926073 47.094 8.43502 46.349 14.5849 46.3237L14.587 46.8189C6.14157 46.8537 1.15917 48.2032 0.557598 50.619C-0.208709 53.6958 6.04094 58.4992 17.704 63.7977C29.6463 69.223 45.9728 74.6488 63.6761 79.0753C81.3793 83.5017 98.3357 86.398 111.422 87.2307C124.201 88.0441 131.971 86.7459 132.737 83.669C133.373 81.1144 129.179 77.3512 120.928 73.0723L121.155 72.6326C127.15 75.7417 134.11 80.2009 133.217 83.7889C132.781 85.5368 130.564 86.7543 126.625 87.4076C124.38 87.7799 121.622 87.9666 118.384 87.9666Z" fill="#006C61"/>
<path d="M117.714 51.0505C126.857 51.0505 134.269 43.6235 134.269 34.4618C134.269 25.3001 126.857 17.873 117.714 17.873C108.571 17.873 101.159 25.3001 101.159 34.4618C101.159 43.6235 108.571 51.0505 117.714 51.0505Z" fill="white"/>
<path d="M117.714 17.6254C114.391 17.6254 111.142 18.6128 108.379 20.4628C105.616 22.3128 103.462 24.9423 102.19 28.0187C100.919 31.0951 100.586 34.4804 101.234 37.7463C101.883 41.0122 103.483 44.0122 105.833 46.3668C108.183 48.7214 111.177 50.3249 114.436 50.9745C117.695 51.6241 121.074 51.2907 124.144 50.0164C127.214 48.7421 129.839 46.5842 131.685 43.8154C133.531 41.0467 134.517 37.7916 134.517 34.4617C134.525 32.2485 134.095 30.0556 133.254 28.0093C132.412 25.963 131.175 24.1038 129.613 22.5388C128.051 20.9739 126.196 19.734 124.153 18.8907C122.111 18.0474 119.923 17.6174 117.714 17.6254ZM117.714 50.8028C114.489 50.8028 111.335 49.8444 108.654 48.0488C105.972 46.2533 103.881 43.7011 102.647 40.7152C101.413 37.7292 101.09 34.4436 101.719 31.2737C102.348 28.1038 103.901 25.1921 106.182 22.9068C108.463 20.6214 111.369 19.0651 114.532 18.4345C117.696 17.804 120.975 18.1276 123.955 19.3644C126.935 20.6013 129.482 22.6957 131.274 25.383C133.066 28.0703 134.022 31.2297 134.022 34.4617C134.031 36.61 133.615 38.7387 132.798 40.725C131.981 42.7114 130.78 44.5161 129.264 46.0352C127.748 47.5543 125.947 48.7577 123.965 49.5759C121.982 50.3942 119.858 50.8112 117.714 50.8028Z" fill="#2F2E41"/>
<path d="M103.185 38.435C103.11 38.4349 103.036 38.4086 102.978 38.3606C102.919 38.3125 102.878 38.2457 102.863 38.1713C102.39 35.7543 102.475 33.2606 103.113 30.8819C103.751 28.5031 104.924 26.3024 106.543 24.4488C106.602 24.3838 106.683 24.3445 106.77 24.3396C106.857 24.3347 106.943 24.3646 107.008 24.4228C107.073 24.4809 107.112 24.5625 107.117 24.6497C107.123 24.7369 107.093 24.8227 107.035 24.8881C105.484 26.6644 104.359 28.7733 103.748 31.0529C103.137 33.3324 103.055 35.7221 103.509 38.0383C103.518 38.0863 103.517 38.1359 103.506 38.1835C103.494 38.2311 103.472 38.2755 103.441 38.3134C103.41 38.3514 103.371 38.382 103.327 38.403C103.283 38.4241 103.234 38.435 103.185 38.435Z" fill="#2F2E41"/>
<path d="M117.704 49.8737C123.515 49.8737 128.226 45.1532 128.226 39.33C128.226 33.5069 123.515 28.7864 117.704 28.7864C111.892 28.7864 107.181 33.5069 107.181 39.33C107.181 45.1532 111.892 49.8737 117.704 49.8737Z" fill="#006C61"/>
<path d="M114.359 43.3107C113.677 43.2917 112.828 43.268 112.174 42.7893C111.98 42.6409 111.82 42.4516 111.706 42.2348C111.592 42.0179 111.526 41.7787 111.514 41.5338C111.502 41.3598 111.531 41.1854 111.597 41.0243C111.664 40.8631 111.767 40.7196 111.898 40.6049C112.24 40.3157 112.738 40.2478 113.276 40.4061L112.719 36.3281L113.128 36.272L113.782 41.0662L113.441 40.9093C113.045 40.7273 112.502 40.6348 112.164 40.9207C112.081 40.9954 112.017 41.0883 111.976 41.1921C111.934 41.2959 111.918 41.4079 111.927 41.5193C111.937 41.7015 111.986 41.8794 112.07 42.041C112.155 42.2025 112.274 42.3438 112.418 42.4554C112.927 42.8278 113.603 42.8759 114.371 42.8974L114.359 43.3107Z" fill="#2F2E41"/>
<path d="M110.697 36.6797H108.475V37.0932H110.697V36.6797Z" fill="#2F2E41"/>
<path d="M117.712 36.6797H115.49V37.0932H117.712V36.6797Z" fill="#2F2E41"/>
<path d="M118.146 52.48H108.608C108.252 52.4803 107.911 52.622 107.66 52.8739C107.408 53.1258 107.267 53.4673 107.267 53.8236V75.006C107.268 76.4414 107.661 77.8493 108.403 79.0771C109.145 80.3049 110.208 81.3058 111.477 81.9716C111.868 81.6217 112.253 81.264 112.632 80.8987C113.125 80.4316 113.607 79.9535 114.078 79.4643C114.657 78.8701 115.219 78.2621 115.767 77.6404C116.215 77.1353 116.651 76.6203 117.075 76.0954C117.264 75.8627 117.451 75.6272 117.635 75.3889C122.048 69.7059 125.142 62.8343 125.756 55.7234C124.771 54.6971 123.589 53.8807 122.281 53.3234C120.973 52.766 119.567 52.4791 118.146 52.48Z" fill="#2F2E41"/>
<path d="M118.493 56.9002C118.266 56.6776 117.998 56.5022 117.703 56.384C117.408 56.2659 117.093 56.2074 116.775 56.2119C116.223 56.2161 115.69 56.4121 115.266 56.7665C115.198 56.8215 115.134 56.8804 115.073 56.9431L107.267 64.9652L101.605 70.7836C101.519 70.8705 101.448 70.9708 101.394 71.0807C101.309 71.2508 101.266 71.4386 101.267 71.6287C101.269 71.7851 101.302 71.9395 101.363 72.0832C101.425 72.2268 101.514 72.3568 101.626 72.4656L101.849 72.6835L103.463 74.2598L103.465 74.2582C103.682 74.4346 103.953 74.5297 104.232 74.5272C104.388 74.5255 104.543 74.4928 104.686 74.4311C104.829 74.3693 104.959 74.2797 105.068 74.1674L105.33 73.9L107.204 71.9737L107.267 71.9093L118.536 60.3286C118.984 59.8682 119.231 59.2484 119.223 58.6055C119.215 57.9626 118.952 57.3492 118.493 56.9002Z" fill="#006C61"/>
<path d="M118.414 34.4109C118.762 33.6737 118.405 32.8861 117.794 32.4152C117.024 31.8217 116.028 31.9199 115.152 32.2008C114.193 32.5083 113.255 33.0618 112.219 33.0299C111.85 33.0233 111.491 32.9051 111.19 32.6908C110.889 32.4764 110.659 32.1759 110.531 31.8287C109.976 30.4027 110.603 28.8089 111.569 27.7274C112.114 27.1081 112.788 26.616 113.544 26.2856C114.299 25.9552 115.118 25.7946 115.942 25.815C116.882 25.8618 117.797 26.141 118.603 26.6278C119.41 27.1146 120.084 27.7938 120.565 28.605C120.6 28.6604 120.654 28.7005 120.717 28.717C120.78 28.7335 120.846 28.7252 120.903 28.6938C121.637 28.3654 122.427 28.1858 123.23 28.1656C124.033 28.1454 124.832 28.2848 125.581 28.5759C126.704 29.0347 127.661 29.825 128.326 30.8419C128.99 31.8588 129.33 33.0541 129.3 34.2692C129.292 34.588 129.786 34.5878 129.795 34.2692C129.826 32.5705 129.2 30.9257 128.049 29.6784C127.464 29.0565 126.761 28.5584 125.981 28.2134C125.201 27.8684 124.36 27.6836 123.508 27.67C122.524 27.649 121.548 27.8529 120.654 28.2662L120.992 28.3551C120.547 27.6037 119.948 26.9549 119.236 26.4507C118.523 25.9465 117.713 25.5983 116.858 25.4288C116.01 25.2704 115.139 25.2965 114.303 25.5052C113.466 25.7138 112.685 26.1003 112.011 26.6384C110.742 27.6332 109.78 29.177 109.84 30.8327C109.866 31.5492 110.079 32.2846 110.575 32.8185C111.211 33.5023 112.16 33.6206 113.037 33.4454C114.203 33.2125 115.267 32.4444 116.482 32.468C116.72 32.4682 116.955 32.519 117.172 32.617C117.389 32.715 117.583 32.8581 117.741 33.0367C118.008 33.3393 118.17 33.7746 117.987 34.161C117.852 34.4475 118.278 34.6991 118.414 34.4109Z" fill="#2F2E41"/>
<path d="M39.5461 93.9792C33.6818 93.9793 28.23 93.7777 23.3493 93.3708C16.9698 92.8389 11.9146 91.9838 8.32409 90.8294C4.52265 89.6071 2.50589 88.0784 2.32982 86.2856C1.98669 82.7931 8.80936 79.5635 14.5933 77.4691L14.7612 77.9349C6.81843 80.811 2.57821 83.7593 2.8216 86.2372C3.1316 89.3931 10.6286 91.8132 23.3902 92.8772C36.4576 93.9668 53.6542 93.5807 71.8125 91.7895C89.9709 89.9988 106.913 87.0182 119.517 83.3968C131.827 79.8602 138.709 76.0219 138.399 72.8661C138.142 70.2459 132.93 68.1134 123.723 66.8613L123.79 66.3706C130.479 67.2804 138.53 69.1373 138.891 72.8175C139.067 74.6103 137.387 76.5037 133.896 78.4451C130.599 80.2789 125.807 82.105 119.654 83.8728C107.021 87.5023 90.0481 90.4887 71.861 92.2824C60.4518 93.4076 49.4171 93.9792 39.5461 93.9792Z" fill="#006C61"/>
<path d="M138.12 74.6024C139.711 74.6024 141 73.3104 141 71.7166C141 70.1228 139.711 68.8308 138.12 68.8308C136.529 68.8308 135.24 70.1228 135.24 71.7166C135.24 73.3104 136.529 74.6024 138.12 74.6024Z" fill="#006C61"/>
<path d="M54.6013 5.77158C56.1918 5.77158 57.4813 4.47956 57.4813 2.88579C57.4813 1.29201 56.1918 0 54.6013 0C53.0107 0 51.7213 1.29201 51.7213 2.88579C51.7213 4.47956 53.0107 5.77158 54.6013 5.77158Z" fill="#E6E6E6"/>
<path d="M3.20511 74.4373C4.79569 74.4373 6.08511 73.1453 6.08511 71.5516C6.08511 69.9578 4.79569 68.6658 3.20511 68.6658C1.61453 68.6658 0.325104 69.9578 0.325104 71.5516C0.325104 73.1453 1.61453 74.4373 3.20511 74.4373Z" fill="#E6E6E6"/>
<path d="M20.9961 19.673C21.9698 19.673 22.7591 18.8821 22.7591 17.9064C22.7591 16.9308 21.9698 16.1399 20.9961 16.1399C20.0224 16.1399 19.2331 16.9308 19.2331 17.9064C19.2331 18.8821 20.0224 19.673 20.9961 19.673Z" fill="#FF6584"/>
<path d="M12.7595 86.6881C13.7332 86.6881 14.5225 85.8972 14.5225 84.9216C14.5225 83.9459 13.7332 83.155 12.7595 83.155C11.7858 83.155 10.9965 83.9459 10.9965 84.9216C10.9965 85.8972 11.7858 86.6881 12.7595 86.6881Z" fill="#FF6584"/>
<path d="M133.013 57.8024C133.987 57.8024 134.776 57.0115 134.776 56.0358C134.776 55.0602 133.987 54.2693 133.013 54.2693C132.04 54.2693 131.25 55.0602 131.25 56.0358C131.25 57.0115 132.04 57.8024 133.013 57.8024Z" fill="#FF6584"/>
<path d="M106.327 101.673C107.917 101.673 109.207 100.381 109.207 98.7869C109.207 97.1931 107.917 95.9011 106.327 95.9011C104.736 95.9011 103.447 97.1931 103.447 98.7869C103.447 100.381 104.736 101.673 106.327 101.673Z" fill="#E6E6E6"/>
</g>
<defs>
<clipPath id="clip0_393_300">
<rect width="141" height="104" fill="white"/>
</clipPath>
</defs>
</svg>
