<svg width="558" height="377" viewBox="0 0 558 377" fill="none" xmlns="http://www.w3.org/2000/svg">
<g clip-path="url(#clip0_415_336)">
<path d="M404.446 87.8791C404.886 79.4875 408.532 71.5844 414.634 65.7998C420.735 60.0152 428.825 56.7902 437.237 56.7901C438.235 56.7901 439.22 56.8421 440.196 56.9291C444.031 50.3366 449.531 44.8649 456.146 41.0603C462.761 37.2558 470.26 35.2517 477.893 35.2481C485.526 35.2444 493.026 37.2415 499.644 41.0398C506.263 44.8381 511.768 50.3046 515.61 56.8935C516.433 56.8318 517.261 56.7901 518.1 56.7901C526.511 56.7902 534.602 60.0152 540.703 65.7998C546.805 71.5844 550.451 79.4875 550.891 87.8791" fill="#F2F2F2"/>
<path d="M411.285 85.3562C411.725 76.9646 415.371 69.0614 421.473 63.2768C427.574 57.4922 435.665 54.2673 444.076 54.2671C445.074 54.2671 446.059 54.3191 447.035 54.4062C450.871 47.8137 456.371 42.3419 462.986 38.5374C469.6 34.7329 477.099 32.7287 484.732 32.7251C492.365 32.7215 499.865 34.7186 506.483 38.5168C513.102 42.3151 518.607 47.7817 522.449 54.3706C523.272 54.3088 524.1 54.2671 524.939 54.2671C533.351 54.2673 541.441 57.4922 547.542 63.2768C553.644 69.0614 557.29 76.9646 557.73 85.3562" stroke="#3F3D56" stroke-miterlimit="10"/>
<path d="M38.4563 272.74C41.4097 215.415 88.8696 169.842 146.986 169.842C150.289 169.842 153.551 170.014 156.779 170.302C169.474 148.482 187.678 130.372 209.573 117.78C231.467 105.188 256.285 98.5544 281.548 98.5425C306.811 98.5306 331.635 105.14 353.541 117.712C375.447 130.283 393.668 148.377 406.385 170.184C409.108 169.98 411.85 169.842 414.625 169.842C472.742 169.842 520.202 215.415 523.155 272.74" fill="#F2F2F2"/>
<path d="M61.0921 264.388C64.0454 207.063 111.505 161.49 169.622 161.49C172.925 161.49 176.187 161.662 179.415 161.95C192.11 140.13 210.314 122.02 232.208 109.428C254.102 96.8357 278.92 90.2024 304.184 90.1904C329.447 90.1785 354.271 96.7884 376.177 109.36C398.083 121.931 416.304 140.024 429.021 161.832C431.744 161.628 434.485 161.49 437.261 161.49C495.377 161.49 542.837 207.063 545.791 264.388" stroke="#3F3D56" stroke-miterlimit="10"/>
<path d="M0 74.8974C0.594819 63.543 5.52866 52.8497 13.7839 45.0228C22.0392 37.1959 32.9864 32.8324 44.3676 32.8322C45.7179 32.8322 47.0512 32.9025 48.3708 33.0203C53.5609 24.1003 61.0028 16.6967 69.9532 11.5489C78.9036 6.40118 89.0494 3.68945 99.3771 3.68458C109.705 3.6797 119.853 6.38184 128.808 11.5211C137.764 16.6604 145.213 24.057 150.411 32.9721C151.524 32.8886 152.645 32.8322 153.78 32.8322C165.161 32.8324 176.108 37.1959 184.363 45.0228C192.619 52.8497 197.553 63.543 198.147 74.8974" fill="#F2F2F2"/>
<path d="M9.2536 71.4833C9.84842 60.129 14.7823 49.4356 23.0375 41.6088C31.2928 33.7819 42.24 29.4183 53.6212 29.4181C54.9715 29.4181 56.3048 29.4885 57.6245 29.6063C62.8145 20.6862 70.2564 13.2826 79.2068 8.13487C88.1572 2.98712 98.303 0.275392 108.631 0.270514C118.958 0.265636 129.107 2.96778 138.062 8.10708C147.017 13.2464 154.466 20.6429 159.665 29.5581C160.778 29.4745 161.899 29.4181 163.033 29.4181C174.415 29.4183 185.362 33.7819 193.617 41.6088C201.872 49.4356 206.806 60.129 207.401 71.4833" stroke="#3F3D56" stroke-miterlimit="10"/>
<path d="M222.548 127.47C222.548 127.47 230.128 145.861 218.758 150.188C218.758 150.188 235.001 157.22 238.791 155.597C242.581 153.975 245.289 150.188 245.289 149.106C245.289 148.025 241.498 147.484 241.498 147.484C241.498 147.484 234.46 148.025 239.874 130.175L222.548 127.47Z" fill="#FBBEBE"/>
<path d="M231.211 137.206C238.687 137.206 244.747 131.152 244.747 123.684C244.747 116.215 238.687 110.161 231.211 110.161C223.735 110.161 217.675 116.215 217.675 123.684C217.675 131.152 223.735 137.206 231.211 137.206Z" fill="#FBBEBE"/>
<path d="M222.277 137.477C228.856 137.477 234.189 129.969 234.189 120.709C234.189 111.448 228.856 103.94 222.277 103.94C215.698 103.94 210.365 111.448 210.365 120.709C210.365 129.969 215.698 137.477 222.277 137.477Z" fill="#FF6584"/>
<path d="M213.614 132.068C220.193 132.068 225.526 124.561 225.526 115.3C225.526 106.039 220.193 98.5317 213.614 98.5317C207.035 98.5317 201.702 106.039 201.702 115.3C201.702 124.561 207.035 132.068 213.614 132.068Z" fill="#FF6584"/>
<path d="M201.702 111.513C204.991 111.513 207.658 107.76 207.658 103.129C207.658 98.4988 204.991 94.7451 201.702 94.7451C198.413 94.7451 195.746 98.4988 195.746 103.129C195.746 107.76 198.413 111.513 201.702 111.513Z" fill="#FF6584"/>
<path d="M244.747 146.943C244.747 146.943 247.996 140.452 259.908 137.206C271.819 133.961 295.101 95.0155 295.101 95.0155C295.101 95.0155 294.019 71.7565 299.433 78.7883C304.848 85.8201 300.516 99.8837 300.516 99.8837L286.544 123.992C283.938 128.492 280.676 132.58 276.867 136.123C268.229 144.155 252.795 158.302 251.244 158.302C249.079 158.302 244.747 146.943 244.747 146.943Z" fill="#FBBEBE"/>
<path d="M225.796 239.438C225.796 239.438 229.587 285.415 228.504 289.742C227.421 294.07 224.172 302.724 229.587 328.147C235.001 353.569 228.504 351.947 228.504 351.947L245.83 359.519C245.83 359.519 239.874 330.31 240.957 322.197C242.04 314.083 241.498 297.315 244.747 285.956C247.996 274.597 248.537 242.683 248.537 242.683L225.796 239.438Z" fill="#FBBEBE"/>
<path opacity="0.1" d="M225.796 239.438C225.796 239.438 229.587 285.415 228.504 289.742C227.421 294.07 224.172 302.724 229.587 328.147C235.001 353.569 228.504 351.947 228.504 351.947L245.83 359.519C245.83 359.519 239.874 330.31 240.957 322.197C242.04 314.083 241.498 297.315 244.747 285.956C247.996 274.597 248.537 242.683 248.537 242.683L225.796 239.438Z" fill="black"/>
<path d="M245.156 353.667C243.813 354.599 240.365 355.544 233.918 348.701C233.918 348.701 230.128 343.292 226.879 348.701C223.631 354.11 225.796 354.651 227.962 357.355C230.053 359.966 246.776 377.699 253.777 376.979C254.021 376.955 254.261 376.904 254.493 376.828C260.99 374.664 251.786 367.633 251.786 367.633C251.786 367.633 245.751 358.358 245.717 353.978C245.719 353.912 245.702 353.847 245.67 353.789C245.637 353.732 245.589 353.684 245.531 353.652C245.473 353.62 245.407 353.605 245.341 353.607C245.275 353.61 245.211 353.63 245.156 353.667Z" fill="#3F3D56"/>
<path d="M212.802 234.029C212.802 234.029 203.597 255.124 199.807 265.942C197.817 271.622 191.798 273.425 186.529 273.857C180.014 274.363 173.685 276.269 167.974 279.443C160.396 283.692 150.055 288.515 143.497 287.579C132.126 285.956 141.331 303.806 141.331 303.806C141.331 303.806 158.116 293.529 173.818 292.447C189.52 291.365 206.304 289.742 213.885 280.006C221.465 270.27 239.874 239.438 239.874 239.438L212.802 234.029Z" fill="#FBBEBE"/>
<path d="M141.872 301.101C141.872 301.101 136.458 297.315 140.79 293.529C145.121 289.742 146.745 286.497 146.745 286.497C146.745 286.497 139.165 278.383 136.458 282.711C133.751 287.038 121.839 306.51 124.546 312.46C127.253 318.41 129.961 320.033 133.209 313.542C136.458 307.051 144.651 301.941 144.651 301.941L141.872 301.101Z" fill="#3F3D56"/>
<path d="M242.581 149.647C242.581 149.647 240.781 153.244 224.055 149.781C221.85 149.296 219.546 149.549 217.5 150.503C215.453 151.456 213.779 153.057 212.734 155.057C210.636 159.249 210.365 165.334 217.675 172.906C217.675 172.906 230.669 187.511 224.172 193.461C217.675 199.411 255.035 189.675 255.035 189.675C255.035 189.675 250.162 186.429 254.493 176.693C257.896 169.043 257.623 164.732 254.986 161.399C253.394 159.326 252.311 156.909 251.824 154.341C251.085 150.721 249.259 146.183 244.747 145.861C244.747 145.861 240.004 145.584 239.668 146.804C239.333 148.025 243.664 149.107 242.581 149.647Z" fill="#006C61"/>
<path d="M222.785 161.122C222.673 160.359 222.536 159.601 222.441 158.836C222.113 156.225 220.871 149.897 216.571 150.986C211.177 152.352 205.222 165.874 205.222 165.874C205.222 165.874 200.349 181.02 193.31 184.806C186.271 188.593 166.779 208.065 166.779 208.065C166.779 208.065 150.536 212.392 156.491 216.72C162.447 221.047 170.028 214.015 170.028 214.015L189.178 202.537C195.876 198.512 201.635 193.102 206.069 186.671C210.058 180.899 215.054 174.228 218.22 172.024C220.137 170.743 221.576 168.864 222.312 166.68C222.89 164.887 223.052 162.986 222.785 161.122Z" fill="#FBBEBE"/>
<path d="M227.421 192.379C227.421 192.379 202.514 189.133 188.437 205.902C174.359 222.67 164.072 217.801 165.155 220.506C166.237 223.211 218.216 255.124 248.537 251.338C266.996 249.033 276.827 246.928 281.693 245.634C283.781 245.098 285.623 243.863 286.913 242.136C287.635 241.18 288.53 240.368 289.552 239.742C290.076 239.398 290.527 238.951 290.875 238.43C291.224 237.908 291.464 237.322 291.582 236.706C291.7 236.09 291.692 235.456 291.56 234.843C291.428 234.23 291.173 233.649 290.812 233.136C282.225 220.725 258.912 187.847 252.327 186.97C244.206 185.888 227.421 192.379 227.421 192.379Z" fill="#006C61"/>
<path d="M231.482 115.3C236.266 115.3 240.145 112.515 240.145 109.079C240.145 105.644 236.266 102.859 231.482 102.859C226.697 102.859 222.818 105.644 222.818 109.079C222.818 112.515 226.697 115.3 231.482 115.3Z" fill="#FF6584"/>
<path d="M404.374 53.6514C404.926 50.7972 405.681 47.9858 406.632 45.2384C407.611 42.565 408.849 40.2842 410.228 40.2842C413.573 40.2842 398.52 26.0815 398.52 26.0815C398.52 26.0815 397.575 27.836 396.011 30.2003C394.856 31.9656 393.605 33.6668 392.265 35.2965C390.481 37.549 388.36 39.5131 385.976 41.1197C379.286 45.2969 404.374 53.6514 404.374 53.6514Z" fill="#A0616A"/>
<path d="M448.663 109.032C448.663 109.032 482.198 130.199 471.865 133.677C461.532 137.155 444.414 112.288 444.414 112.288L448.663 109.032Z" fill="#A0616A"/>
<path d="M403.681 60.9522C403.681 60.9522 419.743 72.6526 424.437 81.553C429.131 90.4534 453.535 110.232 453.535 110.232C453.535 110.232 448.496 120.177 446.06 119.577C443.624 118.977 393.404 81.6535 388.121 78.6313C382.838 75.609 390.89 56.9411 403.681 60.9522Z" fill="#006C61"/>
<path opacity="0.1" d="M403.681 60.9522C403.681 60.9522 419.743 72.6526 424.437 81.553C429.131 90.4534 453.535 110.232 453.535 110.232C453.535 110.232 448.496 120.177 446.06 119.577C443.624 118.977 393.404 81.6535 388.121 78.6313C382.838 75.609 390.89 56.9411 403.681 60.9522Z" fill="black"/>
<path d="M451.206 82.0571C451.206 82.0571 488.839 94.5889 479.64 100.437C470.441 106.285 447.861 86.2344 447.861 86.2344L451.206 82.0571Z" fill="#A0616A"/>
<path d="M426.954 253.324C426.954 253.324 442.843 246.641 441.171 256.666C439.498 266.692 431.972 275.882 431.972 280.894C431.972 285.907 417.755 296.768 415.246 294.262C412.737 291.755 419.427 281.73 417.755 275.882C416.082 270.034 414.41 256.666 414.41 256.666L426.954 253.324Z" fill="#55536E"/>
<path opacity="0.1" d="M426.954 253.324C426.954 253.324 442.843 246.641 441.171 256.666C439.498 266.692 431.972 275.882 431.972 280.894C431.972 285.907 417.755 296.768 415.246 294.262C412.737 291.755 419.427 281.73 417.755 275.882C416.082 270.034 414.41 256.666 414.41 256.666L426.954 253.324Z" fill="black"/>
<path d="M421.936 260.844C421.936 260.844 437.826 254.16 436.153 264.185C434.48 274.211 426.954 283.401 426.954 288.413C426.954 293.426 412.737 304.287 410.228 301.781C407.719 299.274 414.41 289.249 412.737 283.401C411.065 277.553 409.392 264.185 409.392 264.185L421.936 260.844Z" fill="#55536E"/>
<path d="M385.14 199.855C385.14 199.855 434.48 246.641 432.808 250.818C431.135 254.995 420.264 264.185 420.264 264.185C420.264 264.185 382.631 214.894 385.14 199.855Z" fill="#3F3D56"/>
<path opacity="0.1" d="M385.14 199.855C385.14 199.855 434.48 246.641 432.808 250.818C431.135 254.995 420.264 264.185 420.264 264.185C420.264 264.185 382.631 214.894 385.14 199.855Z" fill="black"/>
<path d="M373.432 115.475C373.432 115.475 385.976 128.007 382.631 152.235C379.286 176.463 385.14 199.856 391.83 207.375C398.52 214.894 426.118 258.337 426.118 258.337C426.118 258.337 414.41 277.553 405.211 267.527C396.011 257.502 368.414 216.565 368.414 216.565C368.414 216.565 343.326 167.273 340.817 153.906C338.308 140.539 337.472 119.652 344.162 115.475C350.852 111.298 373.432 115.475 373.432 115.475Z" fill="#3F3D56"/>
<path opacity="0.1" d="M394.172 32.8403C403.939 34.8621 402.969 35.2548 408.974 37.3601C409.007 37.2599 409.041 37.1763 409.074 37.0928C409.994 34.9039 410.571 37.7779 411.901 37.7779C415.246 37.7779 400.193 23.5752 400.193 23.5752C400.193 23.5752 399.624 24.6279 398.646 26.2069C398.353 26.6664 398.035 27.1676 397.684 27.694C397.391 28.1368 397.074 28.6046 396.739 29.0892L394.172 32.8403Z" fill="black"/>
<path d="M411.901 44.4615C420.676 44.4615 427.79 37.3547 427.79 28.5879C427.79 19.8212 420.676 12.7144 411.901 12.7144C403.125 12.7144 396.011 19.8212 396.011 28.5879C396.011 37.3547 403.125 44.4615 411.901 44.4615Z" fill="#A0616A"/>
<path d="M382.631 40.2842C382.631 40.2842 406.883 42.7905 411.901 53.6514C416.919 64.5123 380.958 117.146 378.45 117.981C375.941 118.817 340.817 122.994 340.817 122.994C340.817 122.994 342.489 69.525 375.104 49.4741C375.104 49.4741 382.631 46.1323 382.631 40.2842Z" fill="#006C61"/>
<path d="M396.011 46.1328C396.011 46.1328 414.41 53.6519 421.1 61.1709C427.79 68.69 456.224 82.0572 456.224 82.0572C456.224 82.0572 453.715 92.9181 451.206 92.9181C448.697 92.9181 390.994 68.69 385.14 67.0191C379.286 65.3482 382.631 45.2974 396.011 46.1328Z" fill="#006C61"/>
<path d="M410.646 30.6768C410.646 30.6768 414.828 26.4996 406.465 23.1578C406.465 23.1578 414.828 19.816 416.5 14.8033C418.173 9.79055 424.027 1.43604 429.045 14.8033C434.062 28.1705 443.261 45.7149 413.155 45.7149C413.155 45.7149 405.629 47.3858 405.629 40.7022C405.629 38.7568 406.082 36.838 406.953 35.0979C407.824 33.3578 409.088 31.8441 410.646 30.6768Z" fill="#3F3D56"/>
</g>
<defs>
<clipPath id="clip0_415_336">
<rect width="558" height="377" fill="white"/>
</clipPath>
</defs>
</svg>
