<svg width="581" height="445" viewBox="0 0 581 445" fill="none" xmlns="http://www.w3.org/2000/svg">
<g clip-path="url(#clip0_415_374)">
<path d="M509.196 426.468C509.126 426.771 508.825 426.96 508.522 426.891L4.09712 311.578L4.34769 310.481L508.773 425.795C509.075 425.864 509.265 426.166 509.196 426.468Z" fill="#E6E6E6"/>
<path d="M332.725 306.077C335.967 306.819 339.197 304.791 339.938 301.548C340.68 298.305 338.652 295.075 335.409 294.334C332.166 293.593 328.937 295.621 328.195 298.863C327.454 302.106 329.482 305.336 332.725 306.077Z" fill="#3F3D56"/>
<path d="M365.454 367.107C368.696 367.848 371.926 365.82 372.667 362.577C373.409 359.334 371.381 356.105 368.138 355.363C364.895 354.622 361.666 356.65 360.924 359.893C360.183 363.135 362.211 366.365 365.454 367.107Z" fill="#3F3D56"/>
<path d="M323.527 272.739L359.35 350.265C359.35 350.265 365.314 372.223 382.966 370.08C400.618 367.937 379.854 344.654 379.854 344.654L345.336 267.427C345.336 267.427 342.86 248.228 328.981 248.88C315.103 249.532 323.527 272.739 323.527 272.739Z" fill="#006C61"/>
<path d="M398.959 338.698L389.322 341.282L374.764 305.339L388.988 301.524L398.959 338.698Z" fill="#A0616A"/>
<path d="M365.882 347.338C365.718 347.924 365.997 349.598 366.155 350.185C366.639 351.992 368.497 353.064 370.303 352.579L400.148 344.571C401.381 344.24 402.112 342.973 401.781 341.741L401.448 340.498C401.448 340.498 401.922 336.368 397.648 332.58C397.648 332.58 394.837 337.198 387.677 333.067L385.203 330.498L375.517 342.544L369.059 345.159C367.646 345.731 366.294 345.871 365.882 347.338Z" fill="#2F2E41"/>
<path d="M369.231 273.549L359.594 276.134L345.036 240.191L359.26 236.375L369.231 273.549Z" fill="#A0616A"/>
<path d="M336.154 282.19C335.99 282.776 336.269 284.449 336.427 285.037C336.911 286.843 338.769 287.915 340.575 287.43L370.42 279.423C371.653 279.092 372.384 277.825 372.053 276.592L371.72 275.35C371.72 275.35 372.194 271.219 367.92 267.432C367.92 267.432 365.109 272.049 357.949 267.919L355.475 265.35L345.789 277.396L339.331 280.01C337.918 280.582 336.566 280.722 336.154 282.19Z" fill="#2F2E41"/>
<path d="M478.297 356.663C477.959 355.608 475.348 356.058 475.103 355.115C474.858 354.175 477.365 353.401 479.298 350.767C479.647 350.292 481.844 347.298 481.014 346.03C479.441 343.626 468.378 349.534 465.748 346.172C465.171 345.434 464.938 344.171 463.219 341.814C462.536 340.877 462.096 340.423 461.568 340.434C460.819 340.449 460.546 341.385 459.36 343.076C457.581 345.612 456.945 345.289 455.771 347.369C454.899 348.913 454.792 349.902 454.169 349.957C453.287 350.035 452.933 348.105 451.857 348.025C450.759 347.942 449.649 349.842 449.096 351.327C448.059 354.115 448.681 356.253 448.81 358.381C448.95 360.694 448.574 364.077 446.039 368.407L422.145 406.034C427.274 398.365 441.83 377.455 447.69 369.788C449.382 367.574 451.199 365.352 453.98 364.947C456.658 364.557 459.906 365.898 464.45 365.845C464.981 365.839 466.458 365.803 466.821 365.022C467.121 364.377 466.387 363.81 466.659 363.203C467.023 362.389 468.64 362.748 470.848 362.218C472.406 361.844 473.466 361.218 474.378 360.68C474.653 360.518 478.748 358.067 478.297 356.663Z" fill="#F2F2F2"/>
<path d="M416.19 365.148C415.575 365.01 415.043 366.421 414.509 366.269C413.977 366.118 414.321 364.665 413.586 362.956C413.453 362.648 412.618 360.706 411.756 360.747C410.122 360.825 409.83 367.96 407.421 368.281C406.892 368.351 406.205 368.101 404.553 368.264C403.895 368.33 403.546 368.414 403.399 368.677C403.19 369.049 403.57 369.453 404.058 370.523C404.79 372.128 404.448 372.347 405.13 373.523C405.636 374.396 406.09 374.735 405.937 375.056C405.721 375.511 404.672 375.128 404.322 375.633C403.965 376.149 404.577 377.241 405.146 377.941C406.215 379.255 407.444 379.566 408.526 380.117C409.701 380.715 411.253 381.876 412.647 384.37L424.219 406.954C421.936 402.224 415.873 389.046 413.801 383.958C413.203 382.489 412.637 380.956 413.24 379.474C413.821 378.047 415.417 376.84 416.702 374.594C416.852 374.332 417.26 373.596 416.982 373.193C416.752 372.859 416.262 373.056 416.042 372.748C415.748 372.334 416.391 371.644 416.768 370.407C417.034 369.534 417.032 368.834 417.031 368.231C417.031 368.049 417.01 365.332 416.19 365.148Z" fill="#F2F2F2"/>
<path d="M427.826 370.705L428.211 367.314L428.438 367.102C429.486 366.122 430.144 365.081 430.394 364.008C430.434 363.837 430.465 363.665 430.497 363.489C430.623 362.792 430.779 361.925 431.454 361.028C431.832 360.528 432.831 359.399 433.853 359.801C434.129 359.906 434.315 360.086 434.443 360.277C434.476 360.244 434.509 360.211 434.545 360.176C434.99 359.748 435.3 359.592 435.599 359.442C435.829 359.327 436.066 359.208 436.468 358.89C436.644 358.75 436.786 358.625 436.905 358.519C437.266 358.2 437.727 357.827 438.356 357.979C439.023 358.165 439.248 358.803 439.398 359.225C439.665 359.979 439.745 360.496 439.799 360.839C439.818 360.965 439.84 361.106 439.858 361.152C440.002 361.521 441.835 361.625 442.525 361.669C444.075 361.761 445.417 361.841 445.734 362.905C445.962 363.666 445.475 364.492 444.245 365.426C443.862 365.716 443.479 365.916 443.146 366.065C443.349 366.259 443.511 366.523 443.519 366.881C443.537 367.728 442.664 368.374 440.926 368.803C440.494 368.911 439.913 369.054 439.153 369.013C438.796 368.993 438.483 368.937 438.216 368.884C438.175 369.036 438.101 369.194 437.969 369.343C437.58 369.784 436.956 369.893 436.11 369.639C435.176 369.374 434.439 369.015 433.788 368.7C433.22 368.426 432.731 368.191 432.319 368.126C431.553 368.014 430.836 368.484 429.977 369.109L427.826 370.705Z" fill="#F2F2F2"/>
<path d="M434.044 351.411L430.666 351.899L430.404 351.733C429.19 350.968 428.017 350.596 426.915 350.626C426.74 350.63 426.565 350.644 426.387 350.658C425.68 350.713 424.803 350.782 423.764 350.356C423.184 350.117 421.839 349.437 421.968 348.347C422 348.053 422.127 347.828 422.279 347.655C422.238 347.632 422.198 347.608 422.155 347.582C421.629 347.261 421.399 347 421.178 346.749C421.008 346.556 420.833 346.357 420.424 346.049C420.244 345.913 420.087 345.809 419.954 345.72C419.554 345.452 419.076 345.1 419.064 344.453C419.075 343.761 419.634 343.382 420.005 343.13C420.666 342.68 421.146 342.471 421.464 342.332C421.581 342.282 421.711 342.224 421.752 342.196C422.072 341.963 421.708 340.163 421.575 339.485C421.271 337.962 421.008 336.644 421.957 336.067C422.635 335.654 423.558 335.915 424.773 336.868C425.151 337.165 425.441 337.484 425.67 337.769C425.806 337.523 426.02 337.3 426.365 337.201C427.18 336.969 428.025 337.649 428.882 339.222C429.095 339.612 429.381 340.138 429.534 340.883C429.606 341.234 429.63 341.551 429.647 341.823C429.805 341.823 429.976 341.855 430.154 341.945C430.679 342.209 430.943 342.786 430.912 343.669C430.892 344.639 430.732 345.443 430.592 346.152C430.471 346.771 430.368 347.305 430.409 347.719C430.496 348.488 431.132 349.063 431.955 349.735L434.044 351.411Z" fill="#F2F2F2"/>
<path d="M434.553 341.277L434.939 337.886L435.165 337.674C436.213 336.694 436.871 335.653 437.121 334.58C437.161 334.409 437.192 334.237 437.224 334.061C437.35 333.364 437.506 332.497 438.182 331.6C438.56 331.1 439.559 329.971 440.581 330.373C440.856 330.478 441.042 330.658 441.171 330.849C441.203 330.816 441.237 330.783 441.273 330.748C441.717 330.32 442.028 330.164 442.326 330.014C442.556 329.899 442.793 329.78 443.195 329.462C443.372 329.322 443.513 329.197 443.632 329.091C443.993 328.772 444.455 328.399 445.083 328.551C445.75 328.737 445.975 329.375 446.125 329.797C446.392 330.55 446.473 331.068 446.526 331.411C446.545 331.536 446.568 331.677 446.585 331.723C446.729 332.092 448.562 332.197 449.252 332.241C450.803 332.333 452.144 332.413 452.461 333.477C452.689 334.238 452.202 335.064 450.972 335.997C450.589 336.288 450.206 336.488 449.873 336.637C450.077 336.831 450.238 337.095 450.246 337.453C450.264 338.3 449.392 338.946 447.653 339.375C447.221 339.483 446.64 339.625 445.881 339.584C445.523 339.565 445.21 339.508 444.943 339.456C444.903 339.608 444.829 339.766 444.696 339.915C444.308 340.356 443.683 340.465 442.837 340.211C441.903 339.945 441.166 339.587 440.516 339.272C439.948 338.998 439.458 338.763 439.046 338.697C438.28 338.586 437.563 339.056 436.705 339.681L434.553 341.277Z" fill="#F2F2F2"/>
<path d="M423.264 406.233L422.67 405.64L421.841 405.548C421.846 405.47 421.841 405.288 421.836 405.003C421.813 403.442 421.739 398.691 422.439 391.395C422.928 386.302 423.727 381.134 424.815 376.032C425.904 370.921 427.027 367.121 427.928 364.066C428.609 361.762 429.295 359.577 429.964 357.448C431.751 351.762 433.439 346.39 434.499 340.259C434.736 338.89 435.229 336.041 434.269 332.67C433.712 330.714 432.751 328.872 431.41 327.195L432.722 326.147C434.201 328 435.264 330.041 435.882 332.212C436.946 335.949 436.409 339.054 436.152 340.546C435.073 346.786 433.369 352.209 431.564 357.95C430.898 360.071 430.214 362.247 429.536 364.541C428.643 367.568 427.531 371.335 426.455 376.38C425.38 381.421 424.591 386.526 424.108 391.555C423.417 398.758 423.49 403.439 423.514 404.976C423.526 405.797 423.529 405.969 423.264 406.233Z" fill="#F2F2F2"/>
<path d="M427.818 329.107C427.751 329.092 427.684 329.074 427.616 329.054C426.241 328.661 425.143 327.533 424.35 325.702C423.979 324.841 423.895 323.936 423.728 322.132C423.702 321.854 423.586 320.447 423.747 318.583C423.851 317.366 423.985 316.877 424.319 316.495C424.689 316.069 425.186 315.826 425.711 315.706C425.726 315.545 425.78 315.387 425.885 315.238C426.319 314.62 427.04 314.879 427.431 315.014C427.628 315.086 427.873 315.177 428.149 315.225C428.584 315.302 428.843 315.227 429.237 315.116C429.613 315.009 430.081 314.875 430.727 314.89C432.002 314.915 432.942 315.492 433.253 315.683C434.886 316.676 435.443 318.25 436.089 320.072C436.217 320.438 436.642 321.758 436.733 323.455C436.799 324.68 436.636 325.18 436.45 325.538C436.071 326.272 435.493 326.611 434.062 327.322C432.566 328.067 431.815 328.44 431.201 328.63C429.77 329.071 428.872 329.348 427.818 329.107Z" fill="#F2F2F2"/>
<path d="M164.664 237.101C164.067 235.241 159.463 236.034 159.03 234.371C158.599 232.713 163.02 231.349 166.43 226.702C167.045 225.864 170.92 220.584 169.456 218.346C166.682 214.105 147.168 224.528 142.528 218.597C141.51 217.295 141.1 215.068 138.068 210.91C136.862 209.256 136.087 208.457 135.156 208.475C133.834 208.502 133.353 210.152 131.26 213.136C128.122 217.61 127.001 217.04 124.93 220.709C123.392 223.432 123.202 225.176 122.103 225.273C120.548 225.411 119.924 222.007 118.026 221.865C116.089 221.72 114.131 225.07 113.156 227.69C111.326 232.607 112.423 236.379 112.651 240.133C112.899 244.213 112.235 250.179 107.763 257.818L65.6151 324.189C74.663 310.661 100.338 273.777 110.676 260.253C113.66 256.349 116.866 252.43 121.771 251.715C126.494 251.027 132.224 253.392 140.239 253.299C141.175 253.288 143.78 253.224 144.421 251.847C144.951 250.708 143.656 249.709 144.135 248.639C144.777 247.203 147.629 247.835 151.525 246.9C154.273 246.24 156.143 245.137 157.751 244.188C158.236 243.901 165.459 239.578 164.664 237.101Z" fill="#F2F2F2"/>
<path d="M55.1125 252.071C54.0272 251.827 53.0881 254.316 52.1467 254.048C51.2088 253.782 51.8148 251.218 50.5182 248.203C50.2844 247.66 48.8108 244.234 47.2904 244.307C44.4086 244.445 43.8932 257.03 39.6436 257.596C38.711 257.72 37.4994 257.279 34.5841 257.567C33.4244 257.682 32.8083 257.832 32.5487 258.294C32.1804 258.951 32.8515 259.663 33.7119 261.551C35.0023 264.382 34.3993 264.768 35.6022 266.843C36.4951 268.384 37.2965 268.98 37.027 269.547C36.6458 270.35 34.7949 269.675 34.1775 270.565C33.5474 271.474 34.6269 273.402 35.6315 274.636C37.5167 276.953 39.6843 277.503 41.5925 278.474C43.6662 279.53 46.4032 281.577 48.8621 285.976L69.2751 325.813C65.2464 317.469 54.5524 294.225 50.8976 285.249C49.8425 282.658 48.8439 279.954 49.9086 277.34C50.9337 274.823 53.7477 272.693 56.0146 268.732C56.2793 268.27 56.9998 266.973 56.5088 266.261C56.1028 265.672 55.2386 266.02 54.8514 265.476C54.332 264.746 55.4654 263.529 56.1306 261.346C56.5997 259.808 56.5975 258.571 56.5957 257.508C56.5951 257.188 56.5573 252.395 55.1125 252.071Z" fill="#F2F2F2"/>
<path d="M75.6362 261.872L76.3162 255.89L76.7158 255.517C78.5645 253.788 79.725 251.952 80.1667 250.059C80.237 249.758 80.2918 249.453 80.3479 249.143C80.5697 247.913 80.845 246.385 82.0366 244.802C82.7034 243.92 84.4655 241.929 86.2682 242.637C86.7548 242.823 87.0822 243.14 87.3091 243.477C87.3668 243.419 87.4259 243.361 87.4891 243.299C88.2734 242.544 88.8208 242.269 89.348 242.005C89.7531 241.801 90.1715 241.591 90.8805 241.03C91.1916 240.784 91.4408 240.563 91.6508 240.377C92.2876 239.814 93.1019 239.156 94.2111 239.424C95.3866 239.752 95.7843 240.877 96.0481 241.622C96.5193 242.951 96.6618 243.863 96.7561 244.469C96.79 244.69 96.8294 244.939 96.8597 245.02C97.114 245.671 100.348 245.856 101.564 245.932C104.299 246.095 106.666 246.236 107.225 248.113C107.627 249.455 106.767 250.912 104.598 252.559C103.923 253.071 103.248 253.424 102.66 253.686C103.019 254.029 103.304 254.494 103.318 255.126C103.35 256.621 101.811 257.759 98.7439 258.516C97.9818 258.707 96.9567 258.958 95.6175 258.886C94.9868 258.852 94.4346 258.752 93.964 258.659C93.8923 258.928 93.762 259.206 93.5283 259.47C92.8426 260.246 91.7407 260.439 90.2487 259.991C88.6015 259.523 87.3014 258.891 86.1542 258.335C85.1521 257.851 84.288 257.437 83.5618 257.322C82.211 257.125 80.9459 257.953 79.4315 259.056L75.6362 261.872Z" fill="#F2F2F2"/>
<path d="M86.6056 227.839L80.6471 228.699L80.1841 228.407C78.0429 227.057 75.9729 226.4 74.0294 226.453C73.7204 226.462 73.4119 226.486 73.0977 226.51C71.8522 226.608 70.304 226.729 68.4708 225.978C67.4488 225.556 65.0754 224.357 65.3034 222.434C65.3593 221.916 65.5837 221.519 65.8515 221.214C65.7808 221.173 65.7101 221.13 65.6335 221.085C64.7051 220.518 64.3003 220.058 63.9105 219.615C63.6107 219.275 63.3019 218.923 62.5794 218.38C62.2626 218.141 61.9851 217.956 61.7518 217.8C61.046 217.327 60.2026 216.706 60.1809 215.565C60.2 214.345 61.1875 213.675 61.841 213.231C63.0067 212.438 63.8534 212.069 64.415 211.824C64.6202 211.735 64.8511 211.634 64.9218 211.584C65.4868 211.173 64.8457 207.998 64.6112 206.801C64.0751 204.115 63.6112 201.79 65.2842 200.773C66.4808 200.044 68.1082 200.505 70.2512 202.186C70.9181 202.71 71.4302 203.273 71.8334 203.775C72.074 203.341 72.4517 202.947 73.0589 202.773C74.4968 202.363 75.9887 203.563 77.4987 206.338C77.876 207.027 78.3795 207.954 78.6495 209.268C78.776 209.887 78.8198 210.446 78.8494 210.925C79.1269 210.927 79.4293 210.982 79.7436 211.141C80.6688 211.607 81.1346 212.624 81.0799 214.181C81.0446 215.893 80.763 217.311 80.5165 218.562C80.3026 219.654 80.1214 220.595 80.1938 221.327C80.3466 222.683 81.4684 223.697 82.9193 224.882L86.6056 227.839Z" fill="#F2F2F2"/>
<path d="M87.5028 209.964L88.1828 203.982L88.5823 203.608C90.4311 201.879 91.5916 200.043 92.0333 198.15C92.1036 197.849 92.1584 197.544 92.2145 197.234C92.4363 196.005 92.7116 194.476 93.9031 192.893C94.57 192.012 96.3321 190.02 98.1348 190.729C98.6214 190.914 98.9488 191.232 99.1757 191.568C99.2334 191.51 99.2925 191.452 99.3557 191.39C100.14 190.636 100.687 190.361 101.215 190.096C101.62 189.892 102.038 189.683 102.747 189.122C103.058 188.876 103.307 188.654 103.517 188.468C104.154 187.905 104.968 187.247 106.078 187.515C107.253 187.843 107.651 188.969 107.915 189.713C108.386 191.042 108.528 191.955 108.623 192.56C108.657 192.781 108.696 193.03 108.726 193.111C108.981 193.762 112.214 193.947 113.431 194.024C116.166 194.187 118.532 194.328 119.092 196.204C119.493 197.546 118.634 199.003 116.465 200.65C115.789 201.162 115.114 201.515 114.527 201.778C114.886 202.12 115.17 202.586 115.185 203.217C115.216 204.712 113.677 205.851 110.61 206.608C109.848 206.798 108.823 207.05 107.484 206.978C106.853 206.943 106.301 206.844 105.831 206.751C105.759 207.019 105.629 207.297 105.395 207.561C104.709 208.338 103.607 208.53 102.115 208.082C100.468 207.614 99.168 206.982 98.0208 206.426C97.0187 205.942 96.1546 205.529 95.4284 205.413C94.0775 205.217 92.8125 206.045 91.2981 207.148L87.5028 209.964Z" fill="#F2F2F2"/>
<path d="M67.5893 324.541L66.5422 323.495L65.0799 323.333C65.0876 323.195 65.0797 322.873 65.0717 322.371C65.03 319.617 64.8997 311.236 66.1348 298.367C66.9972 289.384 68.407 280.267 70.3251 271.267C72.2465 262.253 74.2266 255.549 75.8169 250.161C77.0171 246.097 78.2272 242.242 79.4084 238.488C82.5608 228.458 85.5374 218.982 87.4069 208.167C87.8254 205.752 88.6943 200.726 87.0015 194.78C86.0193 191.331 84.3235 188.081 81.9595 185.122L84.2725 183.275C86.8811 186.544 88.7563 190.143 89.8471 193.973C91.7241 200.566 90.7774 206.042 90.3226 208.673C88.4198 219.68 85.4136 229.246 82.2302 239.373C81.0549 243.114 79.8487 246.952 78.6538 250.999C77.0778 256.338 75.1156 262.983 73.2192 271.882C71.3227 280.774 69.9309 289.779 69.0781 298.649C67.8594 311.356 67.9886 319.612 68.0308 322.324C68.0524 323.772 68.0571 324.076 67.5893 324.541Z" fill="#F2F2F2"/>
<path d="M75.6233 188.496C75.505 188.468 75.3859 188.438 75.2668 188.402C72.8413 187.708 70.9034 185.718 69.5051 182.489C68.8507 180.97 68.7028 179.375 68.4079 176.193C68.3615 175.702 68.1585 173.22 68.4417 169.933C68.626 167.785 68.8615 166.923 69.4499 166.248C70.1032 165.497 70.9803 165.069 71.906 164.857C71.9325 164.573 72.027 164.295 72.2131 164.032C72.9794 162.942 74.25 163.399 74.9395 163.636C75.2868 163.763 75.7197 163.924 76.2071 164.009C76.973 164.145 77.4314 164.013 78.1254 163.816C78.7894 163.627 79.6151 163.392 80.7544 163.419C83.0027 163.461 84.6617 164.481 85.2088 164.816C88.0901 166.568 89.0734 169.345 90.2114 172.559C90.4375 173.204 91.1868 175.532 91.3482 178.527C91.4648 180.687 91.1771 181.57 90.8493 182.2C90.1797 183.496 89.1616 184.093 86.6361 185.347C83.9976 186.661 82.6738 187.319 81.5895 187.655C79.0663 188.432 77.4819 188.92 75.6233 188.496Z" fill="#F2F2F2"/>
<path d="M415.05 214.714L371.301 258.946L393.835 313.525L379.296 317.067C379.296 317.067 347.181 262.357 347.219 256.187C347.256 250.017 371.005 212.196 371.005 212.196L343.756 205.967L362.243 244.518L348.058 249.514L313.539 196.313C313.539 196.313 310.302 186.449 316.245 184.475C322.188 182.501 373.761 172.323 373.761 172.323L415.05 214.714Z" fill="#2F2E41"/>
<path d="M320.702 289.599C323.945 290.341 327.175 288.313 327.916 285.07C328.658 281.827 326.63 278.597 323.387 277.856C320.144 277.115 316.915 279.143 316.173 282.385C315.432 285.628 317.46 288.858 320.702 289.599Z" fill="#3F3D56"/>
<path d="M351.838 356.099C355.08 356.841 358.31 354.813 359.051 351.57C359.793 348.327 357.765 345.097 354.522 344.356C351.28 343.615 348.05 345.643 347.309 348.885C346.567 352.128 348.595 355.358 351.838 356.099Z" fill="#3F3D56"/>
<path d="M354.764 119.582L368.725 103.552C368.725 103.552 397.357 116.275 404.001 130.838C410.645 145.4 420.15 181.898 420.15 181.898C420.15 181.898 427.232 210.977 412.208 222.645C397.184 234.314 388.741 202.178 388.741 202.178L372.73 173.117L370.27 171.868L354.764 119.582Z" fill="#006C61"/>
<path d="M322.339 192.893C323.636 191.06 325.353 189.563 327.348 188.529L350.125 153.938L360.097 160.65L335.422 194.408C335.05 196.622 334.154 198.715 332.807 200.512C329.499 205.057 324.475 207.033 321.584 204.928C318.694 202.824 319.031 197.435 322.339 192.893Z" fill="#A0616A"/>
<path d="M362.042 122.276L385.947 136.322L356.318 168.336L340.307 163.303L362.042 122.276Z" fill="#006C61"/>
<path d="M294.885 138.888C297.113 138.601 299.377 138.852 301.488 139.62L342.366 132.97L344.176 144.853L302.627 149.543C300.746 150.768 298.598 151.525 296.364 151.751C290.78 152.392 285.925 150.032 285.517 146.48C285.109 142.927 289.303 139.528 294.885 138.888Z" fill="#A0616A"/>
<path d="M365.538 114.493L379.625 140.065L335.962 147.275L328.828 132.082L365.538 114.493Z" fill="#006C61"/>
<path d="M180.408 218.655C180.429 218.663 180.459 218.676 180.496 218.691C181.221 218.988 185.613 220.731 190.602 220.032C192.716 219.735 192.095 219.399 197.014 217.814C202.781 215.956 204.079 216.275 204.779 214.953C206.176 212.315 203.155 206.974 200.421 206.655C199.701 206.571 198.853 206.818 197.748 206.267C197.505 206.145 196.442 205.615 196.106 204.558C195.807 203.615 196.358 203.111 196.317 202.384C196.21 200.477 192.107 198.6 188.187 198.367C185.933 198.234 184.017 198.838 180.278 200.052C173.77 202.166 170.516 203.222 169.274 205.697C168.096 208.042 169.315 209.448 167.642 211.864C166.085 214.114 164.548 213.589 163.548 215.469C161.94 218.494 164.366 222.772 165.377 224.554C166.486 226.508 167.696 227.718 169.303 229.324C171.32 231.341 172.329 232.349 173.762 232.597C176.36 233.048 183.881 235.255 184.466 233.154C184.685 232.366 193.786 235.133 191.191 225.521C190.872 224.342 179.671 222.963 179.665 222.326" fill="#2F2E41"/>
<path d="M180.333 228.568C188.32 230.394 196.274 225.4 198.1 217.413C199.925 209.427 194.931 201.472 186.945 199.647C178.959 197.821 171.004 202.815 169.179 210.802C167.353 218.788 172.347 226.743 180.333 228.568Z" fill="#FFB6B6"/>
<path d="M106.277 318.853C106.277 318.853 87.4651 307.745 85.8433 310.778C84.2216 313.811 98.3034 322.6 110.36 325.357C122.417 328.113 198.423 344.869 198.423 344.869C198.423 344.869 221.143 342.946 215.236 340.358C209.329 337.769 106.277 318.853 106.277 318.853Z" fill="#006C61"/>
<path d="M112.326 335.709C115.412 336.414 118.485 334.484 119.191 331.399C119.896 328.313 117.967 325.239 114.881 324.534C111.795 323.828 108.722 325.758 108.016 328.844C107.311 331.93 109.24 335.003 112.326 335.709Z" fill="#3F3D56"/>
<path d="M184.963 352.314C188.048 353.019 191.122 351.089 191.827 348.004C192.533 344.918 190.603 341.844 187.517 341.139C184.431 340.433 181.358 342.363 180.652 345.449C179.947 348.535 181.877 351.608 184.963 352.314Z" fill="#3F3D56"/>
<path d="M187.841 234.142L171.251 228.66L164.096 232.427C158.19 233.202 153.359 237.511 151.916 243.29L140.269 289.954L183.187 302.55C183.187 302.55 180.97 290.593 184.675 289.274C188.38 287.955 196.812 260.175 195.141 254.997C193.471 249.818 193.129 244.17 193.129 244.17L187.841 234.142Z" fill="#E6E6E6"/>
<path d="M141.782 288.753L133.463 300.776C133.463 300.776 120.994 317.421 127.724 324.53C134.453 331.638 181.27 338.009 181.27 338.009C181.27 338.009 186.555 335.194 190.429 327.724C194.303 320.254 184.254 304.651 184.254 304.651L183.187 302.55L141.782 288.753Z" fill="#2F2E41"/>
<path d="M190.846 336.183C190.667 340.951 192.982 344.907 196.016 345.021C199.051 345.134 201.654 341.361 201.832 336.591C201.93 334.687 201.569 332.787 200.782 331.05L201.283 310.839L191.794 310.806L192.307 330.734C191.392 332.408 190.891 334.276 190.846 336.183Z" fill="#FFB6B6"/>
<path d="M180.368 263.917C180.368 263.917 182.454 267.887 187.558 269.835C192.662 271.783 189.747 322.473 189.747 322.473L202.131 320.388C202.131 320.388 206.245 274.686 205.251 271.311C204.257 267.936 191.643 241.56 191.643 241.56L180.368 263.917Z" fill="#E6E6E6"/>
<path d="M119.634 321.277C117.723 325.649 113.918 328.206 111.136 326.99C108.354 325.774 107.649 321.244 109.561 316.871C110.301 315.113 111.45 313.559 112.914 312.337L121.244 293.915L129.805 298.009L120.685 315.734C120.782 317.639 120.422 319.54 119.634 321.277Z" fill="#FFB6B6"/>
<path d="M160.47 260.742C160.47 260.742 156.866 263.411 151.423 262.948C145.979 262.485 126.58 309.406 126.58 309.406L116.332 302.148C116.332 302.148 132.484 259.197 134.846 256.589C137.207 253.982 160.03 235.706 160.03 235.706L160.47 260.742Z" fill="#E6E6E6"/>
<path d="M170.688 322.726L163.762 313.207L136.834 337.251L141.527 343.701L170.688 322.726Z" fill="#FFB6B6"/>
<path d="M183.094 334.093C183.094 334.093 204.596 311.776 207.739 300.736C210.881 289.695 201.513 286.006 197.446 287.552C193.38 289.098 145.413 323.669 145.413 323.669L155.488 334.384L185.93 319.762L183.094 334.093Z" fill="#2F2E41"/>
<path d="M140.697 317.414L150.838 311.436L165.98 344.207L159.109 348.258L140.697 317.414Z" fill="#FFB6B6"/>
<path d="M125.749 320.984C125.749 320.984 116.079 291.542 118.046 280.232C120.012 268.922 130.053 269.67 133.044 272.83C136.035 275.989 161.012 329.045 161.012 329.045L150.486 333.241L129.421 306.844L125.749 320.984Z" fill="#2F2E41"/>
<path d="M140.222 332.802C140.222 332.802 128.063 335.902 128.315 337.507C128.567 339.112 127.878 344.834 127.878 344.834C127.878 344.834 118.367 348.539 124.845 354.043C131.323 359.547 136.977 360.53 138.397 358.379C139.817 356.228 141.658 349.531 141.658 349.531L147.699 340.701L140.222 332.802Z" fill="#2F2E41"/>
<path d="M164.428 339.264C164.428 339.264 174.031 347.339 173.107 348.675C172.183 350.011 170.317 355.464 170.317 355.464C170.317 355.464 177.274 362.934 169.048 365.077C160.822 367.219 155.302 365.648 154.958 363.093C154.613 360.539 155.866 353.708 155.866 353.708L154.261 343.129L164.428 339.264Z" fill="#2F2E41"/>
<path d="M178.767 213.978C178.788 213.987 178.818 214 178.855 214.015C179.58 214.311 183.972 216.055 188.961 215.355C191.075 215.059 190.454 214.723 195.373 213.138C201.14 211.279 202.438 211.598 203.138 210.277C204.536 207.639 201.515 202.298 198.78 201.979C198.06 201.895 197.212 202.142 196.107 201.59C195.864 201.469 194.801 200.939 194.465 199.882C194.166 198.939 194.717 198.434 194.676 197.708C194.569 195.801 190.466 193.923 186.546 193.691C184.292 193.557 182.376 194.162 178.637 195.376C172.129 197.489 168.875 198.546 167.633 201.021C166.455 203.366 167.674 204.771 166.001 207.188C164.444 209.438 162.907 208.913 161.908 210.792C160.299 213.817 162.725 218.095 163.736 219.878C164.845 221.832 166.055 223.042 167.662 224.648C169.68 226.664 170.688 227.673 172.121 227.921C174.719 228.371 177.804 226.629 178.389 224.528C178.608 223.74 178.33 223.425 178.134 220.501C178.052 219.282 178.03 218.287 178.024 217.65" fill="#2F2E41"/>
<path d="M364.549 82.783C368.922 83.7828 373.278 81.0479 374.278 76.6744C375.278 72.301 372.543 67.9452 368.17 66.9455C363.796 65.9457 359.441 68.6806 358.441 73.054C357.441 77.4274 360.176 81.7833 364.549 82.783Z" fill="#2F2E41"/>
<path d="M346.081 107.582C355.605 109.759 365.091 103.803 367.268 94.279C369.446 84.7548 363.49 75.2688 353.966 73.0916C344.442 70.9144 334.956 76.8704 332.779 86.3946C330.602 95.9189 336.557 105.405 346.081 107.582Z" fill="#A0616A"/>
<path d="M358.892 108.473C360.916 109.13 365.496 104.616 366.516 99.4635C367.172 96.1486 370.179 96.1547 371.362 91.9569C372.051 89.5108 368.427 87.8705 368.62 85.8263C368.969 82.1223 367.202 79.1724 366.98 78.812C365.06 75.7014 363.107 76.1234 360.84 72.5086C359.475 70.3322 360.039 69.9505 359.027 68.8922C356.105 65.8377 349.361 66.8826 344.907 69.3486C343.366 70.2019 338.884 67.8596 336.061 70.619C332.736 73.87 331.528 81.7746 332.346 83.0411C332.843 83.8106 334.651 82.6215 338.832 82.5488C342.703 82.4814 338.223 86.1663 342.631 86.3837C347.842 86.6406 349.171 85.3409 350.838 86.6837C352.6 88.1032 353.466 91.4491 352.478 93.698C351.988 94.814 351.193 95.3169 351.422 95.9937C351.84 97.2294 352.847 96.3416 353.453 97.6242C354.158 99.1161 350.947 101.796 351.34 102.216C351.419 102.3 351.705 102.357 354.956 100.403C356.255 99.6222 356.711 99.0649 356.897 99.209C357.198 99.4423 358.937 102.006 357.722 103.438C355.831 105.668 357.493 106.131 356.736 107.75C355.956 109.42 357.606 108.056 358.892 108.473Z" fill="#2F2E41"/>
</g>
<defs>
<clipPath id="clip0_415_374">
<rect width="518" height="338" fill="white" transform="translate(75.325) rotate(12.8768)"/>
</clipPath>
</defs>
</svg>
