<svg width="79" height="103" viewBox="0 0 79 103" fill="none" xmlns="http://www.w3.org/2000/svg">
<path d="M73.7906 33.0691C75.607 27.5674 74.9815 21.5404 72.0768 16.536C67.7083 8.86029 58.9264 4.91133 50.3497 6.76966C46.5342 2.43186 41.0524 -0.034974 35.3053 0.000374756C26.5384 -0.0198245 18.7598 5.67638 16.0627 14.0944C10.4308 15.2584 5.56943 18.816 2.72469 23.8583C-1.67627 31.5138 -0.672979 41.164 5.20665 47.7288C3.39022 53.2306 4.01571 59.2575 6.9205 64.2619C11.2889 71.9376 20.0708 75.8866 28.6476 74.0283C32.4606 78.3661 37.9449 80.8329 43.6919 80.795C52.4638 80.8177 60.2449 75.1165 62.9421 66.6909C68.574 65.5269 73.4353 61.9693 76.2801 56.927C80.676 49.2715 79.6702 39.6289 73.7931 33.0641L73.7906 33.0691ZM43.6969 75.5154C40.1867 75.5205 36.7865 74.2808 34.0919 72.0109C34.2145 71.9452 34.4271 71.8265 34.5647 71.7407L50.5073 62.449C51.3229 61.9819 51.8233 61.1058 51.8183 60.1589V37.4776L58.5561 41.4039C58.6287 41.4392 58.6762 41.5099 58.6862 41.5907V60.3735C58.6762 68.7259 51.9734 75.4978 43.6969 75.5154ZM11.4616 61.6208C9.70268 58.5556 9.06969 54.9626 9.67266 51.4757C9.79025 51.5464 9.99792 51.6752 10.1455 51.7611L26.0881 61.0527C26.8962 61.5299 27.897 61.5299 28.7076 61.0527L48.1704 49.7108V57.5633C48.1755 57.6441 48.1379 57.7224 48.0754 57.7729L31.9602 67.163C24.782 71.3342 15.6148 68.8547 11.4641 61.6208H11.4616ZM7.26577 26.5018C9.01715 23.4316 11.7818 21.0834 15.0744 19.8639C15.0744 20.0027 15.0669 20.2476 15.0669 20.4193V39.0052C15.0619 39.9495 15.5623 40.8257 16.3754 41.2928L35.8382 52.6322L29.1004 56.5584C29.0329 56.6038 28.9478 56.6114 28.8728 56.5786L12.7551 47.1809C5.59195 42.9946 3.13502 33.7458 7.26326 26.5044L7.26577 26.5018ZM62.6243 39.5026L43.1615 28.1607L49.8993 24.237C49.9669 24.1916 50.0519 24.184 50.127 24.2168L66.2447 33.6069C73.4203 37.7907 75.8798 47.0546 71.734 54.2961C69.9801 57.3613 67.2179 59.7095 63.9279 60.9315V41.7902C63.9354 40.8459 63.4375 39.9722 62.6268 39.5026H62.6243ZM69.3296 29.3171C69.212 29.2439 69.0043 29.1177 68.8567 29.0318L52.9142 19.7401C52.106 19.2629 51.1053 19.2629 50.2946 19.7401L30.8318 31.082V23.2296C30.8268 23.1488 30.8643 23.0705 30.9269 23.02L47.0421 13.6374C54.2202 9.45869 63.3974 11.9457 67.5357 19.1922C69.2846 22.2524 69.9176 25.8353 69.3246 29.3171H69.3296ZM27.1689 43.3127L20.4286 39.3865C20.3561 39.3511 20.3085 39.2804 20.2985 39.1996V20.4168C20.3035 12.0543 27.0263 5.27744 35.3128 5.28249C38.8181 5.28249 42.2108 6.52475 44.9054 8.78707C44.7828 8.85271 44.5726 8.97139 44.4325 9.05723L28.49 18.3489C27.6743 18.816 27.1739 19.6896 27.1789 20.6365L27.1689 43.3077V43.3127ZM30.8293 35.3491L39.4986 30.2968L48.1679 35.3466V45.4488L39.4986 50.4986L30.8293 45.4488V35.3491Z" fill="black"/>
<path d="M60.2432 99.7245V97.1816L66.6193 87.1365H68.8118V90.6564H67.5142L63.4946 97.0175V97.1368H72.5554V99.7245H60.2432ZM67.5738 102.409V98.949L67.6335 97.8229V87.1365H70.6612V102.409H67.5738Z" fill="black"/>
<path d="M57.7972 93.5127V96.0333H50.832V93.5127H57.7972Z" fill="black"/>
<path d="M36.7469 89.7988V87.1365H49.2902V89.7988H44.6144V102.409H41.4226V89.7988H36.7469Z" fill="black"/>
<path d="M23.7319 102.409V87.1365H29.7574C30.9158 87.1365 31.9027 87.3577 32.718 87.8002C33.5333 88.2377 34.1548 88.8467 34.5824 89.6272C35.0149 90.4028 35.2311 91.2977 35.2311 92.3119C35.2311 93.3261 35.0124 94.221 34.5749 94.9966C34.1374 95.7721 33.5035 96.3762 32.6733 96.8087C31.848 97.2412 30.8487 97.4575 29.6754 97.4575H25.8348V94.8698H29.1534C29.7748 94.8698 30.2869 94.7629 30.6896 94.5491C31.0973 94.3304 31.4005 94.0296 31.5994 93.6468C31.8032 93.259 31.9052 92.814 31.9052 92.3119C31.9052 91.8048 31.8032 91.3623 31.5994 90.9845C31.4005 90.6017 31.0973 90.3059 30.6896 90.0971C30.2819 89.8833 29.7649 89.7764 29.1385 89.7764H26.9609V102.409H23.7319Z" fill="black"/>
<path d="M17.8834 92.0733C17.779 91.7104 17.6323 91.3897 17.4434 91.1113C17.2545 90.8279 17.0233 90.5893 16.7499 90.3954C16.4814 90.1966 16.1732 90.0449 15.8252 89.9405C15.4821 89.8361 15.1018 89.7839 14.6842 89.7839C13.9036 89.7839 13.2176 89.9778 12.6259 90.3656C12.0393 90.7534 11.5819 91.3176 11.2538 92.0584C10.9257 92.7942 10.7616 93.6941 10.7616 94.758C10.7616 95.8219 10.9232 96.7267 11.2463 97.4725C11.5695 98.2182 12.0269 98.7875 12.6185 99.1802C13.2101 99.568 13.9086 99.7619 14.714 99.7619C15.4448 99.7619 16.0688 99.6326 16.5858 99.3741C17.1078 99.1106 17.5056 98.7402 17.779 98.263C18.0574 97.7857 18.1966 97.2214 18.1966 96.5701L18.8529 96.6671H14.9154V94.236H21.3063V96.16C21.3063 97.5023 21.023 98.6557 20.4562 99.6202C19.8894 100.58 19.1089 101.32 18.1146 101.843C17.1203 102.36 15.9818 102.618 14.6991 102.618C13.2673 102.618 12.0095 102.302 10.9257 101.671C9.84186 101.035 8.99669 100.132 8.39015 98.964C7.78859 97.7907 7.48781 96.3986 7.48781 94.7878C7.48781 93.5499 7.66679 92.4462 8.02474 91.4767C8.38767 90.5023 8.89477 89.677 9.54605 89.0009C10.1973 88.3248 10.9555 87.8102 11.8205 87.4572C12.6856 87.1042 13.6228 86.9277 14.632 86.9277C15.497 86.9277 16.3024 87.0545 17.0482 87.3081C17.7939 87.5566 18.4551 87.9096 19.0318 88.367C19.6135 88.8244 20.0883 89.3688 20.4562 90.0002C20.8241 90.6266 21.0603 91.3176 21.1647 92.0733H17.8834Z" fill="black"/>
</svg>
