<svg width="138" height="125" viewBox="0 0 138 125" fill="none" xmlns="http://www.w3.org/2000/svg">
<path d="M53.5352 109.5H46.0352V124.5H53.5352V109.5ZM130 124.5C134.142 124.5 137.5 121.142 137.5 117C137.5 112.858 134.142 109.5 130 109.5V124.5ZM53.5352 124.5H130V109.5H53.5352V124.5Z" fill="#E8E8E8"/>
<path d="M7.99998 109.5C3.85785 109.5 0.499985 112.858 0.499985 117C0.499985 121.142 3.85785 124.5 7.99998 124.5V109.5ZM7.99998 124.5H84.4648V109.5H7.99998V124.5Z" fill="#006C61"/>
<path d="M71.6177 79.9091V76.2273C71.6177 73.3636 72.2313 70.7159 73.4586 68.2841C74.7086 65.8523 76.5154 63.8977 78.879 62.4205C81.2427 60.9432 84.129 60.2045 87.5381 60.2045C91.0154 60.2045 93.9359 60.9432 96.2995 62.4205C98.6859 63.875 100.481 65.8182 101.686 68.25C102.913 70.6591 103.527 73.3182 103.527 76.2273V79.9091C103.527 82.7727 102.913 85.4205 101.686 87.8523C100.459 90.2841 98.6518 92.2386 96.2654 93.7159C93.879 95.1932 90.9699 95.9318 87.5381 95.9318C84.0836 95.9318 81.1745 95.1932 78.8109 93.7159C76.4472 92.2386 74.6518 90.2841 73.4245 87.8523C72.2199 85.4205 71.6177 82.7727 71.6177 79.9091ZM82.4927 76.2273V79.9091C82.4927 81.3636 82.8449 82.7614 83.5495 84.1023C84.2768 85.4432 85.6063 86.1136 87.5381 86.1136C89.5154 86.1136 90.845 85.4659 91.5268 84.1705C92.2086 82.8523 92.5495 81.4318 92.5495 79.9091V76.2273C92.5495 74.7045 92.22 73.2727 91.5609 71.9318C90.9245 70.5682 89.5836 69.8864 87.5381 69.8864C85.629 69.8864 84.3109 70.5682 83.5836 71.9318C82.8563 73.2727 82.4927 74.7045 82.4927 76.2273ZM35.4131 39.9545V36.2727C35.4131 33.3636 36.0381 30.7045 37.2881 28.2955C38.5609 25.8636 40.379 23.9205 42.7427 22.4659C45.1063 20.9886 47.9699 20.25 51.3336 20.25C54.8109 20.25 57.7313 20.9886 60.0949 22.4659C62.4813 23.9205 64.2881 25.8636 65.5154 28.2955C66.7427 30.7045 67.3563 33.3636 67.3563 36.2727V39.9545C67.3563 42.8636 66.7313 45.5227 65.4813 47.9318C64.254 50.3409 62.4472 52.2614 60.0609 53.6932C57.6745 55.125 54.7654 55.8409 51.3336 55.8409C47.9018 55.8409 44.9927 55.1136 42.6063 53.6591C40.2427 52.2045 38.4472 50.2727 37.2199 47.8636C36.0154 45.4545 35.4131 42.8182 35.4131 39.9545ZM46.3904 36.2727V39.9545C46.3904 41.4773 46.7427 42.8977 47.4472 44.2159C48.1745 45.5114 49.4699 46.1591 51.3336 46.1591C53.3336 46.1591 54.6631 45.5114 55.3222 44.2159C56.004 42.8977 56.3449 41.4773 56.3449 39.9545V36.2727C56.3449 34.75 56.0268 33.3182 55.3904 31.9773C54.754 30.6136 53.4018 29.9318 51.3336 29.9318C49.4245 29.9318 48.1177 30.625 47.4131 32.0114C46.7313 33.3977 46.3904 34.8182 46.3904 36.2727ZM40.5609 93L88.5609 23.1818H97.8677L49.8677 93H40.5609Z" fill="#333333"/>
</svg>
