<svg width="140" height="126" viewBox="0 0 140 126" fill="none" xmlns="http://www.w3.org/2000/svg">
<g clip-path="url(#clip0_394_363)">
<path d="M81.7027 14.8304C80.6438 13.0443 79.3891 11.1372 77.4241 10.5539C75.1484 9.8785 72.8107 11.2202 70.8279 12.5443C64.8979 16.504 59.1873 20.7953 53.7221 25.3983L53.7281 25.4677C57.9829 25.1684 62.2378 24.8691 66.4926 24.5699C69.5668 24.3537 72.7465 24.1076 75.4632 22.6244C76.4941 22.0616 77.499 21.3098 78.6672 21.2574C80.1185 21.1924 81.384 22.2261 82.3785 23.3062C88.2612 29.6951 89.9636 39.4653 96.5634 45.0785C92.4018 34.6109 87.4326 24.4965 81.7027 14.8304Z" fill="#F2F2F2"/>
<path d="M117.863 69.0202C117.213 68.1824 116.947 67.9862 116.305 67.1407C111.08 60.2486 106.169 53.1237 101.572 45.766C98.4495 40.7689 95.4818 35.6759 92.669 30.4869C91.3298 28.02 90.0274 25.5338 88.7617 23.0281C87.7795 21.0853 86.8192 19.1309 85.8809 17.1649C85.6126 16.6033 85.3518 16.0392 85.0924 15.4738C84.481 14.1442 83.881 12.8081 83.2368 11.4965C82.5027 10.0017 81.6091 8.43452 80.2611 7.4302C79.6476 6.95438 78.914 6.66648 78.1461 6.60016C77.0487 6.52786 76.0361 6.99001 75.0843 7.49475C68.1133 11.2322 61.6067 15.8084 55.7037 21.1253C49.7916 26.4208 44.5071 32.4035 39.9581 38.9513C39.8189 39.154 39.4898 38.9604 39.6303 38.7564C40.1834 37.9586 40.7475 37.1695 41.3225 36.3889C48.473 26.6899 57.2404 18.3492 67.2242 11.7483C68.9038 10.6381 70.6151 9.57998 72.3579 8.57394C73.2363 8.06661 74.1186 7.56575 75.0159 7.09586C75.8956 6.63502 76.8297 6.22063 77.8347 6.20514C81.2547 6.15093 83.0254 10.1011 84.2418 12.759C84.624 13.5955 85.0109 14.4295 85.4024 15.2608C86.8821 18.417 88.4186 21.5444 90.0122 24.643C90.9957 26.5562 92.0006 28.4581 93.0272 30.3488C96.2218 36.2366 99.6173 42.0052 103.214 47.6546C107.978 55.1379 112.704 61.7486 118.131 68.7466C118.281 68.9402 118.014 69.2164 117.863 69.0202Z" fill="#E4E4E4"/>
<path d="M55.3657 19.1748C55.167 18.9489 54.9695 18.723 54.7695 18.4971C53.1924 16.7182 51.5002 14.96 49.3345 13.9402C48.3019 13.4386 47.1747 13.1721 46.031 13.1592C44.8488 13.1631 43.6932 13.4793 42.6009 13.9221C42.0845 14.1325 41.5795 14.3713 41.0821 14.6256C40.5137 14.9174 39.9555 15.2285 39.3999 15.5422C38.357 16.1308 37.3275 16.7453 36.3116 17.3856C34.2902 18.6597 32.3321 20.0311 30.4374 21.4997C29.4551 22.2613 28.4932 23.0479 27.5515 23.8594C26.6756 24.6133 25.8175 25.3874 24.977 26.1818C24.7973 26.3509 24.529 26.0772 24.7087 25.9081C24.9302 25.6977 25.1542 25.4886 25.3783 25.282C26.0111 24.6985 26.6541 24.1262 27.3073 23.5651C28.4983 22.5401 29.7201 21.5548 30.9728 20.609C32.9207 19.1373 34.9357 17.7655 37.0178 16.4936C38.0583 15.8585 39.113 15.25 40.1821 14.6682C40.5049 14.4927 40.8315 14.321 41.1618 14.1583C41.9114 13.7727 42.6902 13.4494 43.4907 13.1915C44.6247 12.8173 45.8245 12.6971 47.0081 12.839C48.151 13.0086 49.2522 13.3971 50.2535 13.9841C52.3799 15.1962 54.0291 17.0706 55.634 18.8998C55.7961 19.0857 55.529 19.3607 55.3657 19.1748Z" fill="#E4E4E4"/>
<path d="M98.9347 37.6084L104.03 35.7077L106.56 34.7639C107.384 34.4566 108.206 34.1067 109.058 33.8866C109.798 33.671 110.584 33.6812 111.318 33.916C111.973 34.1633 112.573 34.5424 113.081 35.0308C113.601 35.5187 114.084 36.0452 114.528 36.606C115.079 37.2811 115.621 37.9633 116.166 38.6432C118.416 41.4492 120.651 44.2675 122.871 47.0979C125.092 49.9283 127.297 52.7707 129.488 55.6251C131.683 58.4865 133.864 61.3599 136.03 64.2452C136.295 64.5987 136.56 64.9523 136.825 65.3061C136.972 65.5016 137.302 65.3089 137.153 65.1107C134.971 62.1963 132.775 59.2939 130.562 56.4034C128.345 53.506 126.112 50.6209 123.864 47.7481C121.616 44.8753 119.352 42.015 117.074 39.1672C116.506 38.4577 115.938 37.749 115.368 37.0411C114.888 36.4439 114.413 35.8403 113.886 35.2845C112.918 34.2643 111.71 33.3626 110.264 33.3382C109.413 33.3238 108.59 33.599 107.8 33.8906C106.948 34.2049 106.098 34.5251 105.247 34.8424L100.116 36.7564L98.8337 37.2349C98.6061 37.3199 98.7044 37.6943 98.9347 37.6084Z" fill="#E4E4E4"/>
<path d="M48.664 16.1784C46.0746 14.8211 42.7586 15.087 40.3792 16.7827C44.9177 17.5813 49.4067 18.6498 53.823 19.9828C51.9891 18.8867 50.5545 17.1694 48.664 16.1784Z" fill="#F2F2F2"/>
<path d="M40.3537 16.7781L39.8552 17.1913C40.0238 17.0467 40.1991 16.9111 40.3792 16.7827C40.3707 16.7813 40.3622 16.7796 40.3537 16.7781Z" fill="#F2F2F2"/>
<path d="M112.89 37.6275C112.388 37.0048 111.846 36.3528 111.096 36.0999L110.395 36.128C115.727 45.7371 122.928 54.1335 131.557 60.8018C125.334 53.077 119.112 45.3522 112.89 37.6275Z" fill="#F2F2F2"/>
<path d="M80.8223 88.4978C80.8035 88.4978 80.7848 88.4944 80.7671 88.4877L67.2706 83.4312C67.2307 83.4162 67.1983 83.3857 67.1805 83.3464C67.1626 83.3071 67.1608 83.2622 67.1755 83.2215C67.1901 83.1809 67.22 83.1478 67.2585 83.1296C67.2971 83.1114 67.3411 83.1096 67.381 83.1245L80.8775 88.1811C80.9128 88.1943 80.9425 88.2198 80.9612 88.2531C80.9799 88.2863 80.9866 88.3253 80.98 88.363C80.9734 88.4008 80.954 88.435 80.9252 88.4596C80.8963 88.4843 80.8599 88.4978 80.8223 88.4978Z" fill="black"/>
<path d="M56.1553 79.0227C56.1364 79.0227 56.1177 79.0193 56.1 79.0126L42.6035 73.9561C42.5636 73.9411 42.5312 73.9106 42.5134 73.8713C42.4955 73.832 42.4937 73.7871 42.5084 73.7464C42.523 73.7058 42.5529 73.6727 42.5915 73.6545C42.63 73.6363 42.6741 73.6345 42.7139 73.6494L56.2105 78.706C56.2458 78.7192 56.2754 78.7447 56.2941 78.778C56.3128 78.8112 56.3195 78.8502 56.3129 78.8879C56.3063 78.9257 56.2869 78.9599 56.2581 78.9845C56.2293 79.0092 56.1929 79.0227 56.1553 79.0227Z" fill="black"/>
<path d="M31.0076 69.5476C30.9888 69.5476 30.9701 69.5442 30.9524 69.5375L17.4559 64.481C17.4361 64.4736 17.418 64.4623 17.4026 64.4477C17.3871 64.4332 17.3746 64.4157 17.3658 64.3962C17.3569 64.3768 17.3519 64.3557 17.3511 64.3343C17.3502 64.3128 17.3535 64.2915 17.3608 64.2713C17.368 64.2512 17.3791 64.2327 17.3933 64.2169C17.4076 64.2012 17.4248 64.1884 17.4438 64.1794C17.4629 64.1704 17.4836 64.1653 17.5046 64.1644C17.5256 64.1636 17.5466 64.1669 17.5663 64.1743L31.0629 69.2309C31.0982 69.2441 31.1278 69.2696 31.1465 69.3029C31.1652 69.3361 31.1719 69.3751 31.1653 69.4128C31.1587 69.4506 31.1393 69.4848 31.1105 69.5094C31.0817 69.5341 31.0452 69.5476 31.0076 69.5476Z" fill="black"/>
<path d="M28.4789 44.9874C27.9162 44.8591 27.3464 44.7578 26.7837 44.6872L26.7018 44.6769C22.9663 44.2233 19.8127 45.8135 19.3663 48.3762L19.287 48.8398C19.2374 49.1331 19.184 49.4483 19.1205 49.7971C19.0897 49.9692 19.2593 50.1454 19.5061 50.2016L109.347 70.6841C115.691 72.0831 122.015 73.4651 128.141 74.7916C129.288 75.0559 130.449 75.2475 131.619 75.3653C133.369 75.5165 134.651 75.3174 135.537 74.7567L135.537 74.7567C136.639 74.062 136.916 72.9341 137.142 71.64C137.598 69.0268 138.083 66.2829 138.567 63.5473C138.993 61.1364 139.419 58.7319 139.822 56.4289C140.058 55.0617 140.187 53.8366 139.361 52.6894C138.464 51.4481 136.545 50.4849 133.655 49.8261C133.62 49.8181 133.585 49.8102 133.55 49.8023C124.485 47.7754 114.71 49.3858 109.226 53.8096C108.595 54.319 107.987 54.8801 107.4 55.4228C106.531 56.2633 105.605 57.0402 104.629 57.7478C104.09 58.1262 103.518 58.4536 102.92 58.7257C102.879 58.7461 102.833 58.7673 102.784 58.7865C102.671 58.8384 102.554 58.8867 102.442 58.9278C101.787 59.1852 101.108 59.3712 100.415 59.4827L100.346 59.4933C100.294 59.5025 100.237 59.5107 100.181 59.5173C99.7841 59.5717 99.3842 59.6038 98.9834 59.6134C97.2516 59.6639 95.3658 59.3407 93.3787 58.6526C91.5449 58.0102 89.793 57.1464 88.1605 56.0795C86.4283 54.9499 84.8546 53.6752 83.3326 52.4425C82.6642 51.9009 81.9727 51.341 81.2779 50.8013C81.1473 50.6998 81.0187 50.6004 80.888 50.5004C80.037 49.852 79.2579 49.299 78.506 48.81C76.6603 47.603 74.6576 46.6663 72.5566 46.0271C70.3359 45.3688 68.2912 45.1894 66.4809 45.4922C65.9781 45.5759 65.4826 45.6999 64.9989 45.8629C62.7688 46.6139 61.168 48.1076 59.6201 49.5522C57.6945 51.349 55.7034 53.2072 52.4744 53.6696C48.7483 54.2044 43.8513 52.5128 40.5105 50.751C39.4602 50.1971 38.4211 49.5984 37.4162 49.0193C37.0103 48.7854 36.604 48.5523 36.1971 48.3201C35.3973 47.8651 34.7397 47.5062 34.1278 47.1904L33.9344 47.09C33.8267 47.0349 33.7188 46.9797 33.6086 46.9255C32.8797 46.5599 32.195 46.2469 31.5142 45.9682L31.3533 45.9015C31.0295 45.7732 30.7257 45.6587 30.4261 45.5523L30.3065 45.51C29.707 45.3022 29.0969 45.1277 28.4789 44.9874Z" fill="#F2F2F2"/>
<path d="M135.669 75.7525C135.658 75.7525 135.647 75.7513 135.636 75.749L17.1057 50.2305C17.0644 50.2213 17.0283 50.1958 17.0053 50.1596C16.9823 50.1234 16.9743 50.0793 16.983 50.0371C16.9918 49.9949 17.0165 49.9579 17.0519 49.9342C17.0873 49.9106 17.1304 49.9021 17.1719 49.9108L135.702 75.4293C135.741 75.4376 135.775 75.4603 135.798 75.4929C135.822 75.5256 135.832 75.5659 135.828 75.606C135.824 75.6462 135.806 75.6834 135.776 75.7104C135.747 75.7375 135.709 75.7525 135.669 75.7525Z" fill="black"/>
<path d="M111.082 16.6629C115.594 16.6629 119.251 12.9328 119.251 8.33147C119.251 3.73013 115.594 0 111.082 0C106.57 0 102.913 3.73013 102.913 8.33147C102.913 12.9328 106.57 16.6629 111.082 16.6629Z" fill="#FF6584"/>
<path d="M125.824 1.93909C121.865 1.3933 117.345 3.57577 116.319 7.51359C116.06 6.81344 115.59 6.21527 114.976 5.80548C114.363 5.39569 113.637 5.1955 112.904 5.23385C112.172 5.27219 111.47 5.54707 110.901 6.01878C110.331 6.49049 109.924 7.13461 109.737 7.85807L110.19 8.18915C118.674 10.0603 127.456 10.0199 135.923 8.07049C133.17 5.11871 129.783 2.48487 125.824 1.93909Z" fill="#F0F0F0"/>
<path d="M108.845 13.0477C104.886 12.5019 100.366 14.6844 99.3401 18.6222C99.0815 17.9221 98.6114 17.3239 97.9976 16.9141C97.3839 16.5043 96.6583 16.3041 95.9257 16.3425C95.193 16.3808 94.4913 16.6557 93.9219 17.1274C93.3525 17.5991 92.9449 18.2432 92.7579 18.9667L93.2112 19.2978C101.695 21.169 110.478 21.1285 118.945 19.1791C116.191 16.2274 112.804 13.5935 108.845 13.0477Z" fill="#F0F0F0"/>
<path d="M115.95 79.8977C115.789 79.7325 115.665 79.5332 115.588 79.3139C115.51 79.0946 115.481 78.8607 115.501 78.6285C115.522 78.3964 115.592 78.1717 115.708 77.9703C115.823 77.7689 115.98 77.5957 116.167 77.4629L113.678 64.8535L116.427 65.7536L118.419 77.95C118.617 78.2866 118.687 78.6855 118.616 79.0712C118.545 79.4569 118.337 79.8025 118.033 80.0425C117.729 80.2826 117.348 80.4005 116.964 80.3738C116.581 80.3471 116.22 80.1777 115.95 79.8977Z" fill="#9E616A"/>
<path d="M112.275 53.2196L113.98 51.9066C113.98 51.9066 115.485 51.7979 115.751 54.5651C116.018 57.3323 116.565 62.7251 116.565 62.7251L119.174 75.0529L115.562 75.8616L112.767 62.5577L111.09 58.607L112.275 53.2196Z" fill="#2F2E41"/>
<path d="M115.086 73.3497L105.476 73.1864L104.675 66.4885H115.086V73.3497Z" fill="#9E616A"/>
<path d="M106.202 114.326L103.983 114.326L102.928 105.598L106.202 105.598L106.202 114.326Z" fill="#9E616A"/>
<path d="M120.336 111.192L118.118 111.176L117.122 102.44L120.008 103.116L120.336 111.192Z" fill="#9E616A"/>
<path d="M113.397 60.7203L113.9 62.0533L113.799 63.3863L103.961 66.8619L104.449 61.0279L105.555 59.6948L113.397 60.7203Z" fill="#FFB6B6"/>
<path d="M109.176 48.7242C111.117 48.7242 112.69 47.1196 112.69 45.1403C112.69 43.161 111.117 41.5564 109.176 41.5564C107.236 41.5564 105.662 43.161 105.662 45.1403C105.662 47.1196 107.236 48.7242 109.176 48.7242Z" fill="#9E616A"/>
<path d="M107.194 118.623H105.62L105.339 117.107L104.619 118.623H100.444C100.244 118.623 100.049 118.557 99.8874 118.436C99.7262 118.315 99.6071 118.145 99.5475 117.95C99.488 117.755 99.491 117.546 99.5563 117.353C99.6216 117.16 99.7456 116.994 99.9103 116.878L103.245 114.529V112.996L106.752 113.21L107.194 118.623Z" fill="#2F2E41"/>
<path d="M121.5 115.497L119.926 115.485L119.655 113.967L118.925 115.478L114.75 115.448C114.55 115.447 114.355 115.38 114.195 115.258C114.035 115.136 113.917 114.965 113.858 114.77C113.8 114.574 113.805 114.365 113.871 114.173C113.938 113.98 114.063 113.814 114.229 113.7L117.579 111.375L117.59 109.842L121.095 110.081L121.5 115.497Z" fill="#2F2E41"/>
<path d="M121.027 104.98L119.411 94.9136L117.489 81.0278C118.897 78.3617 115.727 70.0825 115.727 70.0825L115.28 70.1044L105.153 72.0528L105.155 72.0429C103.084 77.8043 102.398 80.6506 102.512 86.7861L102.92 108.842H102.792C102.579 108.842 102.375 108.928 102.225 109.081C102.075 109.234 101.991 109.442 101.991 109.658C101.991 109.875 102.075 110.083 102.225 110.236C102.375 110.389 102.579 110.475 102.792 110.475H106.796C107.008 110.475 107.212 110.389 107.362 110.236C107.512 110.083 107.597 109.875 107.597 109.658C107.597 109.442 107.512 109.234 107.362 109.081C107.212 108.928 107.008 108.842 106.796 108.842H106.693L110.368 82.58L113.485 93.6067L117.008 104.879C115.727 104.552 115.926 105.309 115.926 105.738C115.926 105.954 116.01 106.162 116.161 106.315C116.311 106.468 116.514 106.555 116.727 106.555H120.731C120.918 106.555 121.098 106.489 121.242 106.368C121.385 106.247 121.483 106.078 121.518 105.892C121.553 105.705 121.523 105.512 121.433 105.346C121.344 105.179 121.2 105.05 121.027 104.98Z" fill="#2F2E41"/>
<path d="M116.516 70.5113L116.195 67.244C116.162 67.1107 116.088 66.9916 115.984 66.9037C115.881 66.8158 115.752 66.7637 115.618 66.7548C115.484 65.1984 114.923 58.484 114.889 58.1911L114.888 58.1788L114.632 52.615C114.623 52.4129 114.541 52.2214 114.402 52.0771C114.263 51.9327 114.077 51.8456 113.879 51.8324L112.53 51.7425C112.512 51.7419 112.494 51.7339 112.481 51.7204C112.469 51.7068 112.461 51.6887 112.461 51.6698C112.461 51.5179 112.432 51.3674 112.375 51.2271C112.318 51.0867 112.235 50.9592 112.129 50.8518C112.024 50.7443 111.899 50.6591 111.761 50.601C111.624 50.5429 111.476 50.5129 111.327 50.5129H107.334C107.075 50.513 106.825 50.6094 106.631 50.784C106.438 50.9586 106.313 51.1993 106.281 51.4611C106.279 51.4791 106.27 51.4958 106.257 51.5078C106.244 51.5198 106.227 51.5262 106.209 51.5258L106.208 51.5258C105.755 51.5162 105.312 51.6729 104.962 51.9674C104.612 52.2618 104.377 52.6746 104.3 53.1307C103.754 56.3703 102.66 63.7231 103.201 67.8108C103.389 69.2338 102.983 68.1067 102.912 69.2973C102.905 69.4124 102.92 69.5278 102.957 69.6368C102.993 69.7458 103.051 69.8464 103.126 69.9328C102.796 70.0304 102.668 70.3937 102.753 70.7359L102.683 70.7182C102.724 70.8862 102.829 71.0305 102.975 71.1194C103.121 71.2083 103.296 71.2344 103.46 71.192L115.731 68.0374C116.074 67.9492 116.602 70.8612 116.516 70.5113Z" fill="#2F2E41"/>
<path d="M103.01 79.8977C103.172 79.7325 103.295 79.5332 103.373 79.3139C103.45 79.0946 103.48 78.8607 103.459 78.6285C103.438 78.3964 103.368 78.1717 103.253 77.9703C103.138 77.7689 102.981 77.5957 102.793 77.4629L105.282 64.8535L102.533 65.7536L100.541 77.9501C100.343 78.2866 100.273 78.6856 100.344 79.0712C100.416 79.4569 100.623 79.8025 100.927 80.0426C101.232 80.2826 101.612 80.4005 101.996 80.3738C102.38 80.3471 102.741 80.1777 103.01 79.8977Z" fill="#9E616A"/>
<path d="M106.686 53.2196L104.98 51.9066C104.98 51.9066 103.476 51.7979 103.209 54.5651C102.943 57.3323 102.396 62.7251 102.396 62.7251L99.786 75.0529L103.399 75.8616L106.194 62.5577L107.871 58.607L106.686 53.2196Z" fill="#2F2E41"/>
<path d="M112.939 41.9534C113.594 42.1522 114.205 41.5937 114.66 41.0646L114.498 41.2605C115.57 42.0304 116.211 43.2845 116.627 44.5541C117.043 45.8222 117.275 47.1506 117.744 48.4006C118.213 49.6491 118.971 50.8571 120.131 51.48C121.684 52.3142 123.588 51.9349 125.24 51.333C125.262 51.3246 125.283 51.3176 125.305 51.3092C124.636 50.0342 124.226 48.6345 124.1 47.194C124.78 48.5475 125.76 49.7204 126.963 50.6191C128.042 50.1186 129.081 49.5297 130.067 48.8583C130.705 48.4229 131.378 47.8602 131.452 47.0806C131.527 46.3065 130.961 45.5997 130.292 45.2274C129.624 44.855 128.855 44.7291 128.125 44.5051C127.396 44.2825 126.653 43.9172 126.27 43.2453C125.387 41.7 126.872 39.5207 125.925 38.0145C125.459 37.2741 124.553 36.9773 123.713 36.7716C122.431 36.4588 121.13 36.2348 119.818 36.1011C118.666 35.9835 117.476 35.9401 116.381 36.3181C115.286 36.696 114.292 37.5736 114.058 38.7298C113.418 39.0727 112.742 39.4521 112.399 40.1029C112.055 40.7524 112.246 41.7434 112.939 41.9534Z" fill="#2F2E41"/>
<path d="M113.917 41.693C114.543 42.4939 114.885 43.3601 114.885 43.8788C116.187 46.3062 114.325 48.3912 111.944 49.7194C110.995 50.2519 109.899 50.4468 108.829 50.2733L108.729 49.8398L108.595 50.2303C108.595 50.2303 107.045 55.4503 106.534 55.7565C106.728 54.8275 106.95 50.5262 107.058 49.6196C107.207 48.3856 106.686 46.5485 106.31 45.4314C106.077 44.7428 105.958 44.0197 105.956 43.2913V43.2594L105.59 44.4585L104.258 43.8787C104.506 42.4285 104.258 40.7821 107.23 40.9249C108.837 39.7974 110.253 39.6256 111.416 39.9454C111.566 39.7088 112.431 40.152 112.681 40.0274" fill="#2F2E41"/>
<path d="M117.244 67.1788C117.187 67.6929 116.964 68.1731 116.609 68.543C116.255 68.913 115.789 69.1515 115.287 69.2208L108.051 70.2206C107.453 70.3026 106.847 70.1392 106.367 69.7661C105.887 69.393 105.572 68.8409 105.49 68.2308L104.447 60.3666C104.38 59.8553 104.481 59.3355 104.736 58.8898L104.686 58.5075C104.481 58.4312 104.3 58.299 104.162 58.1253C104.025 57.9517 103.937 57.743 103.908 57.522C103.878 57.301 103.909 57.0761 103.996 56.8714C104.083 56.6668 104.223 56.4902 104.401 56.3609L105.295 52.138C105.283 52.0475 105.289 51.9555 105.314 51.8679C105.339 51.7802 105.382 51.6989 105.44 51.629C105.497 51.5592 105.569 51.5024 105.649 51.4623C105.729 51.4222 105.817 51.3998 105.907 51.3963C106.069 51.3945 106.227 51.4541 106.349 51.5635C106.471 51.673 106.549 51.8247 106.568 51.9893L106.65 52.6101C106.759 53.4306 107.17 54.1783 107.798 54.7019C108.427 55.2256 109.228 55.4861 110.038 55.4309C110.848 55.3758 111.607 55.0089 112.162 54.4046C112.717 53.8003 113.027 53.0036 113.028 52.1756C113.028 52.0275 113.018 51.8796 112.999 51.7329L112.919 51.1219C112.893 50.9521 112.931 50.7786 113.026 50.6364C113.12 50.4941 113.264 50.3938 113.428 50.3557C113.514 50.3391 113.602 50.3405 113.687 50.3598C113.772 50.3791 113.852 50.4158 113.923 50.4678C113.994 50.5198 114.053 50.5859 114.098 50.6622C114.142 50.7384 114.171 50.8231 114.183 50.9111L114.7 54.7992C114.985 54.7792 115.267 54.8632 115.496 55.0361C115.726 55.2091 115.887 55.4597 115.952 55.7431C116.016 56.0264 115.98 56.324 115.849 56.5824C115.718 56.8408 115.501 57.0432 115.237 57.1532C115.496 57.3362 115.715 57.5722 115.879 57.8461C116.044 58.1201 116.151 58.426 116.193 58.7444L117.237 66.6103C117.263 66.7988 117.265 66.9897 117.244 67.1788Z" fill="#006C61"/>
<path d="M104.583 58.6805C104.574 58.6161 104.591 58.5509 104.63 58.4992C104.669 58.4475 104.726 58.4136 104.789 58.4048L114.65 56.8631C114.681 56.8587 114.713 56.8607 114.744 56.869C114.774 56.8772 114.803 56.8914 114.828 56.9109C114.853 56.9304 114.874 56.9548 114.89 56.9826C114.906 57.0104 114.916 57.0411 114.921 57.073C114.925 57.1049 114.923 57.1373 114.915 57.1685C114.907 57.1996 114.893 57.2288 114.874 57.2544C114.854 57.28 114.831 57.3015 114.803 57.3177C114.776 57.3338 114.746 57.3444 114.715 57.3487L104.853 58.8904C104.79 58.8991 104.726 58.8818 104.676 58.8425C104.625 58.8031 104.592 58.7448 104.583 58.6805Z" fill="#3F3D56"/>
<path d="M105.735 62.8087L105.409 60.3524C105.384 60.1629 105.434 59.971 105.548 59.8188C105.661 59.6667 105.829 59.5669 106.015 59.5412L115.434 58.3124C115.62 58.2868 115.808 58.3375 115.957 58.4533C116.106 58.5692 116.204 58.7407 116.229 58.9302L116.555 61.3865C116.58 61.576 116.53 61.7679 116.417 61.9201C116.303 62.0722 116.135 62.1721 115.949 62.1977L112.187 62.7256C112.195 62.7518 112.201 62.7784 112.206 62.8054L112.539 65.3146L115.714 64.8765C115.734 64.8735 115.756 64.8749 115.776 64.8803C115.796 64.8858 115.815 64.8953 115.832 64.9083C115.849 64.9213 115.863 64.9375 115.874 64.9561C115.884 64.9746 115.891 64.9951 115.894 65.0164C115.897 65.0377 115.896 65.0593 115.89 65.0801C115.885 65.1009 115.875 65.1203 115.863 65.1374C115.85 65.1545 115.834 65.1688 115.816 65.1796C115.798 65.1904 115.777 65.1974 115.757 65.2002L112.582 65.6384L111.153 65.8356L108.138 66.2519C108.095 66.2576 108.053 66.2461 108.019 66.2199C107.985 66.1936 107.963 66.1548 107.958 66.1119C107.952 66.069 107.963 66.0255 107.989 65.9911C108.014 65.9566 108.053 65.934 108.095 65.9281L111.11 65.5118L110.777 63.0026C110.775 62.9753 110.774 62.9479 110.775 62.9205L106.531 63.4265C106.345 63.4521 106.157 63.4014 106.008 63.2856C105.858 63.1697 105.761 62.9982 105.735 62.8087Z" fill="#3F3D56"/>
<path d="M68.7154 126C68.6758 126 68.6376 125.985 68.6082 125.958L0.0529436 62.9343C0.0214522 62.9053 0.00254206 62.8647 0.000363879 62.8214C-0.0018143 62.7782 0.0129183 62.7359 0.0413268 62.7037C0.0697353 62.6715 0.109499 62.6522 0.151885 62.6499C0.194271 62.6476 0.235817 62.6626 0.2674 62.6915L68.8227 125.715C68.8467 125.737 68.8637 125.766 68.8712 125.799C68.8788 125.831 68.8766 125.864 68.865 125.895C68.8534 125.926 68.8329 125.953 68.8061 125.971C68.7794 125.99 68.7478 126 68.7154 126Z" fill="black"/>
<path d="M104.603 62.3369C104.606 62.2897 104.6 62.2424 104.584 62.198C104.567 62.1537 104.542 62.1133 104.51 62.0797C104.477 62.0461 104.438 62.0201 104.394 62.0033C104.351 61.9865 104.305 61.9794 104.258 61.9824C104.241 61.983 104.224 61.9852 104.207 61.9889L102.179 62.4561C102.134 62.4673 102.092 62.4881 102.055 62.5171C102.018 62.546 101.987 62.5826 101.965 62.6244C101.935 62.6255 101.905 62.6299 101.877 62.6374C101.749 62.6669 101.638 62.7468 101.569 62.8595C101.499 62.9723 101.476 63.1086 101.505 63.2386C101.534 63.3686 101.612 63.4815 101.723 63.5526C101.833 63.6237 101.967 63.6471 102.094 63.6176C102.167 63.6005 102.235 63.567 102.293 63.5196L102.98 65.493C103.015 65.5549 103.068 65.6037 103.131 65.6323C103.195 65.6608 103.266 65.6676 103.334 65.6515L104.652 65.3476C104.72 65.3315 104.78 65.2941 104.826 65.2407C104.871 65.1873 104.898 65.1206 104.904 65.0503L104.603 62.3369ZM102.064 63.4771C102.019 63.4876 101.972 63.489 101.927 63.4811C101.881 63.4732 101.837 63.4562 101.798 63.4311C101.759 63.406 101.725 63.3733 101.698 63.3348C101.671 63.2963 101.652 63.2528 101.642 63.2068C101.632 63.1607 101.63 63.1131 101.638 63.0666C101.646 63.02 101.662 62.9755 101.687 62.9355C101.712 62.8956 101.744 62.8609 101.782 62.8336C101.819 62.8063 101.862 62.7868 101.907 62.7763C101.913 62.7747 101.92 62.7763 101.926 62.7747C101.926 62.8342 101.941 62.8928 101.97 62.9446L102.221 63.3922C102.177 63.4345 102.123 63.4639 102.064 63.4771Z" fill="#CCCCCC"/>
<path d="M104.258 61.9822C104.278 62.2436 103.839 62.5441 103.251 62.6634C102.711 62.7761 102.227 62.6977 102.091 62.4919C102.119 62.4753 102.148 62.4632 102.179 62.4559L104.207 61.9887C104.224 61.985 104.241 61.9828 104.258 61.9822Z" fill="#E6E6E6"/>
<path d="M103.199 67.2024L102.61 65.9533C102.265 65.2215 102.896 64.4429 104.018 64.2178L105.399 63.9802L105.977 68.0972L105.857 68.1213C104.736 68.3464 103.544 67.9341 103.199 67.2024Z" fill="#006C61"/>
<g opacity="0.2">
<path d="M117.244 67.1788C117.187 67.6929 116.964 68.1731 116.609 68.5431C116.255 68.913 115.789 69.1516 115.287 69.2208L108.051 70.2206C107.622 70.2799 107.184 70.2126 106.791 70.0268C106.397 69.841 106.064 69.5444 105.83 69.1718C106.034 68.9203 106.286 68.7145 106.572 68.5672C106.857 68.4199 107.17 68.3343 107.489 68.3158C108.111 68.2831 108.713 68.4939 109.322 68.6115C110.793 68.8943 112.316 68.6368 113.619 67.8845C114.185 67.5496 114.694 67.1216 115.315 66.8831C115.937 66.6462 116.739 66.6544 117.189 67.1167C117.209 67.1362 117.227 67.1569 117.244 67.1788Z" fill="black"/>
</g>
</g>
<defs>
<clipPath id="clip0_394_363">
<rect width="140" height="126" fill="white"/>
</clipPath>
</defs>
</svg>
