<svg width="190" height="172" viewBox="0 0 190 172" fill="none" xmlns="http://www.w3.org/2000/svg">
<g clip-path="url(#clip0_415_144)">
<path d="M110.882 20.2447C109.445 17.8065 107.742 15.2031 105.076 14.407C101.987 13.485 98.8146 15.3166 96.1235 17.124C88.0758 22.5293 80.3256 28.3872 72.9085 34.6708L72.9167 34.7654C78.6911 34.3569 84.4656 33.9484 90.24 33.5399C94.4121 33.2447 98.7274 32.9089 102.414 30.8842C103.813 30.1159 105.177 29.0896 106.763 29.0181C108.732 28.9293 110.45 30.3405 111.799 31.8148C119.783 40.5362 122.093 53.8733 131.05 61.5357C125.402 47.2467 118.659 33.4398 110.882 20.2447Z" fill="#F2F2F2"/>
<path d="M159.957 94.218C159.074 93.0743 158.713 92.8065 157.843 91.6523C150.752 82.244 144.087 72.518 137.848 62.4741C133.61 55.6527 129.582 48.7004 125.765 41.617C123.948 38.2495 122.18 34.8555 120.462 31.4351C119.129 28.783 117.826 26.1151 116.553 23.4313C116.188 22.6648 115.835 21.8947 115.483 21.1229C114.653 19.3078 113.839 17.484 112.964 15.6936C111.968 13.653 110.755 11.5137 108.926 10.1427C108.093 9.49319 107.098 9.10019 106.055 9.00964C104.566 8.91096 103.192 9.54182 101.9 10.2308C92.4395 15.3328 83.6091 21.5796 75.5978 28.8377C67.5743 36.0665 60.4025 44.2333 54.2288 53.1716C54.0399 53.4482 53.5933 53.1839 53.7839 52.9055C54.5346 51.8165 55.3002 50.7392 56.0806 49.6737C65.7847 36.4337 77.6834 25.0481 91.2328 16.0372C93.5124 14.5217 95.8348 13.0773 98.2 11.704C99.3922 11.0115 100.589 10.3278 101.807 9.68633C103.001 9.05724 104.269 8.49156 105.633 8.47042C110.274 8.39641 112.677 13.7887 114.328 17.417C114.847 18.5589 115.372 19.6973 115.903 20.8321C117.911 25.1406 119.997 29.4098 122.159 33.6396C123.494 36.2512 124.858 38.8474 126.251 41.4284C130.587 49.4657 135.195 57.3403 140.076 65.0522C146.541 75.2675 152.955 84.2917 160.321 93.8444C160.524 94.1087 160.161 94.4858 159.957 94.218Z" fill="#E4E4E4"/>
<path d="M75.1391 26.175C74.8694 25.8666 74.6015 25.5583 74.33 25.2499C72.1897 22.8216 69.8931 20.4215 66.954 19.0294C65.5526 18.3447 64.0228 17.9809 62.4706 17.9633C60.8662 17.9686 59.298 18.4003 57.8155 19.0047C57.1147 19.292 56.4293 19.618 55.7542 19.9651C54.9829 20.3634 54.2254 20.788 53.4713 21.2163C52.0558 22.0198 50.6587 22.8586 49.28 23.7326C46.5367 25.4719 43.8793 27.3439 41.3078 29.3487C39.9748 30.3884 38.6693 31.4621 37.3913 32.57C36.2026 33.5991 35.038 34.6558 33.8974 35.7401C33.6535 35.971 33.2893 35.5974 33.5332 35.3665C33.8338 35.0793 34.1379 34.7938 34.4419 34.5119C35.3008 33.7154 36.1734 32.9341 37.0598 32.1682C38.6762 30.769 40.3344 29.4239 42.0345 28.1328C44.6781 26.1239 47.4128 24.2513 50.2384 22.515C51.6505 21.648 53.0819 20.8174 54.5328 20.0233C54.9709 19.7836 55.4141 19.5492 55.8624 19.3272C56.8797 18.8008 57.9367 18.3594 59.0231 18.0073C60.5621 17.4966 62.1903 17.3325 63.7968 17.5263C65.3478 17.7577 66.8422 18.288 68.2011 19.0893C71.0869 20.744 73.3251 23.3027 75.5033 25.7997C75.7232 26.0534 75.3607 26.4288 75.1391 26.175Z" fill="#E4E4E4"/>
<path d="M134.268 51.3385L141.184 48.7439L144.617 47.4556C145.735 47.036 146.851 46.5584 148.007 46.258C149.011 45.9636 150.078 45.9775 151.075 46.2981C151.964 46.6356 152.778 47.1532 153.468 47.8198C154.173 48.4859 154.829 49.2047 155.431 49.9701C156.178 50.8917 156.914 51.8229 157.654 52.7511C160.707 56.5816 163.741 60.4287 166.754 64.2924C169.767 68.1561 172.76 72.0362 175.733 75.9328C178.713 79.8388 181.673 83.7612 184.612 87.6999C184.972 88.1824 185.332 88.6651 185.691 89.1481C185.89 89.415 186.338 89.1519 186.136 88.8813C183.176 84.903 180.194 80.941 177.192 76.9952C174.182 73.04 171.152 69.1016 168.101 65.18C165.05 61.2584 161.978 57.3539 158.886 53.4664C158.116 52.4979 157.344 51.5304 156.571 50.564C155.919 49.7489 155.274 48.9249 154.559 48.1662C153.247 46.7735 151.607 45.5427 149.643 45.5093C148.489 45.4897 147.372 45.8654 146.3 46.2634C145.144 46.6925 143.99 47.1295 142.836 47.5627L135.872 50.1755L134.131 50.8287C133.823 50.9446 133.956 51.4557 134.268 51.3385Z" fill="#E4E4E4"/>
<path d="M66.044 22.0849C62.5299 20.2321 58.0295 20.595 54.8003 22.9098C60.9598 23.9999 67.0519 25.4586 73.0455 27.2782C70.5566 25.782 68.6097 23.4377 66.044 22.0849Z" fill="#F2F2F2"/>
<path d="M54.7657 22.9034L54.0892 23.4675C54.318 23.2701 54.5559 23.085 54.8003 22.9098C54.7888 22.9077 54.7773 22.9055 54.7657 22.9034Z" fill="#F2F2F2"/>
<path d="M153.207 51.3644C152.527 50.5144 151.791 49.6243 150.773 49.2791L149.822 49.3175C157.058 62.4347 166.831 73.8964 178.541 82.9991C170.096 72.4542 161.652 61.9093 153.207 51.3644Z" fill="#F2F2F2"/>
<path d="M109.687 120.806C109.662 120.806 109.637 120.802 109.613 120.793L91.2958 113.89C91.2417 113.87 91.1977 113.828 91.1735 113.774C91.1493 113.721 91.1468 113.659 91.1667 113.604C91.1866 113.548 91.2271 113.503 91.2795 113.478C91.3318 113.454 91.3916 113.451 91.4457 113.471L109.762 120.374C109.81 120.392 109.85 120.427 109.876 120.472C109.901 120.518 109.91 120.571 109.901 120.622C109.892 120.674 109.866 120.721 109.827 120.754C109.788 120.788 109.738 120.806 109.687 120.806Z" fill="black"/>
<path d="M76.2107 107.872C76.1851 107.872 76.1598 107.868 76.1358 107.858L57.819 100.956C57.7649 100.935 57.7209 100.894 57.6967 100.84C57.6725 100.787 57.6701 100.725 57.69 100.67C57.7098 100.614 57.7504 100.569 57.8027 100.544C57.855 100.519 57.9148 100.517 57.9689 100.537L76.2856 107.44C76.3335 107.458 76.3737 107.493 76.3992 107.538C76.4246 107.584 76.4336 107.637 76.4247 107.688C76.4157 107.74 76.3894 107.787 76.3503 107.82C76.3112 107.854 76.2618 107.872 76.2107 107.872Z" fill="black"/>
<path d="M42.0818 94.9381C42.0562 94.9381 42.0308 94.9334 42.0069 94.9243L23.6901 88.0217C23.6633 88.0116 23.6388 87.9962 23.6178 87.9764C23.5968 87.9565 23.5798 87.9326 23.5678 87.9061C23.5558 87.8795 23.5491 87.8508 23.5479 87.8215C23.5467 87.7922 23.5512 87.763 23.5611 87.7356C23.5709 87.7081 23.5859 87.6828 23.6053 87.6613C23.6246 87.6398 23.6479 87.6224 23.6738 87.6101C23.6997 87.5978 23.7277 87.5909 23.7562 87.5897C23.7848 87.5885 23.8132 87.5931 23.84 87.6032L42.1567 94.5058C42.2046 94.5238 42.2448 94.5586 42.2703 94.604C42.2957 94.6494 42.3047 94.7026 42.2958 94.7541C42.2868 94.8057 42.2605 94.8524 42.2214 94.886C42.1822 94.9196 42.1328 94.9381 42.0818 94.9381Z" fill="black"/>
<path d="M38.6499 61.4113C37.8862 61.2362 37.1129 61.0979 36.3493 61.0015L36.2381 60.9874C31.1685 60.3682 26.8886 62.539 26.2829 66.0372L26.1752 66.6702C26.108 67.0705 26.0355 67.5008 25.9492 67.9769C25.9075 68.2119 26.1376 68.4523 26.4725 68.5291L148.4 96.4894C157.009 98.3991 165.592 100.286 173.906 102.096C175.462 102.457 177.038 102.719 178.626 102.879C181.001 103.086 182.74 102.814 183.943 102.049L183.943 102.049C185.438 101.1 185.814 99.5608 186.121 97.7943C186.74 94.2269 187.399 90.4813 188.055 86.7471C188.634 83.4559 189.211 80.1737 189.758 77.0299C190.079 75.1635 190.254 73.4911 189.132 71.9251C187.916 70.2307 185.31 68.9158 181.388 68.0164C181.341 68.0056 181.294 67.9948 181.246 67.984C168.944 65.2171 155.678 67.4154 148.236 73.4543C147.379 74.1497 146.554 74.9156 145.757 75.6564C144.578 76.8038 143.321 77.8644 141.996 78.8302C141.265 79.3469 140.488 79.7937 139.678 80.1652C139.622 80.193 139.558 80.222 139.493 80.2482C139.339 80.319 139.181 80.3849 139.028 80.441C138.14 80.7924 137.218 81.0464 136.277 81.1986L136.184 81.213C136.113 81.2255 136.036 81.2368 135.96 81.2457C135.421 81.32 134.879 81.3639 134.335 81.377C131.984 81.4459 129.425 81.0047 126.728 80.0654C124.239 79.1885 121.862 78.0093 119.646 76.5528C117.295 75.0109 115.16 73.2708 113.094 71.5881C112.187 70.8488 111.249 70.0844 110.306 69.3478C110.128 69.2092 109.954 69.0734 109.777 68.937C108.622 68.0518 107.564 67.297 106.544 66.6294C104.039 64.9818 101.321 63.7031 98.4696 62.8306C95.4558 61.932 92.6808 61.687 90.2241 62.1003C89.5417 62.2147 88.8692 62.3839 88.2127 62.6065C85.1862 63.6316 83.0137 65.6706 80.9129 67.6426C78.2997 70.0954 75.5974 72.6319 71.2153 73.2632C66.1584 73.9932 59.5125 71.6841 54.9785 69.2791C53.5531 68.5229 52.1429 67.7057 50.7791 66.9152C50.2283 66.5958 49.6768 66.2777 49.1246 65.9607C48.0391 65.3396 47.1467 64.8497 46.3163 64.4185L46.0538 64.2816C45.9076 64.2063 45.7612 64.131 45.6116 64.057C44.6224 63.5579 43.6932 63.1306 42.7693 62.7502L42.5509 62.6591C42.1115 62.484 41.6991 62.3276 41.2926 62.1824L41.1303 62.1247C40.3167 61.841 39.4887 61.6029 38.6499 61.4113Z" fill="#F2F2F2"/>
<path d="M184.122 103.408C184.107 103.408 184.092 103.406 184.077 103.403L23.2149 68.5685C23.1588 68.5559 23.1098 68.5211 23.0786 68.4717C23.0474 68.4222 23.0366 68.3621 23.0484 68.3045C23.0603 68.2468 23.0939 68.1963 23.1419 68.164C23.1899 68.1317 23.2485 68.1202 23.3047 68.132L184.167 102.967C184.22 102.978 184.266 103.009 184.298 103.054C184.33 103.098 184.344 103.153 184.338 103.208C184.333 103.263 184.308 103.314 184.268 103.351C184.228 103.388 184.176 103.408 184.122 103.408Z" fill="black"/>
<path d="M150.754 22.7462C156.877 22.7462 161.841 17.6543 161.841 11.3731C161.841 5.09192 156.877 0 150.754 0C144.631 0 139.668 5.09192 139.668 11.3731C139.668 17.6543 144.631 22.7462 150.754 22.7462Z" fill="#FF6584"/>
<path d="M170.761 2.64712C165.388 1.90207 159.254 4.88131 157.861 10.2568C157.51 9.301 156.872 8.48444 156.039 7.92504C155.206 7.36565 154.222 7.09238 153.227 7.14472C152.233 7.19706 151.281 7.5723 150.508 8.21622C149.735 8.86014 149.182 9.73941 148.928 10.727L149.543 11.1789C161.057 13.7333 172.976 13.678 184.468 11.017C180.73 6.98755 176.134 3.39214 170.761 2.64712Z" fill="#F0F0F0"/>
<path d="M147.718 17.8113C142.345 17.0663 136.211 20.0455 134.819 25.4209C134.468 24.4652 133.83 23.6486 132.997 23.0892C132.164 22.5298 131.179 22.2566 130.185 22.3089C129.191 22.3612 128.238 22.7365 127.465 23.3804C126.693 24.0243 126.14 24.9036 125.886 25.8912L126.501 26.3431C138.015 28.8975 149.934 28.8422 161.425 26.1811C157.688 22.1517 153.091 18.5563 147.718 17.8113Z" fill="#F0F0F0"/>
<path d="M157.361 109.067C157.142 108.841 156.974 108.569 156.869 108.27C156.764 107.97 156.724 107.651 156.752 107.334C156.78 107.017 156.875 106.711 157.032 106.436C157.188 106.161 157.401 105.924 157.656 105.743L154.278 88.5302L158.008 89.7589L160.712 106.408C160.981 106.867 161.076 107.412 160.979 107.938C160.882 108.465 160.601 108.937 160.188 109.264C159.774 109.592 159.258 109.753 158.737 109.717C158.216 109.68 157.727 109.449 157.361 109.067Z" fill="#9E616A"/>
<path d="M152.373 72.6489L154.687 70.8566C154.687 70.8566 156.729 70.7083 157.091 74.4857C157.452 78.2631 158.195 85.6247 158.195 85.6247L161.737 102.453L156.834 103.557L153.04 85.3962L150.765 80.0031L152.373 72.6489Z" fill="#2F2E41"/>
<path d="M156.189 100.128L143.146 99.9051L142.059 90.762H156.189V100.128Z" fill="#9E616A"/>
<path d="M144.131 156.064L141.12 156.064L139.687 144.15L144.131 144.15L144.131 156.064Z" fill="#9E616A"/>
<path d="M163.314 151.786L160.303 151.764L158.952 139.839L162.868 140.761L163.314 151.786Z" fill="#9E616A"/>
<path d="M153.896 82.888L154.578 84.7077L154.442 86.5274L141.089 91.2718L141.752 83.3079L143.253 81.4882L153.896 82.888Z" fill="#FFB6B6"/>
<path d="M148.168 66.5122C150.802 66.5122 152.937 64.3219 152.937 61.6199C152.937 58.918 150.802 56.7276 148.168 56.7276C145.534 56.7276 143.399 58.918 143.399 61.6199C143.399 64.3219 145.534 66.5122 148.168 66.5122Z" fill="#9E616A"/>
<path d="M145.478 161.929H143.341L142.96 159.86L141.983 161.929H136.316C136.045 161.929 135.78 161.84 135.561 161.675C135.343 161.51 135.181 161.277 135.1 161.011C135.019 160.745 135.024 160.46 135.112 160.196C135.201 159.933 135.369 159.705 135.593 159.547L140.118 156.341V154.249L144.878 154.54L145.478 161.929Z" fill="#2F2E41"/>
<path d="M164.893 157.662L162.757 157.647L162.389 155.575L161.399 157.637L155.732 157.596C155.46 157.594 155.197 157.503 154.979 157.337C154.761 157.17 154.601 156.936 154.522 156.67C154.443 156.403 154.449 156.118 154.54 155.855C154.63 155.592 154.8 155.366 155.025 155.209L159.572 152.036L159.586 149.944L164.344 150.269L164.893 157.662Z" fill="#2F2E41"/>
<path d="M164.25 143.306L162.058 129.564L159.449 110.609C161.36 106.97 157.058 95.6681 157.058 95.6681L156.451 95.6979L142.708 98.3577L142.711 98.3441C139.9 106.209 138.969 110.094 139.123 118.47L139.677 148.577H139.503C139.215 148.577 138.938 148.695 138.734 148.904C138.531 149.113 138.416 149.397 138.416 149.692C138.416 149.988 138.531 150.272 138.734 150.481C138.938 150.69 139.215 150.807 139.503 150.807H144.937C145.226 150.807 145.502 150.69 145.706 150.481C145.91 150.272 146.024 149.988 146.024 149.692C146.024 149.397 145.91 149.113 145.706 148.904C145.502 148.695 145.226 148.577 144.937 148.577H144.797L149.786 112.728L154.015 127.78L158.797 143.168C157.058 142.722 157.328 143.755 157.328 144.34C157.328 144.636 157.443 144.92 157.647 145.129C157.85 145.338 158.127 145.455 158.415 145.455H163.85C164.102 145.455 164.347 145.365 164.542 145.2C164.737 145.035 164.87 144.805 164.917 144.551C164.965 144.296 164.924 144.032 164.802 143.805C164.681 143.578 164.485 143.401 164.25 143.306Z" fill="#2F2E41"/>
<path d="M158.128 96.2535L157.693 91.7934C157.648 91.6115 157.548 91.4489 157.407 91.3289C157.267 91.2089 157.092 91.1377 156.91 91.1256C156.729 89.001 155.966 79.8352 155.921 79.4355L155.919 79.4186L155.573 71.8236C155.56 71.5478 155.449 71.2864 155.26 71.0893C155.072 70.8923 154.819 70.7734 154.55 70.7554L152.72 70.6326C152.695 70.6318 152.671 70.6209 152.653 70.6024C152.636 70.5839 152.626 70.5591 152.626 70.5333C152.626 70.326 152.586 70.1206 152.509 69.929C152.432 69.7374 152.318 69.5633 152.175 69.4167C152.032 69.2701 151.863 69.1537 151.676 69.0744C151.489 68.995 151.289 68.9542 151.087 68.9542H145.667C145.316 68.9543 144.977 69.0859 144.714 69.3242C144.451 69.5625 144.282 69.8911 144.238 70.2484C144.235 70.273 144.224 70.2958 144.206 70.3122C144.188 70.3285 144.165 70.3373 144.141 70.3368L144.14 70.3368C143.524 70.3237 142.924 70.5376 142.449 70.9396C141.974 71.3416 141.655 71.905 141.55 72.5276C140.809 76.95 139.324 86.987 140.058 92.5671C140.314 94.5096 139.763 92.9711 139.666 94.5964C139.656 94.7534 139.677 94.9109 139.727 95.0597C139.777 95.2086 139.855 95.3459 139.956 95.4637C139.509 95.5971 139.335 96.0929 139.45 96.5601L139.355 96.5359C139.411 96.7653 139.554 96.9623 139.752 97.0836C139.95 97.2049 140.187 97.2406 140.411 97.1828L157.063 92.8764C157.529 92.756 158.246 96.7312 158.128 96.2535Z" fill="#2F2E41"/>
<path d="M139.8 109.067C140.019 108.841 140.187 108.569 140.292 108.27C140.397 107.97 140.437 107.651 140.409 107.334C140.381 107.017 140.285 106.711 140.129 106.436C139.973 106.161 139.76 105.924 139.505 105.743L142.883 88.5302L139.152 89.7589L136.448 106.408C136.18 106.867 136.085 107.412 136.182 107.938C136.278 108.465 136.56 108.937 136.973 109.264C137.386 109.592 137.902 109.753 138.423 109.717C138.944 109.68 139.434 109.449 139.8 109.067Z" fill="#9E616A"/>
<path d="M144.788 72.6489L142.473 70.8566C142.473 70.8566 140.431 70.7083 140.07 74.4857C139.708 78.2631 138.966 85.6247 138.966 85.6247L135.424 102.453L140.327 103.557L144.12 85.3962L146.396 80.0031L144.788 72.6489Z" fill="#2F2E41"/>
<path d="M153.275 57.2697C154.163 57.5411 154.992 56.7787 155.61 56.0564L155.391 56.3239C156.845 57.3748 157.715 59.0868 158.279 60.8199C158.844 62.551 159.159 64.3643 159.796 66.0706C160.433 67.775 161.461 69.424 163.035 70.2742C165.143 71.413 167.726 70.8952 169.969 70.0736C169.999 70.0621 170.027 70.0526 170.057 70.0411C169.148 68.3007 168.592 66.3899 168.421 64.4236C169.344 66.2712 170.674 67.8723 172.307 69.0991C173.772 68.4158 175.181 67.612 176.52 66.6954C177.386 66.1012 178.298 65.3331 178.399 64.2688C178.501 63.2121 177.732 62.2472 176.825 61.739C175.918 61.2307 174.875 61.0587 173.884 60.753C172.895 60.4492 171.886 59.9505 171.366 59.0333C170.168 56.9239 172.184 53.9489 170.898 51.8929C170.265 50.8821 169.036 50.477 167.896 50.1962C166.156 49.7692 164.39 49.4634 162.61 49.2809C161.047 49.1204 159.432 49.0612 157.946 49.5771C156.46 50.093 155.111 51.291 154.793 52.8693C153.925 53.3374 153.006 53.8552 152.541 54.7437C152.075 55.6303 152.334 56.9831 153.275 57.2697Z" fill="#2F2E41"/>
<path d="M154.601 56.9143C155.452 58.0076 155.915 59.1899 155.915 59.898C157.682 63.2116 155.155 66.0579 151.925 67.8709C150.636 68.5978 149.149 68.8639 147.697 68.6271L147.561 68.0353L147.378 68.5683C147.378 68.5683 145.275 75.6941 144.582 76.1121C144.845 74.8439 145.146 68.9723 145.293 67.7347C145.496 66.0502 144.788 63.5424 144.278 62.0174C143.962 61.0775 143.8 60.0903 143.798 59.096V59.0525L143.301 60.6894L141.493 59.898C141.829 57.9182 141.493 55.6708 145.526 55.8657C147.708 54.3265 149.629 54.0921 151.207 54.5286C151.411 54.2056 152.585 54.8106 152.925 54.6405" fill="#2F2E41"/>
<path d="M159.117 91.7044C159.04 92.4062 158.737 93.0617 158.256 93.5667C157.774 94.0717 157.143 94.3974 156.46 94.4919L146.641 95.8567C145.829 95.9687 145.007 95.7456 144.355 95.2363C143.704 94.7271 143.276 93.9733 143.165 93.1405L141.75 82.4052C141.658 81.7073 141.796 80.9977 142.141 80.3893L142.074 79.8674C141.795 79.7632 141.549 79.5829 141.363 79.3458C141.177 79.1087 141.058 78.8239 141.018 78.5222C140.978 78.2205 141.019 77.9134 141.137 77.634C141.255 77.3547 141.445 77.1137 141.687 76.9372L142.9 71.1726C142.884 71.0491 142.893 70.9235 142.927 70.8038C142.961 70.6842 143.019 70.5731 143.097 70.4778C143.175 70.3824 143.272 70.3049 143.381 70.2502C143.49 70.1955 143.609 70.1648 143.73 70.1601C143.951 70.1576 144.165 70.2389 144.331 70.3884C144.496 70.5378 144.602 70.7448 144.628 70.9696L144.739 71.817C144.887 72.9371 145.444 73.9577 146.298 74.6725C147.151 75.3874 148.238 75.743 149.337 75.6677C150.437 75.5924 151.467 75.0916 152.22 74.2667C152.974 73.4418 153.394 72.3542 153.395 71.2239C153.395 71.0217 153.382 70.8199 153.356 70.6195L153.247 69.7855C153.212 69.5537 153.264 69.3169 153.392 69.1227C153.52 68.9286 153.716 68.7916 153.939 68.7396C154.055 68.717 154.174 68.7189 154.29 68.7452C154.405 68.7715 154.514 68.8217 154.61 68.8926C154.706 68.9636 154.786 69.0539 154.847 69.1579C154.908 69.262 154.947 69.3776 154.963 69.4978L155.665 74.8053C156.051 74.7779 156.434 74.8926 156.745 75.1287C157.056 75.3649 157.275 75.707 157.363 76.0938C157.451 76.4806 157.401 76.8868 157.223 77.2395C157.046 77.5922 156.751 77.8685 156.393 78.0187C156.744 78.2685 157.041 78.5906 157.265 78.9646C157.488 79.3385 157.633 79.7561 157.691 80.1908L159.108 90.9284C159.142 91.1857 159.145 91.4463 159.117 91.7044Z" fill="#006C61"/>
<path d="M141.934 80.1035C141.922 80.0156 141.945 79.9266 141.998 79.8561C142.05 79.7855 142.128 79.7392 142.213 79.7272L155.597 77.6226C155.639 77.6167 155.682 77.6194 155.724 77.6307C155.765 77.6419 155.804 77.6613 155.838 77.688C155.872 77.7146 155.901 77.7478 155.922 77.7858C155.944 77.8237 155.958 77.8657 155.964 77.9092C155.969 77.9527 155.967 77.997 155.956 78.0395C155.945 78.082 155.926 78.1218 155.9 78.1567C155.874 78.1917 155.842 78.2211 155.805 78.2432C155.768 78.2653 155.727 78.2797 155.684 78.2856L142.301 80.3901C142.215 80.4019 142.128 80.3784 142.06 80.3246C141.991 80.2709 141.946 80.1914 141.934 80.1035Z" fill="#3F3D56"/>
<path d="M143.498 85.7389L143.056 82.3857C143.022 82.1271 143.089 81.8651 143.243 81.6574C143.397 81.4498 143.626 81.3135 143.878 81.2785L156.66 79.6011C156.912 79.5661 157.168 79.6352 157.37 79.7934C157.572 79.9515 157.705 80.1857 157.739 80.4444L158.182 83.7975C158.216 84.0561 158.149 84.3181 157.994 84.5258C157.84 84.7334 157.612 84.8698 157.36 84.9048L152.254 85.6253C152.265 85.6611 152.273 85.6975 152.28 85.7343L152.732 89.1596L157.04 88.5615C157.068 88.5575 157.097 88.5593 157.125 88.5667C157.152 88.5742 157.178 88.5872 157.201 88.6049C157.224 88.6226 157.243 88.6448 157.257 88.6701C157.272 88.6955 157.281 88.7235 157.285 88.7525C157.289 88.7816 157.287 88.8111 157.28 88.8395C157.272 88.8678 157.26 88.8944 157.242 88.9177C157.225 88.941 157.203 88.9606 157.179 88.9753C157.154 88.99 157.126 88.9996 157.098 89.0035L152.79 89.6016L150.851 89.8708L146.758 90.439C146.701 90.4469 146.643 90.4312 146.597 90.3953C146.552 90.3595 146.522 90.3065 146.514 90.2479C146.506 90.1893 146.521 90.13 146.556 90.083C146.591 90.036 146.643 90.005 146.7 89.9971L150.793 89.4288L150.341 86.0035C150.338 85.9663 150.336 85.9289 150.337 85.8915L144.577 86.5822C144.325 86.6172 144.07 86.548 143.868 86.3898C143.665 86.2317 143.532 85.9975 143.498 85.7389Z" fill="#3F3D56"/>
<path d="M93.2566 172C93.2029 172 93.1511 171.98 93.1112 171.943L0.0718738 85.9101C0.0291355 85.8705 0.00347173 85.8151 0.000515633 85.7561C-0.00244047 85.6971 0.0175538 85.6393 0.0561082 85.5954C0.0946625 85.5515 0.148627 85.525 0.206152 85.5219C0.263676 85.5188 0.320059 85.5392 0.362922 85.5787L93.4022 171.611C93.4349 171.641 93.4579 171.681 93.4681 171.725C93.4784 171.769 93.4755 171.815 93.4597 171.857C93.4439 171.899 93.416 171.935 93.3798 171.961C93.3435 171.986 93.3006 172 93.2566 172Z" fill="black"/>
<path d="M141.961 85.0946C141.966 85.0302 141.957 84.9656 141.935 84.9051C141.913 84.8445 141.879 84.7895 141.835 84.7436C141.79 84.6978 141.737 84.6622 141.678 84.6393C141.619 84.6163 141.556 84.6066 141.494 84.6107C141.47 84.6116 141.447 84.6146 141.424 84.6196L138.672 85.2574C138.61 85.2727 138.553 85.301 138.503 85.3406C138.452 85.3802 138.411 85.4301 138.381 85.4871C138.34 85.4886 138.3 85.4946 138.261 85.5049C138.088 85.5451 137.938 85.6542 137.843 85.8081C137.749 85.962 137.718 86.1481 137.757 86.3256C137.796 86.503 137.902 86.6572 138.052 86.7542C138.202 86.8512 138.384 86.8832 138.557 86.8429C138.655 86.8195 138.747 86.7738 138.826 86.7091L139.759 89.403C139.805 89.4874 139.877 89.5541 139.964 89.5931C140.051 89.6321 140.147 89.6413 140.239 89.6193L142.028 89.2045C142.12 89.1826 142.202 89.1315 142.263 89.0585C142.325 88.9856 142.362 88.8946 142.37 88.7987L141.961 85.0946ZM138.515 86.6512C138.454 86.6655 138.391 86.6674 138.329 86.6566C138.267 86.6458 138.208 86.6226 138.155 86.5883C138.101 86.5541 138.055 86.5094 138.019 86.4568C137.983 86.4043 137.957 86.3449 137.943 86.2821C137.929 86.2193 137.927 86.1542 137.937 86.0907C137.948 86.0272 137.97 85.9664 138.004 85.9119C138.037 85.8573 138.081 85.81 138.132 85.7727C138.183 85.7354 138.241 85.7088 138.302 85.6945C138.311 85.6923 138.32 85.6945 138.328 85.6923C138.328 85.7735 138.348 85.8535 138.387 85.9242L138.728 86.5352C138.669 86.593 138.595 86.6331 138.515 86.6512Z" fill="#CCCCCC"/>
<path d="M141.494 84.6107C141.52 84.9675 140.924 85.3778 140.126 85.5406C139.394 85.6945 138.737 85.5874 138.552 85.3065C138.59 85.2839 138.63 85.2673 138.672 85.2574L141.424 84.6196C141.447 84.6146 141.47 84.6116 141.494 84.6107Z" fill="#E6E6E6"/>
<path d="M140.055 91.7365L139.256 90.0314C138.788 89.0325 139.645 87.9696 141.167 87.6623L143.041 87.338L143.826 92.9581L143.663 92.9909C142.142 93.2982 140.523 92.7354 140.055 91.7365Z" fill="#006C61"/>
<g opacity="0.2">
<path d="M159.117 91.7044C159.04 92.4062 158.737 93.0617 158.256 93.5667C157.774 94.0717 157.143 94.3974 156.46 94.4919L146.641 95.8567C146.058 95.9376 145.464 95.8458 144.93 95.5922C144.396 95.3386 143.943 94.9336 143.626 94.425C143.903 94.0817 144.246 93.8007 144.633 93.5997C145.021 93.3986 145.445 93.2818 145.878 93.2565C146.722 93.2119 147.539 93.4996 148.365 93.6601C150.362 94.0463 152.428 93.6947 154.197 92.6678C154.965 92.2106 155.656 91.6263 156.499 91.3008C157.343 90.9774 158.432 90.9886 159.043 91.6197C159.069 91.6463 159.094 91.6746 159.117 91.7044Z" fill="black"/>
</g>
</g>
<defs>
<clipPath id="clip0_415_144">
<rect width="190" height="172" fill="white"/>
</clipPath>
</defs>
</svg>
