<svg width="462" height="508" viewBox="0 0 462 508" fill="none" xmlns="http://www.w3.org/2000/svg">
<g clip-path="url(#clip0_415_267)">
<path d="M295.923 508C398.754 508 482.115 495.331 482.115 479.702C482.115 464.073 398.754 451.404 295.923 451.404C193.092 451.404 109.73 464.073 109.73 479.702C109.73 495.331 193.092 508 295.923 508Z" fill="#F2F2F2"/>
<path d="M412.906 379.53C414.899 380.254 417.033 380.506 419.14 380.265C421.247 380.024 423.269 379.297 425.047 378.141C426.825 376.985 428.31 375.432 429.386 373.603C430.461 371.775 431.097 369.722 431.244 367.606C431.391 365.49 431.045 363.369 430.232 361.409C429.42 359.45 428.163 357.706 426.562 356.315C424.961 354.925 423.059 353.925 421.005 353.395C418.952 352.865 416.803 352.819 414.729 353.262L415.072 360.311L411.738 354.27C408.465 355.808 405.937 358.583 404.709 361.984C404.272 363.176 404.007 364.423 403.921 365.689C403.71 368.66 404.474 371.618 406.095 374.115C407.716 376.613 410.107 378.514 412.906 379.53Z" fill="#57B894"/>
<path d="M429.405 461.294C428.228 455.298 433.328 449.983 438.366 446.528C443.404 443.074 449.291 439.679 451.01 433.816C453.481 425.39 446.122 417.673 440.394 411.019C436.145 406.08 432.495 400.655 429.523 394.857C428.331 392.533 427.236 390.103 426.923 387.509C426.471 383.774 427.671 380.057 428.879 376.495C432.905 364.626 437.21 352.857 441.793 341.188" stroke="#3F3D56" stroke-miterlimit="10"/>
<path d="M413.47 377.715C415.463 378.44 417.597 378.691 419.704 378.45C421.811 378.209 423.833 377.482 425.611 376.326C427.389 375.17 428.874 373.617 429.95 371.789C431.025 369.96 431.661 367.907 431.808 365.791C431.955 363.675 431.609 361.554 430.796 359.594C429.984 357.635 428.727 355.891 427.126 354.501C425.525 353.11 423.622 352.11 421.569 351.58C419.516 351.05 417.367 351.005 415.293 351.447L415.636 358.496L412.301 352.455C409.029 353.993 406.501 356.768 405.272 360.169C404.836 361.361 404.571 362.608 404.485 363.874C404.274 366.845 405.038 369.803 406.659 372.3C408.28 374.798 410.671 376.699 413.47 377.715Z" stroke="#3F3D56" stroke-miterlimit="10"/>
<path d="M427.731 338.753C428.513 336.594 429.826 334.667 431.548 333.15C433.271 331.632 435.347 330.572 437.587 330.068L438.714 336.77L440.804 329.731C443.707 329.774 446.52 330.738 448.838 332.485C451.157 334.232 452.86 336.67 453.703 339.449C454.546 342.227 454.484 345.201 453.527 347.942C452.569 350.683 450.766 353.048 448.377 354.697C445.988 356.346 443.137 357.192 440.235 357.115C437.334 357.037 434.532 356.039 432.234 354.265C429.937 352.49 428.263 350.032 427.453 347.244C426.644 344.456 426.741 341.482 427.731 338.753Z" fill="#57B894"/>
<path d="M428.483 336.333C429.265 334.175 430.578 332.248 432.3 330.73C434.023 329.212 436.099 328.152 438.339 327.648L439.466 334.35L441.556 327.311C444.459 327.354 447.272 328.319 449.59 330.065C451.909 331.812 453.612 334.25 454.455 337.029C455.298 339.807 455.236 342.781 454.278 345.522C453.321 348.263 451.518 350.628 449.129 352.277C446.739 353.926 443.888 354.772 440.987 354.695C438.085 354.617 435.284 353.619 432.986 351.845C430.689 350.07 429.015 347.612 428.205 344.824C427.396 342.036 427.493 339.062 428.483 336.333Z" stroke="#3F3D56" stroke-miterlimit="10"/>
<path d="M437.99 411.154C441.151 412.301 444.623 412.245 447.745 410.995C450.867 409.746 453.42 407.391 454.917 404.38C456.415 401.369 456.752 397.912 455.866 394.668C454.979 391.424 452.93 388.62 450.109 386.79L448.503 392.199L447.364 385.418C447.352 385.413 447.341 385.408 447.329 385.405C445.638 384.79 443.843 384.515 442.046 384.594C440.249 384.674 438.485 385.107 436.856 385.869C435.226 386.63 433.762 387.706 432.548 389.033C431.334 390.361 430.394 391.915 429.78 393.606C429.167 395.298 428.893 397.093 428.973 398.891C429.054 400.688 429.488 402.452 430.251 404.082C431.013 405.711 432.089 407.175 433.417 408.388C434.745 409.602 436.299 410.542 437.99 411.154Z" fill="#57B894"/>
<path d="M438.642 408.703C441.803 409.85 445.275 409.793 448.397 408.544C451.518 407.295 454.071 404.94 455.569 401.929C457.067 398.918 457.404 395.461 456.517 392.217C455.63 388.973 453.581 386.169 450.76 384.339L449.154 389.748L448.015 382.967C448.004 382.962 447.992 382.957 447.98 382.954C446.29 382.339 444.495 382.063 442.697 382.143C440.9 382.222 439.136 382.655 437.507 383.417C435.877 384.178 434.413 385.254 433.199 386.581C431.985 387.909 431.044 389.463 430.43 391.155C429.817 392.846 429.543 394.642 429.624 396.44C429.704 398.237 430.138 400.001 430.901 401.631C431.663 403.261 432.74 404.724 434.068 405.938C435.396 407.151 436.95 408.091 438.642 408.703Z" stroke="#3F3D56" stroke-miterlimit="10"/>
<path d="M423.735 433.9C424.279 436.993 425.869 439.805 428.239 441.865C430.609 443.924 433.616 445.106 436.754 445.212C439.892 445.318 442.971 444.341 445.474 442.445C447.977 440.55 449.753 437.851 450.504 434.802C451.254 431.752 450.933 428.537 449.595 425.696C448.257 422.855 445.983 420.561 443.154 419.198C440.325 417.835 437.114 417.486 434.059 418.21C431.004 418.934 428.29 420.687 426.374 423.175L432.475 432.359L424.139 427.484C423.492 429.56 423.354 431.76 423.735 433.9Z" fill="#57B894"/>
<path d="M424.299 432.085C424.843 435.178 426.433 437.99 428.803 440.05C431.173 442.109 434.18 443.291 437.318 443.397C440.456 443.503 443.534 442.526 446.038 440.63C448.541 438.735 450.317 436.036 451.067 432.987C451.818 429.937 451.497 426.722 450.159 423.881C448.821 421.04 446.546 418.746 443.718 417.383C440.889 416.02 437.678 415.671 434.623 416.395C431.568 417.119 428.854 418.872 426.938 421.36L433.038 430.544L424.703 425.669C424.056 427.745 423.918 429.945 424.299 432.085Z" stroke="#3F3D56" stroke-miterlimit="10"/>
<path d="M386.042 74.9161C386.557 65.0698 390.83 55.7966 397.98 49.0092C405.13 42.2219 414.611 38.4379 424.469 38.4377C425.638 38.4377 426.793 38.4987 427.936 38.6009C432.431 30.8655 438.876 24.4452 446.628 19.9812C454.38 15.5171 463.167 13.1656 472.112 13.1613C481.057 13.1571 489.846 15.5004 497.603 19.9571C505.359 24.4138 511.81 30.828 516.313 38.5591C517.277 38.4866 518.248 38.4377 519.23 38.4377C529.088 38.4379 538.569 42.2219 545.719 49.0093C552.869 55.7967 557.142 65.0698 557.657 74.9161" fill="#F2F2F2"/>
<path d="M394.057 71.9553C394.572 62.1089 398.845 52.8358 405.995 46.0484C413.145 39.261 422.626 35.477 432.483 35.4769C433.653 35.4769 434.807 35.5379 435.95 35.6401C440.445 27.9047 446.891 21.4844 454.643 17.0204C462.395 12.5563 471.182 10.2047 480.127 10.2005C489.072 10.1963 497.861 12.5395 505.617 16.9963C513.373 21.453 519.825 27.8672 524.327 35.5983C525.291 35.5258 526.262 35.4769 527.245 35.4769C537.102 35.4771 546.583 39.2611 553.733 46.0484C560.883 52.8358 565.156 62.1089 565.671 71.9553" stroke="#3F3D56" stroke-miterlimit="10"/>
<path d="M106.424 257.867C106.94 248.02 111.213 238.747 118.363 231.96C125.513 225.173 134.994 221.388 144.851 221.388C146.021 221.388 147.175 221.449 148.318 221.552C152.813 213.816 159.259 207.396 167.011 202.932C174.763 198.468 183.55 196.116 192.495 196.112C201.44 196.108 210.229 198.451 217.985 202.908C225.741 207.364 232.193 213.779 236.695 221.51C237.659 221.437 238.63 221.388 239.613 221.388C249.47 221.389 258.951 225.173 266.101 231.96C273.251 238.747 277.524 248.02 278.039 257.867" fill="#F2F2F2"/>
<path d="M114.439 254.906C114.954 245.06 119.227 235.786 126.377 228.999C133.527 222.212 143.008 218.428 152.866 218.427C154.035 218.427 155.19 218.488 156.333 218.591C160.828 210.855 167.273 204.435 175.025 199.971C182.777 195.507 191.564 193.155 200.509 193.151C209.454 193.147 218.243 195.49 226 199.947C233.756 204.404 240.207 210.818 244.71 218.549C245.674 218.476 246.645 218.428 247.627 218.428C257.485 218.428 266.966 222.212 274.116 228.999C281.266 235.786 285.539 245.06 286.054 254.906" stroke="#3F3D56" stroke-miterlimit="10"/>
<path d="M24.8419 65.0447C25.3571 55.1984 29.6303 45.9252 36.7802 39.1378C43.93 32.3505 53.4113 28.5665 63.2686 28.5663C64.4381 28.5663 65.5929 28.6273 66.7358 28.7295C71.2309 20.9941 77.6763 14.5738 85.4282 10.1098C93.1802 5.64572 101.967 3.29415 110.912 3.28992C119.857 3.28569 128.646 5.62895 136.403 10.0857C144.159 14.5424 150.61 20.9566 155.113 28.6877C156.077 28.6152 157.048 28.5663 158.03 28.5663C167.887 28.5665 177.369 32.3505 184.519 39.1379C191.669 45.9253 195.942 55.1984 196.457 65.0447" fill="#F2F2F2"/>
<path d="M32.8564 62.0839C33.3716 52.2375 37.6448 42.9644 44.7947 36.177C51.9446 29.3896 61.4259 25.6056 71.2831 25.6055C72.4526 25.6055 73.6074 25.6665 74.7503 25.7687C79.2454 18.0333 85.6908 11.613 93.4427 7.14897C101.195 2.68491 109.982 0.333338 118.927 0.329107C127.872 0.324877 136.661 2.66814 144.417 7.12486C152.173 11.5816 158.625 17.9958 163.127 25.7269C164.091 25.6544 165.062 25.6055 166.045 25.6055C175.902 25.6057 185.383 29.3897 192.533 36.177C199.683 42.9644 203.956 52.2376 204.471 62.0839" stroke="#3F3D56" stroke-miterlimit="10"/>
<path d="M194.122 143.118C194.122 143.118 263.283 177.469 275.684 172.698C288.085 167.927 292.378 125.466 292.378 125.466L241.342 115.924L194.122 143.118Z" fill="#006C61"/>
<path opacity="0.1" d="M194.122 143.118C194.122 143.118 263.283 177.469 275.684 172.698C288.085 167.927 292.378 125.466 292.378 125.466L241.342 115.924L194.122 143.118Z" fill="black"/>
<path d="M337.452 91.8302H292.14V131.429H337.452V91.8302Z" fill="#FF6584"/>
<path opacity="0.1" d="M337.452 91.8302H292.14V131.429H337.452V91.8302Z" fill="black"/>
<path d="M250.882 260.484C250.882 260.484 248.974 301.991 261.852 301.037C274.73 300.083 261.852 261.915 261.852 261.915L250.882 260.484Z" fill="#FBBEBE"/>
<path d="M303.826 97.7939C303.826 97.7939 306.687 115.924 301.441 118.309C296.194 120.695 292.855 122.603 292.855 122.603L304.78 130.714L326.72 132.145L332.444 127.851L337.691 123.08C337.691 123.08 329.105 121.172 329.105 116.878C329.105 112.584 328.628 99.7023 328.628 99.7023L303.826 97.7939Z" fill="#FBBEBE"/>
<path opacity="0.1" d="M303.826 97.7939C303.826 97.7939 306.687 115.924 301.441 118.309C296.194 120.695 292.855 122.603 292.855 122.603L304.78 130.714L326.72 132.145L332.444 127.851L337.691 123.08C337.691 123.08 329.105 121.172 329.105 116.878C329.105 112.584 328.628 99.7023 328.628 99.7023L303.826 97.7939Z" fill="black"/>
<path d="M273.776 267.64C273.776 267.64 259.944 312.01 259.944 344.453C259.944 344.453 237.05 395.979 238.003 421.265L232.28 456.094L240.388 458.956L246.589 453.708C246.589 453.708 248.497 435.101 254.697 426.036C260.898 416.972 275.207 374.033 275.207 374.033C275.207 374.033 313.365 293.881 311.934 282.43C310.503 270.98 273.776 267.64 273.776 267.64Z" fill="#FBBEBE"/>
<path d="M358.2 257.621C358.2 257.621 367.263 261.915 354.385 338.251C354.385 338.251 361.539 388.823 355.338 416.495L354.385 444.166H344.368L342.46 441.304C342.46 441.304 341.983 416.495 338.644 409.815C335.306 403.136 332.444 364.491 332.444 364.491C332.444 364.491 317.181 285.77 320.52 279.091C323.858 272.411 358.2 257.621 358.2 257.621Z" fill="#FBBEBE"/>
<path d="M230.849 447.983C230.849 447.983 234.188 455.616 240.388 453.708C246.589 451.8 248.02 451.8 248.02 451.8C248.02 451.8 243.727 473.746 245.158 484.242C246.589 494.738 244.204 501.418 234.665 501.418C225.125 501.418 223.694 489.967 223.694 489.967L227.987 462.773L230.849 447.983Z" fill="#2F2E41"/>
<path d="M340.552 436.055C340.552 436.055 343.891 442.735 349.138 441.304C354.385 439.872 356.292 437.487 356.292 437.487C356.292 437.487 355.815 452.277 357.723 458.956C359.631 465.635 363.924 484.719 353.908 485.674C351.157 486.008 348.371 485.446 345.965 484.07C343.559 482.695 341.661 480.58 340.552 478.04L340.552 436.055Z" fill="#2F2E41"/>
<path d="M316.704 110.198C328.294 110.198 337.691 100.8 337.691 89.2061C337.691 77.6124 328.294 68.2139 316.704 68.2139C305.113 68.2139 295.717 77.6124 295.717 89.2061C295.717 100.8 305.113 110.198 316.704 110.198Z" fill="#FBBEBE"/>
<path d="M355.339 126.897C355.339 126.897 338.715 120.368 332.717 121.247C330.133 123.443 327.121 125.079 323.872 126.052C320.623 127.025 317.208 127.312 313.842 126.897C302.395 125.465 297.918 119.97 297.918 119.97C297.918 119.97 267.099 126.897 269.007 129.759C270.914 132.622 279.5 179.377 279.5 179.377C279.5 179.377 285.224 219.931 278.546 233.766C271.868 247.602 268.53 270.503 271.391 272.411C274.253 274.32 306.21 282.907 310.026 285.293C313.842 287.678 315.273 279.568 317.658 280.999C320.043 282.43 325.289 284.816 328.628 282.907C331.967 280.999 364.401 263.824 363.447 260.484C362.493 257.144 350.092 216.591 345.799 208.48C341.506 200.37 344.845 183.194 347.23 179.855C349.615 176.515 354.385 172.698 355.339 163.156C356.292 153.614 355.339 126.897 355.339 126.897Z" fill="#2F2E41"/>
<path d="M270.058 128.285C270.058 128.285 266.145 131.191 264.714 137.393C263.283 143.595 261.375 193.213 261.375 193.213C261.375 193.213 243.727 261.438 247.543 262.869C251.359 264.301 262.329 267.163 263.76 265.732C265.191 264.301 281.408 206.572 279.977 200.37C278.546 194.167 281.885 176.038 281.885 176.038L270.058 128.285Z" fill="#2F2E41"/>
<path d="M358.2 217.068C358.2 217.068 332.444 204.186 329.582 212.774C326.72 221.362 356.769 230.427 356.769 230.427C356.769 230.427 367.263 226.61 367.263 224.224C367.263 221.839 358.2 217.068 358.2 217.068Z" fill="#FBBEBE"/>
<path d="M350.092 128.805L355.338 126.897C355.338 126.897 358.2 124.988 361.539 132.145C364.878 139.301 401.128 181.286 394.45 194.645C387.773 208.003 365.832 235.198 364.878 233.289C363.924 231.381 352.954 217.068 354.861 215.637C356.769 214.205 378.71 194.645 375.848 191.782C372.986 188.919 361.062 164.587 354.385 163.633C347.707 162.679 350.092 128.805 350.092 128.805Z" fill="#2F2E41"/>
<path d="M293.571 88.4905C293.571 88.4905 220.838 59.2382 157.878 31.0895C157.878 31.0895 124.967 22.9788 107.796 38.2459C107.796 38.2459 122.105 36.3375 122.105 44.4482C122.105 44.4482 134.506 60.6695 95.8714 63.5321C68.9651 65.5257 58.2524 81.6345 54.2278 91.2312C51.0857 98.9346 45.5625 105.431 38.4654 109.77C29.1659 115.329 15.688 119.419 0 112.196C0 112.196 0.891869 113.567 2.58363 115.853C32.8733 156.768 145.67 192.376 185.501 160.681C210.117 141.093 249.141 116.335 277.115 128.805C320.997 148.366 329.105 139.778 329.105 139.778L331.013 134.53C331.013 134.53 288.562 123.08 287.608 108.29C286.655 93.5 293.571 88.4905 293.571 88.4905Z" fill="#006C61"/>
<path d="M336.021 92.3073C336.021 92.3073 346.276 96.3626 348.184 109.721C348.184 109.721 359.154 131.191 346.753 136.439C334.352 141.687 331.967 140.255 331.967 140.255V137.87C331.967 137.87 345.322 129.759 342.46 123.557C339.598 117.355 336.021 92.3073 336.021 92.3073Z" fill="#006C61"/>
<path d="M317.658 153.137C317.658 153.137 320.997 144.549 320.043 144.549C319.089 144.549 323.923 139.267 325.799 141.193C327.674 143.118 331.013 148.843 327.197 150.274C323.381 151.706 317.658 153.137 317.658 153.137Z" fill="#006C61"/>
<path d="M341.165 148.04C341.165 148.04 332.446 145.066 332.486 146.019C332.526 146.973 327.046 142.364 328.89 140.409C330.734 138.453 336.311 134.874 337.902 138.627C339.493 142.38 341.165 148.04 341.165 148.04Z" fill="#006C61"/>
<path d="M327.197 135.007C327.197 135.007 331.552 132.563 334.144 136.409C336.737 140.256 331.013 146.935 327.197 146.935C323.381 146.935 323.381 138.824 323.381 138.824L327.197 135.007Z" fill="#006C61"/>
<path opacity="0.1" d="M327.197 135.007C327.197 135.007 331.552 132.563 334.144 136.409C336.737 140.256 331.013 146.935 327.197 146.935C323.381 146.935 323.381 138.824 323.381 138.824L327.197 135.007Z" fill="black"/>
<path d="M298.508 54.9496C295.993 57.0232 293.608 59.347 292.045 62.2072C291.225 63.8113 290.539 65.4807 289.995 67.1983C288.066 72.7508 283.272 78.3743 285.301 83.8909C285.88 85.465 286.783 87.1247 286.264 88.7196C285.803 90.136 284.38 90.9626 283.351 92.0392C281.142 94.3501 280.77 97.8174 280.635 101.012C280.388 106.862 283.604 113.755 287.49 118.134C288.333 118.958 289.115 119.843 289.828 120.782C290.309 121.531 290.623 122.375 290.75 123.256C290.876 124.137 290.812 125.034 290.561 125.888L296.221 124.707C296.425 126.797 296.489 128.899 296.412 130.997C297.754 131.145 299.106 130.825 300.24 130.092C301.374 129.359 302.221 128.257 302.638 126.973C302.958 128.47 303.481 129.915 304.193 131.271C305.853 129.193 307.127 126.834 307.952 124.306C309.035 121.068 309.268 117.606 308.627 114.252C308.028 111.802 307.212 109.411 306.19 107.105C304.19 102.049 302.557 96.8573 300.925 91.6705C300.078 88.9767 299.221 86.1953 299.477 83.3829L301.489 83.1641C301.511 82.0532 301.726 80.9547 302.123 79.9173C303.302 80.1667 304.436 80.5937 305.487 81.1836L307.806 75.2987C309.336 76.8861 311.532 77.6047 313.635 78.267L321.628 80.7843L321.676 79.2021C325.05 82.1894 328.893 84.6004 333.05 86.3382C332.815 86.0546 332.644 85.7242 332.547 85.3691C332.45 85.014 332.43 84.6423 332.488 84.2788C334.458 87.8083 333.67 92.2052 332.455 96.0601C331.239 99.915 329.626 103.84 330.116 107.852C330.482 110.853 332.019 113.723 331.734 116.732C331.594 118.214 331.014 119.625 330.834 121.103C330.404 124.627 332.257 127.983 334.045 131.05L337.522 126.273C338.795 124.525 340.107 122.739 341.909 121.544C343.759 120.317 346.051 119.767 347.663 118.241C350.541 115.517 350.176 110.876 349.24 107.025C348.742 104.978 348.14 102.902 348.323 100.803C348.633 97.2457 351.105 94.302 352.497 91.0134C353.489 88.6155 353.919 86.0222 353.754 83.4323C353.589 80.8425 352.833 78.3248 351.545 76.0724C349.818 73.1089 347.208 70.7222 345.58 67.7029C343.96 64.6972 343.341 61.121 341.121 58.527C340.037 57.3466 338.776 56.3417 337.384 55.5484C331.074 51.7563 323.987 49.4435 316.655 48.784C309.702 48.0569 303.836 50.5563 298.508 54.9496Z" fill="#FF6584"/>
</g>
<defs>
<clipPath id="clip0_415_267">
<rect width="566" height="508" fill="white"/>
</clipPath>
</defs>
</svg>
