<svg width="381" height="335" viewBox="0 0 381 335" fill="none" xmlns="http://www.w3.org/2000/svg">
<g clip-path="url(#clip0_415_307)">
<path d="M381 162.753C381 237.284 316.222 300.11 227.83 319.398C213.475 322.522 198.892 324.451 184.226 325.165C183.512 325.201 182.799 325.237 182.08 325.263C178.263 325.423 174.418 325.504 170.543 325.505C163.807 325.505 157.15 325.263 150.573 324.778C146.924 324.515 143.306 324.18 139.719 323.772C104.828 319.81 72.7192 309.23 45.5992 293.729C42.2105 291.794 38.9017 289.782 35.6726 287.693C29.7597 283.883 24.0511 279.757 18.571 275.333C-17.655 246.105 12.5478 183.717 31.4277 144.44C82.3858 38.4313 54.3131 0 170.543 0C286.773 0 381 72.8647 381 162.753Z" fill="#F2F2F2"/>
<path d="M297.703 67.0962C261.578 66.4404 261.584 12.0931 297.704 11.4427C333.829 12.0984 333.823 66.4457 297.703 67.0962Z" fill="white"/>
<path d="M229.385 148.086C193.26 147.43 193.266 93.0825 229.386 92.4321C265.51 93.0879 265.505 147.435 229.385 148.086Z" fill="white"/>
<path d="M300.649 230.326C264.523 229.67 264.529 175.323 300.65 174.672C336.774 175.328 336.768 229.675 300.649 230.326Z" fill="white"/>
<path d="M297.703 67.0962C261.578 66.4404 261.584 12.0931 297.704 11.4427C333.829 12.0984 333.823 66.4457 297.703 67.0962ZM297.703 13.1291C263.767 13.7453 263.773 64.7985 297.704 65.4097C331.639 64.7935 331.634 13.7402 297.703 13.1291Z" fill="#E6E6E6"/>
<path d="M139.591 323.385C139.51 323.123 139.454 322.853 139.423 322.58L128.931 262.019C128.915 261.863 128.892 261.708 128.86 261.555C128.638 260.451 128.084 259.443 127.275 258.669C126.466 257.896 125.441 257.394 124.34 257.232L64.5097 257.495C63.3777 257.323 62.2211 257.522 61.2089 258.063C60.1967 258.604 59.382 259.459 58.8839 260.502C57.9108 262.555 56.9579 264.638 56.0252 266.749C52.2492 275.256 48.7738 284.249 45.5992 293.729C72.7192 309.23 104.828 319.81 139.719 323.772L139.591 323.385Z" fill="#2F2E41"/>
<path d="M197.995 161.323C197.848 161.978 197.752 162.643 197.709 163.313L146.213 193.387L133.696 186.093L120.353 203.776L141.271 218.87C142.961 220.089 144.996 220.72 147.071 220.669C149.146 220.618 151.148 219.887 152.777 218.586L205.878 176.178C208.275 177.076 210.884 177.214 213.36 176.574C215.836 175.934 218.061 174.546 219.738 172.595C221.416 170.644 222.467 168.222 222.752 165.651C223.036 163.08 222.541 160.483 221.332 158.204C220.123 155.925 218.257 154.073 215.982 152.894C213.708 151.715 211.133 151.264 208.599 151.603C206.066 151.942 203.694 153.053 201.8 154.789C199.906 156.526 198.579 158.805 197.995 161.323Z" fill="#FFB8B8"/>
<path d="M145.508 190.382C145.351 189.613 145.033 188.887 144.575 188.253C144.117 187.619 143.53 187.093 142.853 186.709L119.223 173.333C116.083 170.88 112.111 169.788 108.177 170.296C104.243 170.804 100.668 172.87 98.2366 176.042C95.8051 179.213 94.715 183.232 95.2055 187.215C95.696 191.199 97.7269 194.824 100.853 197.294L119.692 217.098C120.23 217.664 120.882 218.105 121.603 218.393C122.325 218.68 123.099 218.807 123.873 218.764C124.647 218.722 125.403 218.511 126.09 218.146C126.776 217.781 127.377 217.27 127.851 216.649L131.519 211.831L132.773 210.191L144.493 194.813C144.921 194.252 145.235 193.61 145.416 192.925C145.645 192.097 145.677 191.225 145.508 190.382Z" fill="#006C61"/>
<path d="M111.295 149.595C122.793 137.956 122.793 119.084 111.295 107.444C99.7967 95.8045 81.1545 95.8045 69.6564 107.444C58.1583 119.084 58.1583 137.956 69.6564 149.595C81.1545 161.235 99.7967 161.235 111.295 149.595Z" fill="#FFB8B8"/>
<path d="M127.703 241.333C128.885 239.543 136.401 227.462 133.558 213.301C133.349 212.252 133.087 211.213 132.773 210.191C131.433 205.929 129.293 201.968 126.47 198.527C126.505 197.578 126.495 196.644 126.439 195.716V195.711C126.024 189.259 123.32 183.177 118.825 178.583C114.331 173.99 108.348 171.195 101.979 170.712L69.0501 168.18C64.8117 167.83 60.5527 168.528 56.6398 170.213C52.7269 171.899 49.2772 174.522 46.5878 177.857C45.9684 178.617 45.3884 179.409 44.85 180.23L44.8481 180.23L44.8465 180.231L44.8454 180.233L44.8451 180.235C42.7688 183.407 41.3911 186.995 40.8055 190.753C40.2199 194.512 40.4401 198.355 41.4512 202.02L41.7316 203.268L45.2424 218.852L51.1128 244.929L56.0252 266.749L56.545 269.05C56.819 270.255 57.4879 271.33 58.4428 272.101C59.3978 272.872 60.5824 273.293 61.8038 273.296C62.0975 273.297 62.3907 273.273 62.6804 273.223L126.398 262.648C127.298 262.503 128.145 262.126 128.86 261.555C129.289 261.209 129.665 260.8 129.976 260.342C130.391 259.735 130.678 259.047 130.82 258.322C130.962 257.597 130.956 256.85 130.801 256.128L127.703 241.333Z" fill="#006C61"/>
<path d="M2.30396 329.349C1.22321 327.788 0.493613 326.007 0.16655 324.13C-0.160514 322.253 -0.0770845 320.327 0.41096 318.486C0.899004 316.645 1.77979 314.935 2.99129 313.476C4.20278 312.017 5.7155 310.845 7.42291 310.042L43.7016 197.128L64.7259 207.227L25.0312 317.17C26.1736 320.163 26.1917 323.477 25.0822 326.482C23.9726 329.488 21.8125 331.977 19.0111 333.479C16.2097 334.98 12.9616 335.388 9.88237 334.627C6.80314 333.866 4.10669 331.988 2.30396 329.349Z" fill="#FFB8B8"/>
<path d="M64.4791 170.454C60.5925 169.271 56.4074 169.621 52.7656 171.435C49.1238 173.248 46.2956 176.391 44.85 180.23L44.8481 180.23L44.8464 180.231L44.8454 180.233L44.845 180.235C44.7124 180.581 44.5903 180.942 44.4832 181.303L41.4103 187.901L32.1259 207.839C31.771 208.598 31.5822 209.426 31.5724 210.267C31.5627 211.107 31.7321 211.939 32.0693 212.707C32.4065 213.475 32.9034 214.16 33.5261 214.716C34.1488 215.272 34.8827 215.685 35.6776 215.927L37.4867 216.479L45.2424 218.852L59.0063 223.061L63.5925 224.465C64.3871 224.708 65.2241 224.774 66.0465 224.66C66.8689 224.546 67.6574 224.254 68.3581 223.804C69.0589 223.353 69.6555 222.755 70.1073 222.05C70.5591 221.345 70.8555 220.55 70.9762 219.719L75.2161 190.604C76.4206 186.491 75.9673 182.062 73.9553 178.286C71.9432 174.51 68.5362 171.694 64.4791 170.454Z" fill="#006C61"/>
<path d="M117.511 117.681C107.02 126.972 90.9138 129.129 78.3967 122.92C84.0195 129.673 94.6978 163.006 94.6978 163.006C94.6978 163.006 64.5464 159.798 60.2864 158.876C35.1256 153.429 44.2713 87.4651 71.0816 87.7981C75.6225 87.8545 79.5921 88.4104 82.6144 91.8414C84.6205 86.1491 90.9994 82.7959 96.9542 83.23C102.909 83.664 108.294 87.2849 112.125 91.9205C115.182 95.6734 117.388 100.059 118.589 104.769C119.789 109.479 119.955 114.399 119.073 119.18L117.511 117.681Z" fill="#2F2E41"/>
<path d="M229.385 148.086C193.26 147.43 193.266 93.0825 229.386 92.4321C265.51 93.0879 265.505 147.435 229.385 148.086ZM229.385 94.1186C195.449 94.7347 195.455 145.788 229.386 146.399C263.321 145.783 263.316 94.7297 229.385 94.1186Z" fill="#E6E6E6"/>
<path d="M300.649 230.326C264.523 229.67 264.529 175.323 300.65 174.672C336.774 175.328 336.768 229.675 300.649 230.326ZM300.649 176.359C266.713 176.975 266.718 228.028 300.65 228.639C334.585 228.023 334.579 176.97 300.649 176.359Z" fill="#E6E6E6"/>
<path d="M303.574 25.0048C296.797 25.2019 283.619 22.7498 283.612 33.3266C283.807 40.1865 281.385 53.5271 291.833 53.5339C298.609 53.3372 311.787 55.7893 311.794 45.2125C311.6 38.3525 314.022 25.012 303.574 25.0048Z" fill="#3F3D56"/>
<path d="M305.336 33.3261C303.055 33.3551 303.063 29.7284 305.344 29.7676C307.624 29.739 307.616 33.3649 305.336 33.3261Z" fill="white"/>
<path d="M297.703 34.5144C303.798 34.4238 303.798 44.116 297.703 44.0246C291.609 44.1142 291.609 34.4239 297.703 34.5144ZM297.703 32.1372C288.563 32.002 288.561 46.5382 297.704 46.4019C306.845 46.5371 306.844 32.0009 297.703 32.1372Z" fill="white"/>
<path d="M251.025 207.191C250.861 207.196 250.699 207.151 250.559 207.062C250.42 206.974 250.31 206.845 250.242 206.693C250.175 206.541 250.154 206.372 250.182 206.208C250.21 206.044 250.285 205.892 250.398 205.771L253.171 202.804C253.258 202.711 253.305 202.587 253.301 202.459C253.298 202.331 253.244 202.21 253.152 202.121L250.206 199.299C250.125 199.221 250.059 199.127 250.013 199.024C249.968 198.92 249.943 198.808 249.939 198.695C249.936 198.581 249.955 198.468 249.995 198.362C250.036 198.256 250.096 198.159 250.173 198.076C250.328 197.911 250.542 197.814 250.767 197.807C250.993 197.8 251.212 197.884 251.377 198.039L255.34 201.788C255.418 201.862 255.481 201.951 255.525 202.05C255.569 202.149 255.593 202.255 255.596 202.363C255.599 202.472 255.581 202.579 255.542 202.68C255.504 202.781 255.446 202.874 255.372 202.952L251.603 206.933C251.452 207.092 251.244 207.185 251.025 207.191Z" fill="#CCCCCC"/>
<path d="M247.997 202.874C247.907 202.958 247.789 203.006 247.666 203.01L238.425 203.268C238.358 203.269 238.291 203.258 238.229 203.234C238.166 203.21 238.109 203.173 238.06 203.127C238.012 203.08 237.972 203.024 237.945 202.963C237.918 202.901 237.903 202.834 237.901 202.766C237.899 202.698 237.91 202.631 237.934 202.568C237.958 202.504 237.994 202.446 238.04 202.397C238.086 202.348 238.142 202.308 238.203 202.281C238.264 202.253 238.33 202.238 238.397 202.236L247.638 201.978C247.742 201.976 247.844 202.005 247.931 202.062C248.018 202.12 248.085 202.203 248.124 202.3C248.163 202.397 248.172 202.504 248.149 202.607C248.126 202.71 248.073 202.803 247.997 202.874Z" fill="#CCCCCC"/>
<path d="M179.684 124.951C179.52 124.955 179.357 124.911 179.218 124.822C179.079 124.734 178.968 124.605 178.901 124.453C178.834 124.301 178.813 124.132 178.841 123.968C178.868 123.804 178.944 123.651 179.057 123.53L181.83 120.564C181.917 120.471 181.963 120.347 181.96 120.219C181.956 120.091 181.903 119.969 181.811 119.881L178.865 117.059C178.783 116.981 178.718 116.887 178.672 116.783C178.626 116.68 178.601 116.568 178.598 116.454C178.595 116.341 178.614 116.228 178.654 116.122C178.694 116.016 178.755 115.919 178.832 115.836C178.987 115.671 179.201 115.574 179.426 115.567C179.651 115.56 179.87 115.643 180.035 115.799L183.999 119.548C184.077 119.622 184.14 119.711 184.184 119.81C184.228 119.908 184.252 120.015 184.255 120.123C184.258 120.231 184.239 120.339 184.201 120.44C184.162 120.541 184.105 120.633 184.031 120.711L180.262 124.692C180.11 124.852 179.903 124.945 179.684 124.951Z" fill="#CCCCCC"/>
<path d="M176.656 120.633C176.565 120.718 176.448 120.766 176.325 120.769L167.084 121.027C167.017 121.029 166.95 121.018 166.887 120.994C166.825 120.97 166.768 120.933 166.719 120.887C166.67 120.84 166.631 120.784 166.604 120.722C166.576 120.66 166.561 120.594 166.56 120.526C166.558 120.458 166.569 120.391 166.593 120.327C166.617 120.264 166.653 120.206 166.699 120.157C166.745 120.108 166.8 120.068 166.861 120.041C166.923 120.013 166.989 119.998 167.056 119.996L176.297 119.738C176.4 119.735 176.503 119.765 176.589 119.822C176.676 119.88 176.744 119.962 176.783 120.06C176.822 120.157 176.831 120.264 176.808 120.367C176.785 120.469 176.732 120.562 176.656 120.633Z" fill="#CCCCCC"/>
<path d="M247.968 43.9613C247.803 43.9661 247.641 43.9214 247.502 43.8328C247.362 43.7442 247.252 43.6157 247.185 43.4636C247.118 43.3115 247.097 43.1426 247.124 42.9784C247.152 42.8142 247.227 42.662 247.341 42.5411L250.114 39.5747C250.2 39.4816 250.247 39.3573 250.244 39.2293C250.24 39.1013 250.187 38.9799 250.095 38.8917L247.149 36.0692C247.067 35.9911 247.002 35.8976 246.956 35.7939C246.91 35.6902 246.885 35.5784 246.882 35.4649C246.879 35.3514 246.898 35.2384 246.938 35.1323C246.978 35.0262 247.038 34.9292 247.115 34.8467C247.271 34.6813 247.484 34.5846 247.71 34.5776C247.935 34.5706 248.154 34.6539 248.319 34.8093L252.283 38.5587C252.361 38.6326 252.424 38.7215 252.468 38.8202C252.512 38.9189 252.536 39.0254 252.539 39.1337C252.542 39.2419 252.523 39.3496 252.485 39.4506C252.446 39.5516 252.388 39.6438 252.314 39.722L248.546 43.7029C248.394 43.8628 248.187 43.9556 247.968 43.9613Z" fill="#CCCCCC"/>
<path d="M244.939 39.644C244.849 39.7284 244.732 39.7767 244.609 39.7799L235.367 40.0379C235.3 40.0398 235.234 40.0284 235.171 40.0043C235.109 39.9801 235.051 39.9437 235.003 39.8972C234.954 39.8506 234.915 39.7948 234.888 39.7329C234.86 39.671 234.845 39.6043 234.843 39.5365C234.842 39.4688 234.853 39.4013 234.877 39.338C234.901 39.2747 234.937 39.2168 234.983 39.1676C235.029 39.1184 235.084 39.0788 235.145 39.0512C235.206 39.0236 235.272 39.0085 235.339 39.0067L244.58 38.7488C244.684 38.7459 244.786 38.7751 244.873 38.8326C244.96 38.8901 245.028 38.973 245.067 39.0704C245.106 39.1677 245.114 39.2748 245.092 39.3773C245.069 39.4799 245.016 39.5729 244.939 39.644Z" fill="#CCCCCC"/>
<path d="M238.506 306.873C236.116 311.897 232.223 315.962 227.83 319.398C213.475 322.522 198.892 324.451 184.226 325.165C183.512 325.201 182.799 325.237 182.08 325.263C178.263 325.423 174.418 325.504 170.543 325.505C163.807 325.505 157.15 325.263 150.573 324.778C150.322 323.247 150.288 321.687 150.471 320.146C151.2 314.115 155.72 308.575 161.585 307.296C167.45 306.016 174.136 309.56 175.914 315.359C176.898 304.175 178.024 292.527 183.899 283.004C189.214 274.384 198.422 268.214 208.405 267.11C214.272 266.492 220.191 267.59 225.461 270.273C225.945 270.52 226.424 270.778 226.898 271.046C230.061 272.861 232.851 275.272 235.117 278.15C241.344 286.125 242.868 297.721 238.506 306.873Z" fill="white"/>
<path d="M226.898 271.046C226.91 271.182 226.887 271.318 226.832 271.442C226.777 271.566 226.69 271.673 226.582 271.753C208.896 286.329 194.46 304.533 184.226 325.165C183.512 325.201 182.799 325.237 182.08 325.263C182.987 323.401 183.928 321.557 184.903 319.733C189.968 310.287 195.925 301.36 202.693 293.079C209.459 284.792 217.013 277.198 225.247 270.407C225.312 270.353 225.384 270.308 225.461 270.273C225.604 270.21 225.76 270.182 225.916 270.188C226.072 270.195 226.224 270.237 226.362 270.311C226.5 270.385 226.62 270.49 226.712 270.617C226.805 270.745 226.868 270.891 226.898 271.046Z" fill="#F2F2F2"/>
<path d="M315.573 195.478C315.573 195.478 313.24 198.125 312.791 198.295C311.558 211.878 303.181 214.962 296.454 214.962C291.618 214.962 287.633 213.368 287.766 212.93C294.941 213.1 295.552 210.118 295.552 210.118C291.384 209.494 290.548 206.74 290.548 206.74C290.922 206.939 291.355 206.992 291.765 206.888C292.175 206.784 292.533 206.531 292.77 206.177C288.27 204.991 288.882 200.544 288.882 200.544C289.683 201.131 290.62 201.501 291.603 201.617C291.103 200.998 286.894 195.891 289.427 193.245C289.575 193.647 293.957 199.688 301.28 199.249C301.106 198.387 301.123 197.496 301.33 196.641C301.537 195.787 301.928 194.989 302.476 194.305C303.023 193.622 303.714 193.069 304.497 192.688C305.281 192.307 306.138 192.106 307.007 192.1C310.901 192.1 311.736 194.354 311.736 194.354L314.519 192.662C314.463 192.662 314.182 195.478 312.791 196.041L315.573 195.478Z" fill="#3F3D56"/>
<path fill-rule="evenodd" clip-rule="evenodd" d="M244.531 120.349C244.532 124.031 243.235 127.592 240.873 130.392C238.512 133.192 235.241 135.047 231.649 135.624V124.822H235.206L235.884 120.349H231.649C231.506 116.625 231.363 114.536 236.062 115.036V111.234C229.025 109.666 226.089 113.277 226.879 120.349H223.001V124.822H226.879V135.619C208.626 132.776 210.772 104.822 229.259 104.894C231.264 104.894 233.25 105.293 235.103 106.07C236.955 106.846 238.639 107.985 240.057 109.42C241.475 110.855 242.6 112.559 243.368 114.434C244.136 116.309 244.531 118.319 244.531 120.349Z" fill="#3F3D56"/>
</g>
<defs>
<clipPath id="clip0_415_307">
<rect width="381" height="335" fill="white"/>
</clipPath>
</defs>
</svg>
