<svg width="213" height="185" viewBox="0 0 213 185" fill="none" xmlns="http://www.w3.org/2000/svg">
<g clip-path="url(#clip0_415_184)">
<path d="M192.049 96.2769C192.077 119.169 183.203 141.18 167.294 157.683C166.335 158.684 165.35 159.662 164.339 160.615C162.799 162.076 161.207 163.48 159.563 164.828C144.188 177.46 124.992 184.558 105.075 184.978C104.411 184.992 103.745 185 103.076 185C87.1916 185 67.2123 176.539 49.0812 164.828C47.5811 163.859 46.0944 162.867 44.6211 161.853C43.9324 161.384 43.247 160.908 42.565 160.425C35.5721 155.501 28.9344 150.094 22.701 144.243C18.6197 140.424 14.7925 136.343 11.2438 132.027C-2.68761 114.891 -5.76038 99.4509 14.1012 96.2769C16.4527 95.9024 18.735 95.502 20.9479 95.0758C24.1535 94.4615 27.2212 93.798 30.1512 93.0855C34.098 92.1291 37.806 91.0919 41.2753 89.974C42.4423 89.5994 43.5826 89.2173 44.6962 88.8278C61.1595 83.0618 72.1784 75.5427 79.6787 67.3843C80.9509 66.0034 82.1238 64.6058 83.1973 63.1915C84.8397 61.0389 86.3316 58.7761 87.6624 56.4191C89.4992 53.1443 91.042 49.7139 92.2728 46.1681L92.3405 45.9733C98.3082 28.8076 96.4926 12.8854 103.076 7.55639C131.22 -15.2256 166.257 17.2181 182.703 55.4777C183.532 57.4055 184.312 59.345 185.042 61.2961C185.37 62.1677 185.686 63.0409 185.991 63.9157C186.793 66.1956 187.52 68.4814 188.172 70.773C188.423 71.647 188.662 72.5202 188.889 73.3926C189.132 74.334 189.364 75.273 189.58 76.2119C191.18 83.0867 192.049 89.8666 192.049 96.2769Z" fill="#F2F2F2"/>
<path d="M105.075 184.978C104.411 184.993 103.745 185 103.076 185C87.1916 185 67.2124 176.54 49.0812 164.828C47.5812 163.859 46.0945 162.867 44.6211 161.853L45.9133 154.012L85.0329 148.833L104.667 163.804L105.075 184.978Z" fill="#2F2E41"/>
<path d="M106.958 44.962H101.384C101.211 44.9621 101.045 45.0305 100.923 45.1522C100.801 45.274 100.732 45.4391 100.732 45.6112V51.1725C100.733 51.2576 100.749 51.3419 100.782 51.4205C100.815 51.4991 100.863 51.5705 100.923 51.6305C100.984 51.6906 101.056 51.7382 101.135 51.7706C101.214 51.803 101.298 51.8195 101.384 51.8193H106.958C107.13 51.8194 107.296 51.7513 107.418 51.6301C107.54 51.5088 107.609 51.3443 107.609 51.1725V45.6112C107.609 45.4392 107.54 45.2743 107.418 45.1527C107.296 45.0311 107.131 44.9625 106.958 44.962Z" fill="white"/>
<path d="M106.958 54.4389H101.384C101.211 54.439 101.045 54.5074 100.923 54.6291C100.801 54.7509 100.732 54.916 100.732 55.0881V60.6494C100.733 60.7345 100.749 60.8188 100.782 60.8974C100.815 60.976 100.863 61.0474 100.923 61.1074C100.984 61.1675 101.056 61.2151 101.135 61.2475C101.214 61.2799 101.298 61.2964 101.384 61.2962H106.958C107.13 61.2963 107.296 61.2282 107.418 61.107C107.54 60.9857 107.609 60.8212 107.609 60.6494V55.0881C107.609 54.9161 107.54 54.7512 107.418 54.6296C107.296 54.5079 107.131 54.4394 106.958 54.4389Z" fill="#E6E6E6"/>
<path d="M106.958 63.9157H101.384C101.211 63.9158 101.045 63.9843 100.923 64.106C100.801 64.2278 100.732 64.3929 100.732 64.565V70.1238C100.732 70.2091 100.749 70.2936 100.782 70.3725C100.814 70.4513 100.862 70.5229 100.923 70.5833C100.983 70.6436 101.055 70.6914 101.134 70.724C101.213 70.7565 101.298 70.7732 101.384 70.773H106.958C107.131 70.773 107.296 70.7046 107.418 70.5828C107.54 70.4611 107.609 70.296 107.609 70.1238V64.565C107.609 64.393 107.54 64.2281 107.418 64.1065C107.296 63.9848 107.131 63.9162 106.958 63.9157Z" fill="#E6E6E6"/>
<path d="M107.599 73.927C107.571 73.7775 107.492 73.6423 107.375 73.5447C107.258 73.4472 107.111 73.3934 106.958 73.3926H101.384C101.211 73.3927 101.045 73.4611 100.923 73.5829C100.801 73.7046 100.732 73.8697 100.732 74.0419V79.6007C100.732 79.686 100.749 79.7705 100.782 79.8493C100.814 79.9282 100.862 79.9998 100.923 80.0602C100.983 80.1205 101.055 80.1683 101.134 80.2009C101.213 80.2334 101.298 80.2501 101.384 80.25H106.958C107.131 80.2499 107.296 80.1814 107.418 80.0597C107.54 79.938 107.609 79.7729 107.609 79.6007V74.0419C107.61 74.0034 107.606 73.9649 107.599 73.927Z" fill="#E6E6E6"/>
<path d="M107.211 82.9195C107.131 82.8864 107.045 82.8694 106.958 82.8695H101.383C101.298 82.8693 101.213 82.886 101.134 82.9186C101.055 82.9512 100.983 82.999 100.923 83.0593C100.862 83.1196 100.814 83.1913 100.782 83.2701C100.749 83.349 100.732 83.4335 100.732 83.5188V89.0775C100.732 89.1629 100.749 89.2475 100.781 89.3265C100.814 89.4054 100.862 89.4771 100.922 89.5375C100.983 89.5979 101.055 89.6457 101.134 89.6782C101.213 89.7107 101.298 89.7272 101.383 89.7268H106.958C107.131 89.7268 107.296 89.6583 107.418 89.5366C107.54 89.4148 107.609 89.2497 107.609 89.0775V83.5188C107.609 83.391 107.571 83.2661 107.5 83.1596C107.429 83.0531 107.329 82.9696 107.211 82.9195Z" fill="#E6E6E6"/>
<path d="M118.668 44.962H113.094C112.921 44.9621 112.755 45.0305 112.633 45.1522C112.511 45.274 112.443 45.4391 112.443 45.6112V51.1725C112.443 51.2576 112.46 51.3419 112.492 51.4205C112.525 51.4991 112.573 51.5705 112.634 51.6305C112.694 51.6906 112.766 51.7382 112.845 51.7706C112.924 51.803 113.008 51.8195 113.094 51.8193H118.668C118.84 51.8194 119.006 51.7513 119.128 51.6301C119.25 51.5088 119.319 51.3443 119.319 51.1725V45.6112C119.319 45.4392 119.25 45.2743 119.128 45.1527C119.006 45.0311 118.841 44.9625 118.668 44.962Z" fill="#E6E6E6"/>
<path d="M118.668 54.4389H113.094C112.921 54.439 112.755 54.5074 112.633 54.6291C112.511 54.7509 112.443 54.916 112.443 55.0881V60.6494C112.443 60.7345 112.46 60.8188 112.492 60.8974C112.525 60.976 112.573 61.0474 112.634 61.1074C112.694 61.1675 112.766 61.2151 112.845 61.2475C112.924 61.2799 113.008 61.2964 113.094 61.2962H118.668C118.84 61.2963 119.006 61.2282 119.128 61.107C119.25 60.9857 119.319 60.8212 119.319 60.6494V55.0881C119.319 54.9161 119.25 54.7512 119.128 54.6296C119.006 54.5079 118.841 54.4394 118.668 54.4389Z" fill="#006C61"/>
<path d="M118.668 63.9157H113.094C112.921 63.9158 112.755 63.9843 112.633 64.106C112.511 64.2278 112.443 64.3929 112.443 64.565V70.1238C112.442 70.2091 112.459 70.2936 112.492 70.3725C112.524 70.4513 112.572 70.5229 112.633 70.5833C112.693 70.6436 112.765 70.6914 112.844 70.724C112.923 70.7565 113.008 70.7732 113.094 70.773H118.668C118.841 70.773 119.006 70.7046 119.128 70.5828C119.251 70.4611 119.319 70.296 119.319 70.1238V64.565C119.319 64.393 119.25 64.2281 119.128 64.1065C119.006 63.9848 118.841 63.9162 118.668 63.9157Z" fill="#006C61"/>
<path d="M118.668 73.3926H113.094C112.957 73.3927 112.824 73.4357 112.713 73.5155C112.603 73.5953 112.52 73.7078 112.478 73.8371C112.454 73.9029 112.443 73.9722 112.443 74.0419V79.6007C112.442 79.686 112.459 79.7705 112.492 79.8493C112.524 79.9282 112.572 79.9998 112.633 80.0601C112.693 80.1205 112.765 80.1683 112.844 80.2009C112.923 80.2334 113.008 80.2501 113.094 80.2499H118.668C118.841 80.2499 119.006 80.1814 119.128 80.0597C119.251 79.9379 119.319 79.7728 119.319 79.6007V74.0419C119.319 73.8699 119.25 73.705 119.128 73.5833C119.006 73.4617 118.841 73.3931 118.668 73.3926Z" fill="#006C61"/>
<path d="M118.668 82.8695H113.094C113.008 82.8693 112.923 82.886 112.844 82.9186C112.765 82.9512 112.693 82.999 112.633 83.0593C112.572 83.1196 112.524 83.1913 112.492 83.2701C112.459 83.349 112.442 83.4335 112.443 83.5188V89.0775C112.442 89.1629 112.459 89.2474 112.492 89.3262C112.524 89.4051 112.572 89.4767 112.633 89.537C112.693 89.5974 112.765 89.6452 112.844 89.6778C112.923 89.7103 113.008 89.727 113.094 89.7268H118.668C118.841 89.7268 119.006 89.6583 119.128 89.5366C119.251 89.4148 119.319 89.2497 119.319 89.0775V83.5188C119.319 83.3466 119.251 83.1815 119.128 83.0598C119.006 82.938 118.841 82.8696 118.668 82.8695Z" fill="#E6E6E6"/>
<path d="M130.378 44.962H124.804C124.631 44.9621 124.465 45.0305 124.343 45.1522C124.221 45.274 124.153 45.4391 124.153 45.6112V51.1725C124.153 51.2576 124.17 51.3419 124.202 51.4205C124.235 51.4991 124.283 51.5705 124.344 51.6305C124.404 51.6906 124.476 51.7382 124.555 51.7706C124.634 51.803 124.718 51.8195 124.804 51.8193H130.378C130.551 51.8194 130.716 51.7513 130.838 51.6301C130.96 51.5088 131.029 51.3443 131.029 51.1725V45.6112C131.029 45.4392 130.96 45.2743 130.838 45.1527C130.716 45.0311 130.551 44.9625 130.378 44.962Z" fill="#006C61"/>
<path d="M130.378 54.4389H124.804C124.631 54.439 124.465 54.5074 124.343 54.6291C124.221 54.7509 124.153 54.916 124.153 55.0881V60.6494C124.153 60.7345 124.17 60.8188 124.202 60.8974C124.235 60.976 124.283 61.0474 124.344 61.1074C124.404 61.1675 124.476 61.2151 124.555 61.2475C124.634 61.2799 124.718 61.2964 124.804 61.2962H130.378C130.551 61.2963 130.716 61.2282 130.838 61.107C130.96 60.9857 131.029 60.8212 131.029 60.6494V55.0881C131.029 54.9161 130.96 54.7512 130.838 54.6296C130.716 54.5079 130.551 54.4394 130.378 54.4389Z" fill="#006C61"/>
<path d="M130.378 63.9157H124.804C124.631 63.9158 124.465 63.9843 124.343 64.106C124.221 64.2278 124.153 64.3929 124.153 64.565V70.1238C124.152 70.2091 124.169 70.2936 124.202 70.3725C124.234 70.4513 124.282 70.5229 124.343 70.5833C124.403 70.6436 124.475 70.6914 124.554 70.724C124.633 70.7565 124.718 70.7732 124.804 70.773H130.378C130.551 70.773 130.716 70.7046 130.839 70.5828C130.961 70.4611 131.029 70.296 131.029 70.1238V64.565C131.029 64.393 130.96 64.2281 130.838 64.1065C130.716 63.9848 130.551 63.9162 130.378 63.9157Z" fill="#E6E6E6"/>
<path d="M130.378 73.3926H124.804C124.631 73.3927 124.465 73.4611 124.343 73.5829C124.221 73.7046 124.153 73.8697 124.153 74.0419V79.6007C124.152 79.686 124.169 79.7705 124.202 79.8493C124.234 79.9282 124.282 79.9998 124.343 80.0602C124.403 80.1205 124.475 80.1683 124.554 80.2009C124.633 80.2334 124.718 80.2501 124.804 80.25H130.378C130.551 80.2499 130.716 80.1814 130.839 80.0597C130.961 79.938 131.029 79.7729 131.029 79.6007V74.0419C131.029 73.8699 130.96 73.705 130.838 73.5833C130.716 73.4617 130.551 73.3931 130.378 73.3926Z" fill="#006C61"/>
<path d="M130.378 82.8695H124.804C124.718 82.8693 124.633 82.886 124.554 82.9186C124.475 82.9512 124.403 82.999 124.343 83.0593C124.282 83.1196 124.234 83.1913 124.202 83.2701C124.169 83.349 124.152 83.4335 124.153 83.5188V89.0775C124.152 89.1629 124.169 89.2474 124.202 89.3262C124.234 89.4051 124.282 89.4767 124.343 89.537C124.403 89.5974 124.475 89.6452 124.554 89.6778C124.633 89.7103 124.718 89.727 124.804 89.7268H130.378C130.551 89.7268 130.716 89.6583 130.839 89.5366C130.961 89.4148 131.029 89.2497 131.029 89.0775V83.5188C131.029 83.3466 130.961 83.1815 130.839 83.0598C130.716 82.938 130.551 82.8696 130.378 82.8695Z" fill="#006C61"/>
<path d="M142.088 44.962H136.514C136.341 44.9621 136.176 45.0305 136.053 45.1522C135.931 45.274 135.863 45.4391 135.863 45.6112V51.1725C135.863 51.2576 135.88 51.3419 135.912 51.4205C135.945 51.4991 135.993 51.5705 136.054 51.6305C136.114 51.6906 136.186 51.7382 136.265 51.7706C136.344 51.803 136.428 51.8195 136.514 51.8193H142.088C142.261 51.8194 142.426 51.7513 142.548 51.6301C142.67 51.5088 142.739 51.3443 142.739 51.1725V45.6112C142.739 45.4392 142.67 45.2743 142.548 45.1527C142.426 45.0311 142.261 44.9625 142.088 44.962Z" fill="#006C61"/>
<path d="M142.088 54.4389H136.514C136.341 54.439 136.176 54.5074 136.053 54.6291C135.931 54.7509 135.863 54.916 135.863 55.0881V60.6494C135.863 60.7345 135.88 60.8188 135.912 60.8974C135.945 60.976 135.993 61.0474 136.054 61.1074C136.114 61.1675 136.186 61.2151 136.265 61.2475C136.344 61.2799 136.428 61.2964 136.514 61.2962H142.088C142.261 61.2963 142.426 61.2282 142.548 61.107C142.67 60.9857 142.739 60.8212 142.739 60.6494V55.0881C142.739 54.9161 142.67 54.7512 142.548 54.6296C142.426 54.5079 142.261 54.4394 142.088 54.4389Z" fill="white"/>
<path d="M142.088 63.9157H136.514C136.341 63.9158 136.176 63.9843 136.053 64.106C135.931 64.2278 135.863 64.3929 135.863 64.565V70.1238C135.863 70.2091 135.879 70.2936 135.912 70.3725C135.945 70.4513 135.993 70.5229 136.053 70.5833C136.113 70.6436 136.185 70.6914 136.264 70.724C136.343 70.7565 136.428 70.7732 136.514 70.773H142.088C142.261 70.773 142.427 70.7046 142.549 70.5828C142.671 70.4611 142.739 70.296 142.739 70.1238V64.565C142.739 64.393 142.67 64.2281 142.548 64.1065C142.426 63.9848 142.261 63.9162 142.088 63.9157Z" fill="white"/>
<path d="M142.088 73.3926H136.514C136.341 73.3927 136.176 73.4611 136.053 73.5829C135.931 73.7046 135.863 73.8697 135.863 74.0419V79.6007C135.863 79.686 135.879 79.7705 135.912 79.8493C135.945 79.9282 135.993 79.9998 136.053 80.0602C136.113 80.1205 136.185 80.1683 136.264 80.2009C136.343 80.2334 136.428 80.2501 136.514 80.25H142.088C142.261 80.2499 142.427 80.1814 142.549 80.0597C142.671 79.938 142.739 79.7729 142.739 79.6007V74.0419C142.739 73.8699 142.67 73.705 142.548 73.5833C142.426 73.4617 142.261 73.3931 142.088 73.3926Z" fill="#E6E6E6"/>
<path d="M142.088 82.8695H136.514C136.428 82.8693 136.343 82.886 136.264 82.9186C136.185 82.9512 136.113 82.999 136.053 83.0593C135.993 83.1196 135.945 83.1913 135.912 83.2701C135.879 83.349 135.863 83.4335 135.863 83.5188V89.0775C135.863 89.1629 135.879 89.2474 135.912 89.3262C135.945 89.4051 135.993 89.4767 136.053 89.537C136.113 89.5974 136.185 89.6452 136.264 89.6778C136.343 89.7103 136.428 89.727 136.514 89.7268H142.088C142.261 89.7268 142.427 89.6583 142.549 89.5366C142.671 89.4148 142.739 89.2497 142.739 89.0775V83.5188C142.739 83.3466 142.671 83.1815 142.549 83.0598C142.427 82.938 142.261 82.8696 142.088 82.8695Z" fill="#006C61"/>
<path d="M153.798 44.962H148.221C148.049 44.9626 147.884 45.0313 147.762 45.153C147.641 45.2747 147.573 45.4395 147.573 45.6112V51.1725C147.573 51.344 147.641 51.5085 147.763 51.6298C147.884 51.7511 148.049 51.8193 148.221 51.8193H153.798C153.971 51.8194 154.136 51.7513 154.258 51.6301C154.38 51.5088 154.449 51.3443 154.45 51.1725V45.6112C154.449 45.4392 154.38 45.2743 154.258 45.1527C154.136 45.0311 153.971 44.9625 153.798 44.962Z" fill="white"/>
<path d="M153.798 54.4389H148.221C148.049 54.4395 147.884 54.5081 147.762 54.6299C147.641 54.7516 147.573 54.9164 147.573 55.0881V60.6494C147.573 60.8209 147.641 60.9854 147.763 61.1067C147.884 61.228 148.049 61.2962 148.221 61.2962H153.798C153.971 61.2963 154.136 61.2282 154.258 61.107C154.38 60.9857 154.449 60.8212 154.45 60.6494V55.0881C154.449 54.9161 154.38 54.7512 154.258 54.6296C154.136 54.5079 153.971 54.4394 153.798 54.4389Z" fill="white"/>
<path d="M153.798 63.9157H148.221C148.049 63.9163 147.884 63.985 147.762 64.1067C147.641 64.2284 147.573 64.3933 147.573 64.565V70.1238C147.572 70.2089 147.589 70.2933 147.622 70.372C147.654 70.4507 147.702 70.5222 147.762 70.5825C147.822 70.6428 147.894 70.6907 147.973 70.7234C148.051 70.7561 148.136 70.773 148.221 70.773H153.798C153.971 70.773 154.137 70.7046 154.259 70.5828C154.381 70.4611 154.449 70.296 154.45 70.1238V64.565C154.449 64.393 154.38 64.2281 154.258 64.1065C154.136 63.9848 153.971 63.9162 153.798 63.9157Z" fill="white"/>
<path d="M153.798 73.3926H148.221C148.049 73.3932 147.884 73.4619 147.762 73.5836C147.641 73.7053 147.573 73.8701 147.573 74.0419V79.6007C147.572 79.6858 147.589 79.7701 147.622 79.8488C147.654 79.9276 147.702 79.9991 147.762 80.0594C147.822 80.1197 147.894 80.1676 147.973 80.2003C148.051 80.233 148.136 80.2499 148.221 80.25H153.798C153.971 80.2499 154.137 80.1814 154.259 80.0597C154.381 79.938 154.449 79.7729 154.45 79.6007V74.0419C154.449 73.8699 154.38 73.705 154.258 73.5833C154.136 73.4617 153.971 73.3931 153.798 73.3926Z" fill="#006C61"/>
<path d="M153.798 82.8695H148.221C148.136 82.8696 148.051 82.8865 147.973 82.9192C147.894 82.9518 147.822 82.9997 147.762 83.06C147.702 83.1203 147.654 83.1919 147.622 83.2706C147.589 83.3493 147.572 83.4337 147.573 83.5188V89.0775C147.572 89.1627 147.589 89.247 147.622 89.3257C147.654 89.4044 147.702 89.476 147.762 89.5363C147.822 89.5966 147.894 89.6445 147.973 89.6772C148.051 89.7099 148.136 89.7267 148.221 89.7268H153.798C153.971 89.7268 154.137 89.6583 154.259 89.5366C154.381 89.4148 154.449 89.2497 154.45 89.0775V83.5188C154.449 83.3466 154.381 83.1815 154.259 83.0598C154.137 82.938 153.971 82.8696 153.798 82.8695Z" fill="#E6E6E6"/>
<path d="M165.509 44.962H159.931C159.759 44.9626 159.594 45.0313 159.473 45.153C159.351 45.2747 159.283 45.4395 159.283 45.6112V51.1725C159.283 51.344 159.351 51.5085 159.473 51.6298C159.594 51.7511 159.759 51.8193 159.931 51.8193H165.509C165.681 51.8194 165.846 51.7513 165.968 51.6301C166.09 51.5088 166.159 51.3443 166.16 51.1725V45.6112C166.159 45.4392 166.09 45.2744 165.968 45.1527C165.846 45.0311 165.681 44.9625 165.509 44.962Z" fill="white"/>
<path d="M165.509 54.4389H159.931C159.759 54.4395 159.594 54.5081 159.473 54.6299C159.351 54.7516 159.283 54.9164 159.283 55.0881V60.6494C159.283 60.8209 159.351 60.9854 159.473 61.1067C159.594 61.228 159.759 61.2962 159.931 61.2962H165.509C165.681 61.2962 165.846 61.2282 165.968 61.107C166.09 60.9857 166.159 60.8212 166.16 60.6494V55.0881C166.159 54.9161 166.09 54.7512 165.968 54.6296C165.846 54.5079 165.681 54.4394 165.509 54.4389Z" fill="white"/>
<path d="M165.509 63.9157H159.931C159.759 63.9163 159.594 63.985 159.473 64.1067C159.351 64.2284 159.283 64.3933 159.283 64.565V70.1238C159.283 70.2089 159.299 70.2933 159.332 70.372C159.364 70.4507 159.412 70.5222 159.472 70.5825C159.532 70.6428 159.604 70.6907 159.683 70.7234C159.762 70.7561 159.846 70.773 159.931 70.773H165.509C165.681 70.773 165.847 70.7045 165.969 70.5828C166.091 70.4611 166.16 70.296 166.16 70.1238V64.565C166.159 64.393 166.09 64.2281 165.968 64.1065C165.846 63.9848 165.681 63.9162 165.509 63.9157Z" fill="#006C61"/>
<path d="M165.509 73.3926H159.931C159.759 73.3932 159.594 73.4619 159.473 73.5836C159.351 73.7053 159.283 73.8701 159.283 74.0419V79.6007C159.283 79.6858 159.299 79.7701 159.332 79.8488C159.364 79.9276 159.412 79.9991 159.472 80.0594C159.532 80.1197 159.604 80.1676 159.683 80.2003C159.762 80.233 159.846 80.2499 159.931 80.25H165.509C165.681 80.2499 165.847 80.1814 165.969 80.0597C166.091 79.9379 166.16 79.7729 166.16 79.6007V74.0419C166.159 73.8699 166.09 73.705 165.968 73.5834C165.846 73.4617 165.681 73.3931 165.509 73.3926Z" fill="#E6E6E6"/>
<path d="M165.509 82.8695H159.931C159.846 82.8696 159.762 82.8865 159.683 82.9192C159.604 82.9518 159.532 82.9997 159.472 83.06C159.412 83.1203 159.364 83.1919 159.332 83.2706C159.299 83.3493 159.283 83.4337 159.283 83.5188V89.0775C159.283 89.1627 159.299 89.247 159.332 89.3257C159.364 89.4044 159.412 89.476 159.472 89.5363C159.532 89.5966 159.604 89.6445 159.683 89.6772C159.762 89.7099 159.846 89.7267 159.931 89.7268H165.509C165.681 89.7268 165.847 89.6583 165.969 89.5366C166.091 89.4148 166.16 89.2497 166.16 89.0775V83.5188C166.16 83.3466 166.091 83.1815 165.969 83.0598C165.847 82.938 165.681 82.8696 165.509 82.8695Z" fill="white"/>
<path d="M177.219 44.962H171.642C171.469 44.9626 171.304 45.0313 171.183 45.153C171.061 45.2747 170.993 45.4395 170.993 45.6112V51.1725C170.993 51.344 171.061 51.5085 171.183 51.6298C171.305 51.7511 171.47 51.8193 171.642 51.8193H177.219C177.391 51.8194 177.556 51.7513 177.678 51.6301C177.8 51.5088 177.869 51.3443 177.87 51.1725V45.6112C177.869 45.4392 177.8 45.2744 177.678 45.1527C177.556 45.0311 177.391 44.9625 177.219 44.962Z" fill="#006C61"/>
<path d="M177.219 54.4389H171.642C171.469 54.4395 171.304 54.5081 171.183 54.6299C171.061 54.7516 170.993 54.9164 170.993 55.0881V60.6494C170.993 60.8209 171.061 60.9854 171.183 61.1067C171.305 61.228 171.47 61.2962 171.642 61.2962H177.219C177.391 61.2962 177.556 61.2282 177.678 61.107C177.8 60.9857 177.869 60.8212 177.87 60.6494V55.0881C177.869 54.9161 177.8 54.7512 177.678 54.6296C177.556 54.5079 177.391 54.4394 177.219 54.4389Z" fill="#006C61"/>
<path d="M177.219 63.9157H171.642C171.469 63.9163 171.304 63.985 171.183 64.1067C171.061 64.2284 170.993 64.3933 170.993 64.565V70.1238C170.993 70.2089 171.009 70.2933 171.042 70.372C171.074 70.4507 171.122 70.5222 171.182 70.5825C171.242 70.6428 171.314 70.6907 171.393 70.7234C171.472 70.7561 171.556 70.773 171.642 70.773H177.219C177.391 70.773 177.557 70.7045 177.679 70.5828C177.801 70.4611 177.87 70.296 177.87 70.1238V64.565C177.869 64.393 177.8 64.2281 177.678 64.1065C177.556 63.9848 177.391 63.9162 177.219 63.9157Z" fill="#E6E6E6"/>
<path d="M177.219 73.3926H171.642C171.469 73.3932 171.304 73.4619 171.183 73.5836C171.061 73.7053 170.993 73.8701 170.993 74.0419V79.6007C170.993 79.6858 171.009 79.7701 171.042 79.8488C171.074 79.9276 171.122 79.9991 171.182 80.0594C171.242 80.1197 171.314 80.1676 171.393 80.2003C171.472 80.233 171.556 80.2499 171.642 80.25H177.219C177.391 80.2499 177.557 80.1814 177.679 80.0597C177.801 79.9379 177.87 79.7729 177.87 79.6007V74.0419C177.869 73.8699 177.8 73.705 177.678 73.5834C177.556 73.4617 177.391 73.3931 177.219 73.3926Z" fill="white"/>
<path d="M177.219 82.8695H171.642C171.556 82.8696 171.472 82.8865 171.393 82.9192C171.314 82.9518 171.242 82.9997 171.182 83.06C171.122 83.1203 171.074 83.1919 171.042 83.2706C171.009 83.3493 170.993 83.4337 170.993 83.5188V89.0775C170.993 89.1627 171.009 89.247 171.042 89.3257C171.074 89.4044 171.122 89.476 171.182 89.5363C171.242 89.5966 171.314 89.6445 171.393 89.6772C171.472 89.7099 171.556 89.7267 171.642 89.7268H177.219C177.391 89.7268 177.557 89.6583 177.679 89.5366C177.801 89.4148 177.87 89.2497 177.87 89.0775V83.5188C177.87 83.3466 177.801 83.1815 177.679 83.0598C177.557 82.938 177.391 82.8696 177.219 82.8695Z" fill="#006C61"/>
<path d="M188.929 44.962H183.352C183.179 44.9626 183.014 45.0313 182.893 45.153C182.771 45.2747 182.703 45.4395 182.703 45.6112V51.1725C182.703 51.344 182.771 51.5085 182.893 51.6298C183.015 51.7511 183.18 51.8193 183.352 51.8193H188.929C189.101 51.8194 189.266 51.7513 189.388 51.6301C189.51 51.5088 189.579 51.3443 189.58 51.1725V45.6112C189.579 45.4392 189.511 45.2744 189.389 45.1527C189.267 45.0311 189.101 44.9625 188.929 44.962Z" fill="#006C61"/>
<path d="M188.929 54.4389H183.352C183.179 54.4395 183.014 54.5081 182.893 54.6299C182.771 54.7516 182.703 54.9164 182.703 55.0881V60.6494C182.703 60.8209 182.771 60.9854 182.893 61.1067C183.015 61.228 183.18 61.2962 183.352 61.2962H188.929C189.101 61.2962 189.266 61.2282 189.388 61.107C189.51 60.9857 189.579 60.8212 189.58 60.6494V55.0881C189.579 54.9161 189.511 54.7512 189.389 54.6296C189.267 54.5079 189.101 54.4394 188.929 54.4389Z" fill="#006C61"/>
<path d="M188.929 63.9157H183.352C183.179 63.9163 183.014 63.985 182.893 64.1067C182.771 64.2284 182.703 64.3933 182.703 64.565V70.1238C182.703 70.2089 182.719 70.2933 182.752 70.372C182.784 70.4507 182.832 70.5222 182.892 70.5825C182.953 70.6428 183.024 70.6907 183.103 70.7234C183.182 70.7561 183.266 70.773 183.352 70.773H188.929C189.101 70.773 189.267 70.7045 189.389 70.5828C189.511 70.4611 189.58 70.296 189.58 70.1238V64.565C189.579 64.393 189.511 64.2281 189.389 64.1065C189.267 63.9848 189.101 63.9162 188.929 63.9157Z" fill="#E6E6E6"/>
<path d="M188.929 73.3926H183.352C183.179 73.3932 183.014 73.4619 182.893 73.5836C182.771 73.7053 182.703 73.8701 182.703 74.0419V79.6007C182.703 79.6858 182.719 79.7701 182.752 79.8488C182.784 79.9276 182.832 79.9991 182.892 80.0594C182.953 80.1197 183.024 80.1676 183.103 80.2003C183.182 80.233 183.266 80.2499 183.352 80.25H188.929C189.101 80.2499 189.267 80.1814 189.389 80.0597C189.511 79.9379 189.58 79.7728 189.58 79.6007V74.0419C189.579 73.8699 189.511 73.705 189.389 73.5834C189.267 73.4617 189.101 73.3931 188.929 73.3926Z" fill="#006C61"/>
<path d="M188.929 82.8695H183.352C183.266 82.8696 183.182 82.8865 183.103 82.9192C183.024 82.9518 182.953 82.9997 182.892 83.06C182.832 83.1203 182.784 83.1919 182.752 83.2706C182.719 83.3493 182.703 83.4337 182.703 83.5188V89.0775C182.703 89.1627 182.719 89.247 182.752 89.3257C182.784 89.4044 182.832 89.476 182.892 89.5363C182.953 89.5966 183.024 89.6445 183.103 89.6772C183.182 89.7099 183.266 89.7267 183.352 89.7268H188.929C189.101 89.7268 189.267 89.6583 189.389 89.5366C189.511 89.4148 189.58 89.2497 189.58 89.0775V83.5188C189.58 83.3466 189.511 83.1815 189.389 83.0598C189.267 82.938 189.101 82.8696 188.929 82.8695Z" fill="#006C61"/>
<path d="M200.639 44.962H195.062C194.889 44.9626 194.724 45.0313 194.603 45.153C194.481 45.2747 194.413 45.4395 194.413 45.6112V51.1725C194.413 51.344 194.481 51.5085 194.603 51.6298C194.725 51.7511 194.89 51.8193 195.062 51.8193H200.639C200.811 51.8194 200.976 51.7513 201.098 51.6301C201.22 51.5088 201.289 51.3443 201.29 51.1725V45.6112C201.289 45.4392 201.221 45.2744 201.099 45.1527C200.977 45.0311 200.811 44.9625 200.639 44.962Z" fill="#E6E6E6"/>
<path d="M200.639 54.4389H195.062C194.889 54.4395 194.724 54.5081 194.603 54.6299C194.481 54.7516 194.413 54.9164 194.413 55.0881V60.6494C194.413 60.8209 194.481 60.9854 194.603 61.1067C194.725 61.228 194.89 61.2962 195.062 61.2962H200.639C200.811 61.2962 200.976 61.2282 201.098 61.107C201.22 60.9857 201.289 60.8212 201.29 60.6494V55.0881C201.289 54.9161 201.221 54.7512 201.099 54.6296C200.977 54.5079 200.811 54.4394 200.639 54.4389Z" fill="#006C61"/>
<path d="M200.639 63.9157H195.062C194.889 63.9163 194.724 63.985 194.603 64.1067C194.481 64.2284 194.413 64.3933 194.413 64.565V70.1238C194.413 70.2089 194.429 70.2933 194.462 70.372C194.494 70.4507 194.542 70.5222 194.602 70.5825C194.663 70.6428 194.734 70.6907 194.813 70.7234C194.892 70.7561 194.976 70.773 195.062 70.773H200.639C200.811 70.773 200.977 70.7045 201.099 70.5828C201.221 70.4611 201.29 70.296 201.29 70.1238V64.565C201.289 64.393 201.221 64.2281 201.099 64.1065C200.977 63.9848 200.811 63.9162 200.639 63.9157Z" fill="#006C61"/>
<path d="M200.639 73.3926H195.062C194.889 73.3932 194.724 73.4619 194.603 73.5836C194.481 73.7053 194.413 73.8701 194.413 74.0419V79.6007C194.413 79.6858 194.429 79.7701 194.462 79.8488C194.494 79.9276 194.542 79.9991 194.602 80.0594C194.663 80.1197 194.734 80.1676 194.813 80.2003C194.892 80.233 194.976 80.2499 195.062 80.25H200.639C200.811 80.2499 200.977 80.1814 201.099 80.0597C201.221 79.9379 201.29 79.7728 201.29 79.6007V74.0419C201.289 73.8699 201.221 73.705 201.099 73.5834C200.977 73.4617 200.811 73.3931 200.639 73.3926Z" fill="#006C61"/>
<path d="M200.639 82.8695H195.062C194.976 82.8696 194.892 82.8865 194.813 82.9192C194.734 82.9518 194.663 82.9997 194.602 83.06C194.542 83.1203 194.494 83.1919 194.462 83.2706C194.429 83.3493 194.413 83.4337 194.413 83.5188V89.0775C194.413 89.1627 194.429 89.247 194.462 89.3257C194.494 89.4044 194.542 89.476 194.602 89.5363C194.663 89.5966 194.734 89.6445 194.813 89.6772C194.892 89.7099 194.976 89.7267 195.062 89.7268H200.639C200.811 89.7268 200.977 89.6583 201.099 89.5366C201.221 89.4148 201.29 89.2497 201.29 89.0775V83.5188C201.29 83.3466 201.221 83.1815 201.099 83.0598C200.977 82.938 200.811 82.8696 200.639 82.8695Z" fill="#E6E6E6"/>
<path d="M212.349 44.962H206.772C206.6 44.9626 206.435 45.0313 206.313 45.153C206.191 45.2747 206.123 45.4395 206.123 45.6112V51.1725C206.123 51.344 206.192 51.5085 206.313 51.6298C206.435 51.7511 206.6 51.8193 206.772 51.8193H212.349C212.521 51.8194 212.686 51.7513 212.808 51.6301C212.931 51.5088 212.999 51.3443 213 51.1725V45.6112C212.999 45.4392 212.931 45.2744 212.809 45.1527C212.687 45.0311 212.521 44.9625 212.349 44.962Z" fill="#E6E6E6"/>
<path d="M212.349 54.4389H206.772C206.6 54.4395 206.435 54.5081 206.313 54.6299C206.191 54.7516 206.123 54.9164 206.123 55.0881V60.6494C206.123 60.8209 206.192 60.9854 206.313 61.1067C206.435 61.228 206.6 61.2962 206.772 61.2962H212.349C212.521 61.2962 212.686 61.2282 212.808 61.107C212.931 60.9857 212.999 60.8212 213 60.6494V55.0881C213 54.9161 212.931 54.7512 212.809 54.6296C212.687 54.5079 212.521 54.4394 212.349 54.4389Z" fill="#E6E6E6"/>
<path d="M212.349 63.9157H206.772C206.6 63.9163 206.435 63.985 206.313 64.1067C206.191 64.2284 206.123 64.3932 206.123 64.565V70.1238C206.123 70.2089 206.14 70.2933 206.172 70.372C206.205 70.4507 206.252 70.5222 206.312 70.5825C206.373 70.6428 206.444 70.6907 206.523 70.7234C206.602 70.7561 206.686 70.773 206.772 70.773H212.349C212.522 70.773 212.687 70.7045 212.809 70.5828C212.931 70.4611 213 70.296 213 70.1238V64.565C213 64.393 212.931 64.2281 212.809 64.1065C212.687 63.9848 212.521 63.9162 212.349 63.9157Z" fill="#006C61"/>
<path d="M212.349 73.3926H206.772C206.6 73.3932 206.435 73.4619 206.313 73.5836C206.191 73.7053 206.123 73.8701 206.123 74.0419V79.6007C206.123 79.6858 206.14 79.7701 206.172 79.8488C206.205 79.9276 206.252 79.9991 206.312 80.0594C206.373 80.1197 206.444 80.1676 206.523 80.2003C206.602 80.233 206.686 80.2499 206.772 80.25H212.349C212.522 80.2499 212.687 80.1814 212.809 80.0597C212.931 79.9379 213 79.7728 213 79.6007V74.0419C212.999 73.8699 212.931 73.705 212.809 73.5834C212.687 73.4617 212.521 73.3931 212.349 73.3926Z" fill="#E6E6E6"/>
<path d="M212.349 82.8695H206.772C206.686 82.8696 206.602 82.8865 206.523 82.9192C206.444 82.9518 206.373 82.9997 206.312 83.06C206.252 83.1203 206.205 83.1919 206.172 83.2706C206.14 83.3493 206.123 83.4337 206.123 83.5188V89.0775C206.123 89.1627 206.14 89.247 206.172 89.3257C206.205 89.4044 206.252 89.476 206.312 89.5363C206.373 89.5966 206.444 89.6445 206.523 89.6772C206.602 89.7099 206.686 89.7267 206.772 89.7268H212.349C212.522 89.7268 212.687 89.6583 212.809 89.5366C212.931 89.4148 213 89.2497 213 89.0775V83.5188C213 83.3466 212.931 83.1815 212.809 83.0598C212.687 82.938 212.522 82.8696 212.349 82.8695Z" fill="#E6E6E6"/>
<path d="M84.1704 164.828H84.0129L84.1475 164.81L84.1704 164.828Z" fill="#2F2E41"/>
<path d="M70.8251 61.1951C80.2746 61.1951 87.9349 53.5564 87.9349 44.1337C87.9349 34.711 80.2746 27.0724 70.8251 27.0724C61.3756 27.0724 53.7153 34.711 53.7153 44.1337C53.7153 53.5564 61.3756 61.1951 70.8251 61.1951Z" fill="#FFB6B6"/>
<path d="M85.8087 31.6246C85.8087 31.6246 90.2838 23.094 80.4386 22.3185C80.4386 22.3185 72.0455 14.7264 63.4905 20.9305C63.4905 20.9305 58.8242 20.9305 56.2725 26.196C56.2725 26.196 52.6025 24.8081 51.796 28.5226C51.796 28.5226 49.1105 36.2777 51.796 43.2574C54.4814 50.237 55.3734 51.0125 55.3734 51.0125C55.3734 51.0125 50.9606 36.3793 61.7018 35.6038C72.4429 34.8283 84.4625 28.1348 85.3577 36.6655C86.2528 45.1961 87.5998 47.298 87.5998 47.298C87.5998 47.298 96.1018 35.1145 85.8087 31.6246Z" fill="#2F2E41"/>
<path d="M115.084 86.1808L115.029 86.4704L114.411 89.7268L110.136 112.252L109.883 113.578L109.352 116.382L108.626 120.208L107.016 128.686L106.555 131.115L106.382 132.027L106.322 132.347L105.844 134.861L105.698 135.62L104.531 144.243L103.512 151.757L106.923 155.158L104.889 157.186L103.555 164.81L103.557 164.828H49.0813C46.8775 163.404 44.7054 161.937 42.5651 160.425L43.0133 157.079C43.0133 157.079 44.556 151.103 43.9073 150.389C43.2613 149.675 41.8438 148.399 41.8438 148.399L43.6294 144.243L43.8773 143.666L43.4616 135.068L43.4516 134.861L43.3139 132.027L43.2963 131.662L43.2688 131.115L42.7404 120.208L42.7303 120.028L42.5701 116.721L42.4198 113.578L42.3547 112.252L41.7111 98.9839L41.2754 89.974L40.8947 82.1303L42.4248 81.6134L58.7904 76.0671L65.5695 67.2794L79.6788 67.3843L86.5856 67.4368L98.1104 78.0948L100.732 79.3434L100.752 79.3534L102.633 80.2499L107.401 82.5198L112.443 84.9222L115.029 86.1533L115.084 86.1808Z" fill="#CACACA"/>
<path d="M67.3929 139.232C66.3589 139.631 65.2498 139.8 64.1435 139.725C63.0372 139.651 61.9607 139.336 60.9898 138.802C60.0189 138.268 59.1772 137.528 58.5241 136.634C57.8709 135.741 57.4222 134.716 57.2094 133.63L30.5239 129.855L39.8005 119.391L63.7193 124.581C65.5711 124.345 67.4453 124.795 68.9866 125.845C70.5279 126.896 71.6294 128.473 72.0822 130.279C72.535 132.085 72.3077 133.994 71.4435 135.644C70.5792 137.294 69.138 138.57 67.3929 139.232Z" fill="#FFB6B6"/>
<path d="M55.4947 120.208C55.0004 119.583 54.3006 119.152 53.5188 118.992L42.5701 116.722L41.4456 116.489C40.7922 116.353 40.1749 116.081 39.6341 115.691C39.0934 115.301 38.6414 114.801 38.3077 114.224C37.9616 113.619 37.7522 112.946 37.6942 112.252C37.642 111.62 37.7178 110.985 37.9171 110.384L41.7111 98.9839L44.1728 91.5872C44.4711 90.6951 44.6472 89.7669 44.6962 88.8278C44.8334 86.2289 44.027 83.6678 42.4248 81.6134C41.0162 79.8077 39.0625 78.5017 36.8523 77.8884C34.6422 77.275 32.2928 77.3868 30.1512 78.2072C30.0886 78.2297 30.0235 78.2547 29.9609 78.2796C28.4251 78.8911 27.0529 79.8504 25.9529 81.0817C24.8528 82.313 24.055 83.7825 23.6225 85.3742L20.9479 95.0758L15.431 115.076C14.8787 117.08 14.7671 119.179 15.1039 121.23C15.4406 123.281 16.2178 125.235 17.3821 126.958C18.5465 128.682 20.0705 130.134 21.85 131.216C23.6294 132.297 25.6222 132.983 27.692 133.226L43.4616 135.068L50.7591 135.923C51.6029 136.024 52.454 135.804 53.1427 135.307C53.8315 134.811 54.3073 134.074 54.4755 133.243C54.4873 133.198 54.4965 133.152 54.503 133.106L54.6783 132.027L56.1634 122.942L56.1784 122.85C56.2558 122.386 56.2349 121.911 56.1171 121.456C55.9994 121.001 55.7874 120.576 55.4947 120.208Z" fill="#CACACA"/>
<path d="M84.3904 139.523C85.4705 139.773 86.5924 139.784 87.6772 139.555C88.7619 139.326 89.7831 138.862 90.6687 138.197C91.5544 137.532 92.283 136.681 92.8033 135.704C93.3236 134.728 93.6228 133.65 93.68 132.546L119.565 125.056L108.901 116.001L85.9553 124.502C84.0887 124.529 82.2969 125.238 80.9195 126.494C79.5421 127.751 78.6748 129.468 78.4819 131.319C78.289 133.171 78.7839 135.029 79.8729 136.541C80.9619 138.053 82.5693 139.114 84.3904 139.523Z" fill="#FFB6B6"/>
<path d="M132.417 108.301L120.106 80.0477C119.099 77.7281 117.3 75.8392 115.029 74.7161C114.327 74.3716 113.59 74.1036 112.831 73.917C112.713 73.8871 112.595 73.8596 112.477 73.8371C110.867 73.4866 109.196 73.5174 107.599 73.927C106.14 74.3009 104.775 74.9774 103.596 75.9125C102.416 76.8475 101.447 78.0199 100.752 79.3535C100.745 79.3645 100.738 79.3762 100.732 79.3884C99.9563 80.8854 99.5436 82.5431 99.5275 84.2282C99.5114 85.9133 99.8924 87.5786 100.64 89.09L100.792 89.3947L109.492 106.818C109.789 107.413 109.957 108.065 109.984 108.73C110.01 109.395 109.896 110.058 109.647 110.675C109.399 111.293 109.023 111.851 108.543 112.313C108.063 112.776 107.49 113.132 106.863 113.358L106.252 113.578L95.2629 117.536C94.4384 117.829 93.7601 118.43 93.371 119.212C92.9819 119.994 92.9123 120.896 93.1768 121.728L93.2044 121.816L96.2847 131.645C96.2997 131.69 96.3147 131.735 96.3323 131.78C96.3593 131.864 96.3928 131.947 96.4324 132.027C96.7598 132.759 97.3384 133.351 98.0642 133.695C98.79 134.04 99.6153 134.115 100.392 133.907L106.322 132.347L107.531 132.027L122.845 127.994C124.86 127.463 126.736 126.504 128.345 125.183C129.954 123.862 131.258 122.21 132.167 120.339C133.075 118.469 133.568 116.425 133.612 114.347C133.655 112.27 133.247 110.207 132.417 108.301Z" fill="#CACACA"/>
<path d="M11.2438 132.027C14.7925 136.343 18.6196 140.424 22.7009 144.243H135.888C136.978 144.245 138.023 144.678 138.794 145.447C139.565 146.216 139.999 147.259 140 148.346L140.163 176.947C147.126 173.756 153.646 169.683 159.563 164.828C161.206 163.482 162.798 162.077 164.339 160.615C165.348 159.661 166.333 158.684 167.294 157.683C174.497 150.2 180.33 141.517 184.529 132.027H11.2438Z" fill="#3F3D56"/>
<path d="M167.294 157.683C166.335 158.685 165.35 159.662 164.339 160.615H140.245V157.683H167.294Z" fill="white"/>
<path d="M114.859 63.9157C114.74 63.6967 114.564 63.5137 114.349 63.3863C114.135 63.2588 113.889 63.1915 113.639 63.1916H31.5386C31.1705 63.1925 30.8178 63.3389 30.5578 63.5987C30.2977 63.8585 30.1515 64.2104 30.1512 64.5775V113.578H115.029V64.5775C115.031 64.346 114.972 64.118 114.859 63.9157Z" fill="#3F3D56"/>
<path d="M30.0769 112.251V118.298C30.0769 118.548 30.1264 118.797 30.2226 119.028C30.3188 119.26 30.4598 119.47 30.6376 119.647C30.8153 119.825 31.0263 119.965 31.2586 120.061C31.4908 120.157 31.7398 120.206 31.9911 120.206H63.3191V132.14H62.9029C62.8702 132.14 62.8379 132.146 62.8077 132.159C62.7776 132.171 62.7501 132.189 62.7271 132.212C62.704 132.235 62.6857 132.263 62.6732 132.293C62.6607 132.323 62.6542 132.355 62.6542 132.388V133.218C62.6542 133.25 62.6607 133.283 62.6731 133.313C62.6856 133.343 62.704 133.37 62.7271 133.393C62.7501 133.416 62.7776 133.434 62.8077 133.447C62.8379 133.459 62.8702 133.466 62.9029 133.466H82.3509C82.3835 133.466 82.4159 133.459 82.446 133.447C82.4762 133.434 82.5036 133.416 82.5267 133.393C82.5498 133.37 82.5681 133.343 82.5806 133.313C82.5931 133.283 82.5995 133.25 82.5995 133.218V132.388C82.5995 132.355 82.5931 132.323 82.5806 132.293C82.5681 132.263 82.5498 132.235 82.5267 132.212C82.5036 132.189 82.4762 132.171 82.446 132.159C82.4159 132.146 82.3835 132.14 82.3509 132.14H81.9347V120.206H113.263C113.514 120.206 113.763 120.157 113.995 120.061C114.227 119.965 114.438 119.825 114.616 119.647C114.794 119.47 114.935 119.26 115.031 119.028C115.127 118.797 115.177 118.548 115.177 118.298V112.251H30.0769Z" fill="#3F3D56"/>
<path d="M71.5986 94.8962C75.9285 94.8962 79.4387 91.396 79.4387 87.0783C79.4387 82.7606 75.9285 79.2605 71.5986 79.2605C67.2687 79.2605 63.7585 82.7606 63.7585 87.0783C63.7585 91.396 67.2687 94.8962 71.5986 94.8962Z" fill="#006C61"/>
<path d="M91.5741 43.2015H90.322C90.322 33.762 80.9534 27.5765 71.5022 27.5715C70.1275 27.5675 68.7558 27.7005 67.4077 27.9685C65.8901 28.2707 64.3149 28.6328 62.7672 29.1048C56.6642 30.9702 51.0045 34.5761 51.0045 43.2015C51.0032 44.8766 51.217 46.5449 51.6406 48.1659L50.4285 48.4805C49.979 46.7567 49.7517 44.9827 49.7524 43.2015C49.7524 35.6649 52.8552 30.4882 58.2144 27.4017C61.0317 25.7785 64.4701 24.7322 68.4094 24.2227C70.0487 24.0053 71.7059 23.9551 73.3554 24.0729C84.224 24.852 91.5741 33.1627 91.5741 43.2015Z" fill="#006C61"/>
<path d="M93.6602 43.8932L93.1669 40.2573C93.0452 39.339 92.6016 38.4934 91.9147 37.8699C91.4737 37.4635 90.9459 37.1624 90.371 36.9893C89.7962 36.8163 89.1894 36.7758 88.5965 36.8711L87.8127 36.9784C87.5982 37.0066 87.3915 37.0769 87.2044 37.1854C87.0174 37.2938 86.8539 37.4382 86.7233 37.6102C86.5916 37.7816 86.4952 37.9773 86.4398 38.1861C86.3844 38.3948 86.3709 38.6124 86.4003 38.8264L87.5397 47.202C87.5867 47.5433 87.7401 47.8614 87.9783 48.111C88.2165 48.3606 88.5274 48.5292 88.867 48.5929C88.9676 48.613 89.0699 48.6231 89.1725 48.6229C89.2462 48.6229 89.3199 48.6179 89.3929 48.6079L90.2694 48.4905C90.8038 48.4198 91.318 48.2409 91.7806 47.9648C92.2431 47.6886 92.6441 47.3211 92.959 46.8848C93.0266 46.7899 93.0917 46.6925 93.1518 46.5926C93.6212 45.7756 93.8003 44.8244 93.6602 43.8932Z" fill="#006C61"/>
<path d="M87.3068 37.1308C87.0769 37.2422 86.8769 37.4065 86.7233 37.6102C86.5916 37.7816 86.4952 37.9773 86.4398 38.1861C86.3844 38.3948 86.3709 38.6124 86.4003 38.8264L87.5397 47.202C87.5867 47.5434 87.7401 47.8614 87.9783 48.111C88.2165 48.3606 88.5274 48.5292 88.867 48.5929L87.3068 37.1308Z" fill="white"/>
<path d="M93.6602 43.8932L93.1669 40.2573C93.0452 39.339 92.6016 38.4934 91.9147 37.8699L93.0492 46.2031C93.0662 46.3369 93.1007 46.4678 93.1519 46.5927C93.6212 45.7756 93.8004 44.8244 93.6602 43.8932Z" fill="#3F3D56"/>
<path d="M89.7611 46.5129C90.1038 46.4666 90.276 45.6535 90.1459 44.6968C90.0157 43.7402 89.6325 43.0022 89.2898 43.0486C88.9472 43.0949 88.7749 43.908 88.9051 44.8647C89.0352 45.8213 89.4185 46.5593 89.7611 46.5129Z" fill="#3F3D56"/>
<path d="M89.0098 42.018C89.3524 41.9716 89.5247 41.1585 89.3945 40.2019C89.2644 39.2452 88.8811 38.5073 88.5385 38.5536C88.1958 38.6 88.0236 39.4131 88.1537 40.3697C88.2839 41.3264 88.6672 42.0643 89.0098 42.018Z" fill="#3F3D56"/>
<path d="M93.768 43.766C94.1106 43.7197 94.2829 42.9066 94.1527 41.9499C94.0226 40.9933 93.6393 40.2553 93.2967 40.3017C92.954 40.348 92.7818 41.1611 92.9119 42.1178C93.0421 43.0744 93.4253 43.8124 93.768 43.766Z" fill="#3F3D56"/>
<path d="M71.5022 27.5715C70.1275 27.5675 68.7559 27.7005 67.4077 27.9685C65.8901 28.2707 64.3149 28.6328 62.7672 29.1048C60.3506 28.9874 58.5725 28.3631 58.2144 27.4017C61.0318 25.7785 64.4701 24.7322 68.4094 24.2227C70.0487 24.0053 71.7059 23.9551 73.3554 24.0729C73.53 24.175 73.681 24.3127 73.7984 24.4772C73.9158 24.6416 73.997 24.8289 74.0366 25.0268C74.1543 25.8959 73.1601 26.8198 71.5022 27.5715Z" fill="#3F3D56"/>
<path d="M55.5148 51.8668L53.5865 43.8732C53.5177 43.5848 53.365 43.3231 53.1476 43.121C52.9302 42.9188 52.6577 42.7852 52.3644 42.737C52.2815 42.7241 52.1978 42.7175 52.114 42.717C51.9958 42.7174 51.8781 42.7317 51.7633 42.7595L51.0171 42.9393C50.0562 43.171 49.2268 43.7734 48.7108 44.6142C48.1948 45.455 48.0344 46.4656 48.2649 47.4242L49.1288 51.0102C49.3261 51.8544 49.7959 52.6107 50.4661 53.1628C50.5747 53.2502 50.6885 53.3311 50.8067 53.405C51.2265 53.6674 51.6947 53.8432 52.1838 53.9221C52.6728 54.001 53.1728 53.9815 53.6541 53.8645L54.3979 53.6847C54.5945 53.639 54.7796 53.5531 54.9413 53.4325C55.1818 53.2576 55.3648 53.0154 55.4669 52.7366C55.569 52.4578 55.5857 52.155 55.5148 51.8668Z" fill="#006C61"/>
<path d="M51.4723 50.3795C51.8084 50.2988 51.8973 49.4725 51.6708 48.5339C51.4443 47.5952 50.9881 46.8997 50.652 46.9804C50.3158 47.0611 50.2269 47.8874 50.4534 48.826C50.6799 49.7646 51.1361 50.4601 51.4723 50.3795Z" fill="#3F3D56"/>
<path d="M48.968 51.1286C49.3042 51.048 49.3931 50.2217 49.1665 49.283C48.94 48.3444 48.4839 47.6489 48.1477 47.7296C47.8115 47.8102 47.7226 48.6365 47.9491 49.5752C48.1757 50.5138 48.6318 51.2093 48.968 51.1286Z" fill="#3F3D56"/>
<path d="M55.6375 51.8368L53.7092 43.8432C53.634 43.5312 53.4683 43.2482 53.2326 43.0297C52.997 42.8111 52.7019 42.6668 52.3844 42.6146L55.0164 53.5324C55.2764 53.3426 55.4741 53.0802 55.5846 52.7784C55.6951 52.4767 55.7135 52.149 55.6375 51.8368Z" fill="white"/>
<path d="M48.7006 45.841C48.6474 45.6187 48.5475 45.4102 48.4076 45.2292C48.1365 45.9292 48.0867 46.6952 48.2648 47.4242L49.1288 51.0102C49.3261 51.8544 49.7959 52.6107 50.4661 53.1628L48.7006 45.841Z" fill="#3F3D56"/>
</g>
<defs>
<clipPath id="clip0_415_184">
<rect width="213" height="185" fill="white"/>
</clipPath>
</defs>
</svg>
