<svg width="198" height="147" viewBox="0 0 198 147" fill="none" xmlns="http://www.w3.org/2000/svg">
<g clip-path="url(#clip0_415_56)">
<path d="M176.594 78.7629C175.731 88.8139 171.387 98.5265 165.189 106.559C164.93 106.895 164.668 107.228 164.403 107.558C163.806 108.3 163.194 109.028 162.566 109.742C161.798 110.621 161.008 111.481 160.195 112.32C159.534 113.01 158.857 113.686 158.164 114.347C157.63 114.863 157.089 115.368 156.543 115.864C149.966 121.857 142.411 126.804 134.627 131.129C119.436 139.568 102.785 145.961 85.4657 146.891C68.1488 147.82 50.0707 142.818 37.371 130.905C20.2553 114.851 15.4784 88.0743 22.4274 65.567C27.0493 50.5932 36.4827 37.0473 49.3212 28.2002C62.0487 19.4301 78.105 15.4826 93.3007 18.063C105.431 10.6274 121.312 10.4851 134.5 15.9889C141.537 18.9262 147.852 23.2938 153.392 28.5712C155.929 30.9931 158.303 33.5832 160.498 36.324C160.723 36.6017 160.945 36.8817 161.164 37.164C162.085 38.3375 162.976 39.5352 163.836 40.7569C165.072 42.5091 166.244 44.3001 167.355 46.13C167.66 46.634 167.963 47.1403 168.259 47.6512C168.458 47.9942 168.659 48.3395 168.856 48.6871C168.86 48.6942 168.864 48.7021 168.865 48.7104C171.944 54.1722 174.461 60.0002 175.773 66.0919C176.004 67.1698 176.198 68.2524 176.349 69.3443V69.3466C176.48 70.2728 176.58 71.2037 176.647 72.1393C176.805 74.345 176.787 76.56 176.594 78.7629Z" fill="#3F3D56"/>
<path opacity="0.3" d="M131.403 93.9575L97.0597 65.1024L130.423 95.1133C130.488 95.223 130.577 95.3157 130.685 95.3835C130.792 95.4514 130.914 95.4925 131.04 95.5034C131.166 95.5143 131.293 95.4948 131.41 95.4464C131.527 95.398 131.631 95.3221 131.713 95.2251C131.795 95.128 131.853 95.0126 131.883 94.8884C131.912 94.7642 131.911 94.6348 131.881 94.5108C131.85 94.3869 131.791 94.2721 131.708 94.1758C131.625 94.0796 131.52 94.0048 131.403 93.9575Z" fill="#F0F0F0"/>
<path d="M52.6454 79.2738C64.0158 79.2738 73.2333 69.9773 73.2333 58.5094C73.2333 47.0415 64.0158 37.7449 52.6454 37.7449C41.275 37.7449 32.0575 47.0415 32.0575 58.5094C32.0575 69.9773 41.275 79.2738 52.6454 79.2738Z" fill="#F2F2F2"/>
<path d="M70.92 57.1095C70.9202 59.5913 70.4357 62.0488 69.4941 64.3417C68.5526 66.6346 67.1724 68.718 65.4324 70.4729C63.6925 72.2277 61.6268 73.6198 59.3534 74.5694C57.08 75.519 54.6434 76.0077 52.1827 76.0075C49.9895 76.0063 47.8133 75.6194 45.7519 74.8643C42.5287 73.68 39.6893 71.6265 37.5431 68.9274C35.3968 66.2284 34.0258 62.9871 33.5795 59.5567C33.1331 56.1262 33.6283 52.638 35.0114 49.4717C36.3944 46.3055 38.6122 43.5826 41.4233 41.5995C44.2344 39.6165 47.531 38.4492 50.9542 38.2249C54.3775 38.0005 57.7962 38.7277 60.838 40.3272C63.8799 41.9266 66.4284 44.3372 68.2061 47.2963C69.9838 50.2554 70.9225 53.6496 70.92 57.1095Z" fill="white"/>
<path d="M48.9442 56.6429C52.1381 56.6429 54.7273 54.0315 54.7273 50.8102C54.7273 47.5888 52.1381 44.9774 48.9442 44.9774C45.7502 44.9774 43.1611 47.5888 43.1611 50.8102C43.1611 54.0315 45.7502 56.6429 48.9442 56.6429Z" fill="#E4E4E4"/>
<path d="M70.1891 51.867C68.9357 52.4752 67.507 52.6074 66.1648 52.2395C64.8226 51.8715 63.6569 51.0281 62.8812 49.8637C62.1056 48.6993 61.7719 47.2919 61.9415 45.8996C62.1111 44.5072 62.7725 43.2232 63.8045 42.2827C66.8713 44.728 69.1036 48.0791 70.1891 51.867Z" fill="#F2F2F2"/>
<path d="M58.4285 65.5086C59.5783 65.5086 60.5104 64.5685 60.5104 63.4088C60.5104 62.2492 59.5783 61.3091 58.4285 61.3091C57.2787 61.3091 56.3466 62.2492 56.3466 63.4088C56.3466 64.5685 57.2787 65.5086 58.4285 65.5086Z" fill="#E4E4E4"/>
<path d="M49.8695 75.3076C49.8693 75.4919 49.8452 75.6755 49.7978 75.8535C48.4164 75.6792 47.0591 75.3474 45.7519 74.8643C45.8605 74.3577 46.151 73.9094 46.5675 73.6058C46.984 73.3022 47.4972 73.1646 48.0082 73.2197C48.5192 73.2747 48.992 73.5184 49.3356 73.9038C49.6792 74.2893 49.8694 74.7893 49.8695 75.3076Z" fill="#F2F2F2"/>
<path d="M37.6093 56.1763C37.6092 57.2416 37.2077 58.267 36.4861 59.045C35.7646 59.823 34.7769 60.2954 33.723 60.3665C33.246 57.5932 33.3851 54.7476 34.1301 52.035C35.1021 52.1985 35.9852 52.7043 36.6222 53.4626C37.2592 54.2208 37.609 55.1824 37.6093 56.1763Z" fill="#F2F2F2"/>
<path d="M140.288 49.5047C140.761 49.5047 141.145 49.118 141.145 48.6409C141.145 48.1639 140.761 47.7772 140.288 47.7772C139.815 47.7772 139.432 48.1639 139.432 48.6409C139.432 49.118 139.815 49.5047 140.288 49.5047Z" fill="#006C61"/>
<path d="M132.388 28.4897C132.664 28.4897 132.888 28.2638 132.888 27.985C132.888 27.7063 132.664 27.4804 132.388 27.4804C132.111 27.4804 131.887 27.7063 131.887 27.985C131.887 28.2638 132.111 28.4897 132.388 28.4897Z" fill="#F0F0F0"/>
<path d="M52.118 127.413C52.3943 127.413 52.6184 127.187 52.6184 126.908C52.6184 126.629 52.3943 126.403 52.118 126.403C51.8417 126.403 51.6176 126.629 51.6176 126.908C51.6176 127.187 51.8417 127.413 52.118 127.413Z" fill="#F0F0F0"/>
<path d="M135.228 77.8685C135.504 77.8685 135.729 77.6425 135.729 77.3638C135.729 77.0851 135.504 76.8592 135.228 76.8592C134.952 76.8592 134.728 77.0851 134.728 77.3638C134.728 77.6425 134.952 77.8685 135.228 77.8685Z" fill="#F0F0F0"/>
<path d="M70.6597 82.6346C71.1327 82.6346 71.5161 82.2479 71.5161 81.7708C71.5161 81.2937 71.1327 80.907 70.6597 80.907C70.1867 80.907 69.8032 81.2937 69.8032 81.7708C69.8032 82.2479 70.1867 82.6346 70.6597 82.6346Z" fill="#006C61"/>
<path d="M39.6621 101.248C41.8957 101.248 43.7064 99.4219 43.7064 97.1692C43.7064 94.9165 41.8957 93.0902 39.6621 93.0902C37.4286 93.0902 35.6179 94.9165 35.6179 97.1692C35.6179 99.4219 37.4286 101.248 39.6621 101.248Z" fill="#006C61"/>
<path d="M61.8336 102.215C62.11 102.215 62.334 101.989 62.334 101.711C62.334 101.432 62.11 101.206 61.8336 101.206C61.5573 101.206 61.3333 101.432 61.3333 101.711C61.3333 101.989 61.5573 102.215 61.8336 102.215Z" fill="#F0F0F0"/>
<path d="M112.725 23.3569C113.001 23.3569 113.225 23.131 113.225 22.8523C113.225 22.5735 113.001 22.3476 112.725 22.3476C112.449 22.3476 112.225 22.5735 112.225 22.8523C112.225 23.131 112.449 23.3569 112.725 23.3569Z" fill="#F0F0F0"/>
<path d="M82.8842 130.912C83.1605 130.912 83.3846 130.686 83.3846 130.408C83.3846 130.129 83.1605 129.903 82.8842 129.903C82.6078 129.903 82.3838 130.129 82.3838 130.408C82.3838 130.686 82.6078 130.912 82.8842 130.912Z" fill="#F0F0F0"/>
<path d="M75.4818 28.0231C75.7582 28.0231 75.9822 27.7971 75.9822 27.5184C75.9822 27.2397 75.7582 27.0138 75.4818 27.0138C75.2055 27.0138 74.9814 27.2397 74.9814 27.5184C74.9814 27.7971 75.2055 28.0231 75.4818 28.0231Z" fill="#F0F0F0"/>
<path d="M88.436 52.5205C88.7123 52.5205 88.9364 52.2946 88.9364 52.0159C88.9364 51.7371 88.7123 51.5112 88.436 51.5112C88.1596 51.5112 87.9356 51.7371 87.9356 52.0159C87.9356 52.2946 88.1596 52.5205 88.436 52.5205Z" fill="#F0F0F0"/>
<path d="M68.6066 112.631C68.883 112.631 69.107 112.406 69.107 112.127C69.107 111.848 68.883 111.622 68.6066 111.622C68.3303 111.622 68.1063 111.848 68.1063 112.127C68.1063 112.406 68.3303 112.631 68.6066 112.631Z" fill="#F0F0F0"/>
<path d="M127.132 115.898C127.408 115.898 127.632 115.672 127.632 115.393C127.632 115.114 127.408 114.888 127.132 114.888C126.855 114.888 126.631 115.114 126.631 115.393C126.631 115.672 126.855 115.898 127.132 115.898Z" fill="#F0F0F0"/>
<path d="M101.223 86.5009C101.5 86.5009 101.724 86.275 101.724 85.9962C101.724 85.7175 101.5 85.4916 101.223 85.4916C100.947 85.4916 100.723 85.7175 100.723 85.9962C100.723 86.275 100.947 86.5009 101.223 86.5009Z" fill="#F0F0F0"/>
<path d="M114.409 52.4378C114.685 52.4378 114.909 52.2119 114.909 51.9332C114.909 51.6544 114.685 51.4285 114.409 51.4285C114.133 51.4285 113.909 51.6544 113.909 51.9332C113.909 52.2119 114.133 52.4378 114.409 52.4378Z" fill="#F0F0F0"/>
<path d="M138.381 69.2796C138.929 69.2796 139.373 68.8316 139.373 68.279C139.373 67.7263 138.929 67.2783 138.381 67.2783C137.833 67.2783 137.389 67.7263 137.389 68.279C137.389 68.8316 137.833 69.2796 138.381 69.2796Z" fill="#FF6584"/>
<path d="M98.1307 36.1497C98.6787 36.1497 99.1229 35.7017 99.1229 35.1491C99.1229 34.5964 98.6787 34.1484 98.1307 34.1484C97.5828 34.1484 97.1386 34.5964 97.1386 35.1491C97.1386 35.7017 97.5828 36.1497 98.1307 36.1497Z" fill="#FF6584"/>
<path d="M98.1307 104.976C98.6787 104.976 99.1229 104.528 99.1229 103.975C99.1229 103.423 98.6787 102.975 98.1307 102.975C97.5828 102.975 97.1386 103.423 97.1386 103.975C97.1386 104.528 97.5828 104.976 98.1307 104.976Z" fill="#FF6584"/>
<path d="M159.943 109.742C159.557 109.742 159.181 109.869 158.872 110.104C158.564 110.339 158.34 110.669 158.234 111.044C158.187 111.204 158.163 111.371 158.164 111.538V114.347C158.856 113.687 159.533 113.011 160.195 112.32C161.007 111.48 161.798 110.62 162.566 109.742H159.943Z" fill="#006C61"/>
<path d="M166.242 124.338C163.255 124.338 159.981 124.224 156.421 123.996C138.004 122.816 114.149 118.716 89.2494 112.449C64.3501 106.183 41.3813 98.4986 24.5743 90.8133C16.3871 87.0694 10.1035 83.5256 5.89824 80.28C1.44592 76.844 -0.501594 73.8491 0.109583 71.3786C1.30044 66.5657 11.8449 65.5127 20.481 65.477L20.4839 66.1769C8.62433 66.226 1.62777 68.1336 0.78301 71.5481C-0.29308 75.897 8.48303 82.6865 24.8609 90.1758C41.6309 97.8442 64.5575 105.513 89.4174 111.77C114.277 118.027 138.088 122.12 156.465 123.297C174.41 124.447 185.321 122.612 186.397 118.263C187.29 114.652 181.401 109.333 169.813 103.285L170.132 102.664C178.552 107.058 188.325 113.361 187.07 118.433C186.459 120.903 183.345 122.624 177.814 123.547C174.661 124.074 170.788 124.338 166.242 124.338Z" fill="#006C61"/>
<path d="M165.301 72.1579C178.14 72.1579 188.549 61.6601 188.549 48.7104C188.549 35.7607 178.14 25.2628 165.301 25.2628C152.461 25.2628 142.052 35.7607 142.052 48.7104C142.052 61.6601 152.461 72.1579 165.301 72.1579Z" fill="white"/>
<path d="M165.3 24.9129C160.634 24.9129 156.072 26.3086 152.192 28.9235C148.312 31.5384 145.287 35.255 143.501 39.6035C141.716 43.9519 141.248 48.7368 142.159 53.353C143.069 57.9693 145.316 62.2096 148.616 65.5378C151.916 68.8659 156.12 71.1324 160.697 72.0506C165.274 72.9689 170.019 72.4976 174.33 70.6964C178.641 68.8952 182.326 65.845 184.919 61.9316C187.512 58.0181 188.896 53.4171 188.896 48.7104C188.907 45.5821 188.304 42.4825 187.122 39.5902C185.94 36.6978 184.203 34.07 182.01 31.8579C179.816 29.6459 177.211 27.8934 174.343 26.7014C171.475 25.5095 168.402 24.9016 165.3 24.9129ZM165.3 71.808C160.771 71.808 156.343 70.4533 152.577 67.9153C148.811 65.3773 145.876 61.77 144.143 57.5494C142.409 53.3289 141.956 48.6848 142.839 44.2043C143.723 39.7238 145.904 35.6082 149.107 32.3779C152.31 29.1477 156.39 26.9478 160.833 26.0566C165.275 25.1654 169.88 25.6228 174.064 27.371C178.249 29.1192 181.826 32.0797 184.342 35.8781C186.859 39.6764 188.202 44.1421 188.202 48.7104C188.213 51.7469 187.629 54.7557 186.482 57.5634C185.335 60.371 183.649 62.922 181.52 65.0691C179.391 67.2163 176.862 68.9172 174.078 70.0738C171.294 71.2304 168.311 71.8198 165.3 71.808Z" fill="#2F2E41"/>
<path d="M144.899 54.3263C144.792 54.3262 144.689 54.289 144.607 54.2211C144.524 54.1532 144.468 54.0587 144.446 53.9536C143.781 50.5372 143.901 47.0125 144.797 43.6502C145.693 40.2879 147.341 37.1774 149.614 34.5574C149.696 34.4654 149.81 34.4099 149.933 34.403C150.055 34.3961 150.175 34.4384 150.266 34.5206C150.358 34.6027 150.413 34.7181 150.42 34.8414C150.428 34.9646 150.386 35.0858 150.305 35.1782C148.126 37.689 146.547 40.6698 145.689 43.8919C144.83 47.114 144.715 50.4917 145.352 53.7656C145.366 53.8335 145.365 53.9036 145.348 53.9708C145.332 54.0381 145.301 54.1008 145.257 54.1545C145.214 54.2082 145.159 54.2514 145.097 54.2811C145.035 54.3109 144.967 54.3263 144.899 54.3263Z" fill="#2F2E41"/>
<path d="M165.286 70.4944C173.447 70.4944 180.062 63.8221 180.062 55.5914C180.062 47.3606 173.447 40.6883 165.286 40.6883C157.125 40.6883 150.51 47.3606 150.51 55.5914C150.51 63.8221 157.125 70.4944 165.286 70.4944Z" fill="#006C61"/>
<path d="M160.59 61.2178C159.632 61.191 158.44 61.1575 157.522 60.4809C157.248 60.2711 157.023 60.0036 156.863 59.6971C156.703 59.3906 156.611 59.0524 156.594 58.7063C156.578 58.4604 156.618 58.2139 156.711 57.9861C156.805 57.7583 156.949 57.5555 157.133 57.3933C157.613 56.9846 158.313 56.8887 159.068 57.1124L158.286 51.3482L158.86 51.2689L159.78 58.0454L159.3 57.8235C158.744 57.5664 157.982 57.4356 157.507 57.8397C157.391 57.9453 157.3 58.0766 157.242 58.2234C157.184 58.3701 157.161 58.5283 157.173 58.6858C157.187 58.9434 157.256 59.1948 157.375 59.4232C157.494 59.6515 157.661 59.8512 157.863 60.0089C158.578 60.5354 159.528 60.6033 160.606 60.6337L160.59 61.2178Z" fill="#2F2E41"/>
<path d="M155.447 51.8453H152.326V52.4298H155.447V51.8453Z" fill="#2F2E41"/>
<path d="M165.298 51.8453H162.177V52.4298H165.298V51.8453Z" fill="#2F2E41"/>
<path d="M165.907 74.1784H152.513C152.014 74.1788 151.535 74.3791 151.182 74.7351C150.829 75.0912 150.63 75.574 150.63 76.0775V106.018C150.631 108.047 151.183 110.037 152.225 111.772C153.267 113.508 154.76 114.923 156.543 115.864C157.091 115.369 157.631 114.864 158.164 114.347C158.856 113.687 159.533 113.011 160.195 112.32C161.007 111.48 161.797 110.62 162.566 109.742C163.195 109.028 163.808 108.3 164.403 107.558C164.669 107.229 164.931 106.896 165.189 106.559C171.387 98.5265 175.731 88.8138 176.594 78.7629C175.21 77.3122 173.551 76.1583 171.714 75.3705C169.878 74.5827 167.902 74.1772 165.907 74.1784Z" fill="#2F2E41"/>
<path d="M166.395 80.4264C166.076 80.1117 165.699 79.8637 165.285 79.6968C164.871 79.5298 164.428 79.4471 163.982 79.4535C163.207 79.4594 162.458 79.7365 161.863 80.2374C161.768 80.3151 161.678 80.3984 161.592 80.4871L150.63 91.8259L142.679 100.05C142.559 100.173 142.459 100.315 142.383 100.47C142.264 100.71 142.203 100.976 142.205 101.245C142.207 101.466 142.253 101.684 142.34 101.887C142.426 102.09 142.552 102.274 142.709 102.427L143.022 102.735L145.289 104.964L145.291 104.961C145.595 105.211 145.977 105.345 146.369 105.341C146.588 105.339 146.805 105.293 147.006 105.206C147.207 105.118 147.389 104.992 147.542 104.833L147.91 104.455L150.542 101.732L150.63 101.641L166.455 85.2722C167.084 84.6215 167.431 83.7455 167.42 82.8368C167.408 81.9281 167.04 81.0611 166.395 80.4264Z" fill="#006C61"/>
<path d="M166.283 48.6386C166.772 47.5965 166.271 46.4834 165.413 45.8177C164.331 44.9789 162.933 45.1176 161.702 45.5146C160.355 45.9493 159.039 46.7316 157.584 46.6866C157.065 46.6773 156.562 46.5102 156.139 46.2072C155.716 45.9042 155.394 45.4795 155.214 44.9887C154.435 42.9731 155.315 40.7203 156.671 39.1917C157.437 38.3163 158.384 37.6207 159.445 37.1537C160.505 36.6867 161.655 36.4597 162.812 36.4886C164.133 36.5547 165.417 36.9494 166.55 37.6374C167.682 38.3255 168.629 39.2856 169.305 40.4321C169.353 40.5104 169.429 40.5671 169.517 40.5904C169.605 40.6138 169.699 40.6021 169.779 40.5577C170.809 40.0935 171.919 39.8397 173.047 39.8111C174.174 39.7825 175.296 39.9796 176.347 40.391C177.925 41.0395 179.269 42.1566 180.202 43.5939C181.135 45.0313 181.613 46.7208 181.571 48.4383C181.559 48.8888 182.253 48.8886 182.265 48.4383C182.308 46.0373 181.43 43.7123 179.813 41.9494C178.992 41.0703 178.005 40.3662 176.91 39.8786C175.814 39.391 174.633 39.1298 173.436 39.1105C172.054 39.0809 170.684 39.3691 169.429 39.9533L169.904 40.0789C169.278 39.0169 168.438 38.0997 167.438 37.3871C166.437 36.6745 165.299 36.1823 164.098 35.9428C162.908 35.7189 161.685 35.7557 160.51 36.0506C159.336 36.3456 158.238 36.8919 157.291 37.6524C155.51 39.0585 154.16 41.2407 154.244 43.5809C154.28 44.5936 154.578 45.6331 155.275 46.3877C156.168 47.3543 157.501 47.5215 158.733 47.2738C160.37 46.9447 161.864 45.859 163.57 45.8924C163.904 45.8926 164.235 45.9644 164.54 46.1029C164.844 46.2415 165.116 46.4437 165.338 46.6962C165.714 47.124 165.94 47.7392 165.684 48.2853C165.494 48.6903 166.092 49.046 166.283 48.6386Z" fill="#2F2E41"/>
<path d="M55.5328 132.836C47.2978 132.836 39.6421 132.551 32.7884 131.976C23.83 131.224 16.7311 130.015 11.6892 128.384C6.35095 126.656 3.51891 124.495 3.27166 121.961C2.78981 117.025 12.3706 112.46 20.4927 109.499L20.7285 110.158C9.57481 114.223 3.62046 118.39 3.96225 121.893C4.39756 126.353 14.9252 129.774 32.8459 131.278C51.1958 132.818 75.3442 132.273 100.843 129.741C126.342 127.21 150.133 122.997 167.833 117.878C185.119 112.879 194.783 107.454 194.348 102.993C193.986 99.2897 186.667 96.2755 173.739 94.5057L173.832 93.8121C183.226 95.0981 194.531 97.7228 195.039 102.925C195.286 105.459 192.926 108.135 188.024 110.879C183.394 113.471 176.665 116.052 168.024 118.551C150.285 123.681 126.451 127.902 100.911 130.438C84.8898 132.028 69.3943 132.836 55.5328 132.836Z" fill="#006C61"/>
<path d="M193.956 105.448C196.189 105.448 198 103.621 198 101.369C198 99.116 196.189 97.2898 193.956 97.2898C191.722 97.2898 189.911 99.116 189.911 101.369C189.911 103.621 191.722 105.448 193.956 105.448Z" fill="#006C61"/>
<path d="M76.6741 8.1579C78.9077 8.1579 80.7184 6.33169 80.7184 4.07895C80.7184 1.82621 78.9077 0 76.6741 0C74.4405 0 72.6298 1.82621 72.6298 4.07895C72.6298 6.33169 74.4405 8.1579 76.6741 8.1579Z" fill="#E6E6E6"/>
<path d="M4.50077 105.214C6.73436 105.214 8.54504 103.388 8.54504 101.135C8.54504 98.8827 6.73436 97.0565 4.50077 97.0565C2.26719 97.0565 0.456512 98.8827 0.456512 101.135C0.456512 103.388 2.26719 105.214 4.50077 105.214Z" fill="#E6E6E6"/>
<path d="M29.4838 27.807C30.8511 27.807 31.9596 26.6891 31.9596 25.3101C31.9596 23.931 30.8511 22.8131 29.4838 22.8131C28.1165 22.8131 27.0081 23.931 27.0081 25.3101C27.0081 26.6891 28.1165 27.807 29.4838 27.807Z" fill="#FF6584"/>
<path d="M17.9176 122.53C19.2849 122.53 20.3933 121.412 20.3933 120.033C20.3933 118.654 19.2849 117.536 17.9176 117.536C16.5503 117.536 15.4419 118.654 15.4419 120.033C15.4419 121.412 16.5503 122.53 17.9176 122.53Z" fill="#FF6584"/>
<path d="M186.785 81.7014C188.152 81.7014 189.26 80.5834 189.26 79.2044C189.26 77.8254 188.152 76.7075 186.785 76.7075C185.417 76.7075 184.309 77.8254 184.309 79.2044C184.309 80.5834 185.417 81.7014 186.785 81.7014Z" fill="#FF6584"/>
<path d="M149.31 143.71C151.544 143.71 153.354 141.884 153.354 139.631C153.354 137.379 151.544 135.552 149.31 135.552C147.076 135.552 145.266 137.379 145.266 139.631C145.266 141.884 147.076 143.71 149.31 143.71Z" fill="#E6E6E6"/>
</g>
<defs>
<clipPath id="clip0_415_56">
<rect width="198" height="147" fill="white"/>
</clipPath>
</defs>
</svg>
