<svg width="360" height="525" viewBox="0 0 360 525" fill="none" xmlns="http://www.w3.org/2000/svg">
<path opacity="0.1" d="M172.479 237.666H92.5139C89.682 237.666 87.3862 239.964 87.3862 242.799V259.834C87.3862 262.668 89.682 264.966 92.5139 264.966H172.479C175.311 264.966 177.607 262.668 177.607 259.834V242.799C177.607 239.964 175.311 237.666 172.479 237.666Z" fill="#006C61"/>
<path opacity="0.1" d="M172.479 196.709H92.5139C89.682 196.709 87.3862 199.007 87.3862 201.842V218.877C87.3862 221.711 89.682 224.009 92.5139 224.009H172.479C175.311 224.009 177.607 221.711 177.607 218.877V201.842C177.607 199.007 175.311 196.709 172.479 196.709Z" fill="#006C61"/>
<path opacity="0.1" d="M172.479 142.102H92.5139C89.682 142.102 87.3862 144.4 87.3862 147.235V164.27C87.3862 167.104 89.682 169.402 92.5139 169.402H172.479C175.311 169.402 177.607 167.104 177.607 164.27V147.235C177.607 144.4 175.311 142.102 172.479 142.102Z" fill="#006C61"/>
<path opacity="0.1" d="M172.479 101.152H92.5139C89.682 101.152 87.3862 103.45 87.3862 106.285V123.32C87.3862 126.154 89.682 128.452 92.5139 128.452H172.479C175.311 128.452 177.607 126.154 177.607 123.32V106.285C177.607 103.45 175.311 101.152 172.479 101.152Z" fill="#006C61"/>
<path d="M51.6307 221.743L19.8848 416.546L163.431 401.349L157.22 384.77L45.0745 394.095L71.2994 221.398L51.6307 221.743Z" fill="#3F3D56"/>
<path d="M14.3638 0.690789L207.6 0L263.5 423.454L69.574 449.704L14.3638 0.690789Z" fill="#3F3D56"/>
<path d="M35.4127 16.9243H191.382L245.902 410.674L85.1019 432.78L35.4127 16.9243Z" fill="white"/>
<path d="M182.507 392.962C183.487 394.841 184.218 396.872 185.495 398.565C189.222 403.552 196.295 404.333 201.602 407.587C201.868 407.721 202.087 407.933 202.23 408.194C202.472 408.768 201.934 409.369 201.416 409.728C197.393 412.553 192.113 412.615 187.193 412.581C185.539 412.64 183.885 412.482 182.272 412.111C179.67 411.42 177.441 409.604 174.874 408.864C173.543 408.532 172.18 408.339 170.809 408.291L165.419 407.925C163.984 407.904 162.563 407.64 161.216 407.144C160.545 406.887 159.95 406.464 159.487 405.915C159.023 405.365 158.706 404.707 158.566 404.001C158.414 402.855 158.904 401.742 159.194 400.623C159.884 397.971 159.67 394.765 161.734 392.956C162.584 392.304 163.559 391.834 164.598 391.574C168.349 390.309 172.178 389.289 176.061 388.521C179.256 387.892 181.092 390.241 182.507 392.962Z" fill="#3F3D56"/>
<path d="M121.541 407.904C121.679 409.376 121.72 411.061 120.657 412.09C119.996 412.641 119.196 412.999 118.345 413.127C113.245 414.315 107.559 414.398 103.121 411.621C102.659 411.357 102.252 411.007 101.92 410.591C101.55 410.025 101.34 409.368 101.313 408.692C101.154 406.737 101.755 404.81 102.3 402.924C103.59 398.449 104.57 393.89 105.233 389.281C105.288 388.901 118.256 391.353 119.118 392.638C120.202 394.227 120.209 398.04 120.499 399.933C120.936 402.576 121.283 405.233 121.541 407.904Z" fill="#3F3D56"/>
<path d="M169.808 228.147L173.259 260.262C173.949 266.824 174.674 273.421 174.197 280.005C173.645 287.603 171.52 295.202 172.417 302.732C172.769 305.661 173.569 308.534 173.687 311.484C173.709 313.445 173.61 315.406 173.39 317.356C171.83 336.843 176.765 356.178 179.525 375.527C179.969 377.914 180.067 380.352 179.815 382.766C179.456 385.219 178.738 388.438 180.919 389.598L160.436 397.031C157.821 393.75 159.553 388.645 159.056 384.48C158.601 380.729 156.544 377.385 155.447 373.772C154.453 370.526 154.246 367.106 153.921 363.735C152.134 345.381 146.648 327.503 145.364 309.108C145.323 307.331 145.091 305.564 144.674 303.837C143.984 301.55 142.603 299.554 141.596 297.406C140.05 294.18 139.291 290.643 138.545 287.147L134.163 266.596C129.733 273.2 129.912 281.794 129.035 289.71C127.807 300.763 125.06 311.629 122.824 322.543C122.305 324.892 121.915 327.267 121.658 329.659C121.078 336.062 122.231 342.528 121.617 348.925C120.926 356.337 117.814 363.569 118.566 370.982C118.98 375.085 120.554 378.967 121.617 382.946C122.679 386.925 123.204 391.291 121.582 395.083C115.914 393 109.825 392.327 103.839 393.121C97.262 386.386 96.0957 376.991 95.6471 367.562C95.1985 358.133 96.282 348.69 95.1088 339.35C94.7637 336.587 94.2254 333.893 94.1357 331.137C93.8459 322.302 98.0901 314.033 100.202 305.446C102.102 297.717 102.284 289.664 100.733 281.856C99.6981 276.696 97.9176 271.688 97.2827 266.458C96.42 259.129 97.8831 251.744 99.3531 244.505C100.34 239.621 101.32 234.737 102.438 229.881C103.639 224.665 105.067 219.339 108.276 215.07C113.411 208.238 122.528 205.206 131.051 205.869C139.574 206.532 147.531 210.414 154.57 215.25C160.118 218.961 165.23 223.288 169.808 228.147Z" fill="#192534"/>
<path d="M146.91 105.173C146.523 105.795 146.254 106.484 146.116 107.204C145.944 108.62 146.806 109.918 147.496 111.155C148.381 112.744 149.06 114.438 149.518 116.198C149.847 117.287 149.948 118.432 149.815 119.562C149.647 120.41 149.344 121.227 148.918 121.98C147.586 124.549 145.612 126.926 142.928 127.996C140.849 128.763 138.582 128.854 136.447 128.259C134.328 127.658 132.324 126.705 130.519 125.44C128.998 124.476 127.63 123.288 126.461 121.917C125.345 120.419 124.405 118.796 123.659 117.082C122.224 114.077 120.768 110.865 121.03 107.57C121.044 107.271 121.099 106.976 121.196 106.692C121.42 106.181 121.733 105.713 122.12 105.311C125.065 101.818 126.574 97.337 126.344 92.773L136.399 95.0595C138.614 95.5638 140.83 96.0681 143.017 96.6967C144.812 97.2148 147.572 97.9332 148.739 99.5358C149.905 101.138 147.703 103.708 146.91 105.173Z" fill="#FBBEBE"/>
<path d="M141.527 103.46C151.62 103.46 159.801 95.2699 159.801 85.1674C159.801 75.065 151.62 66.8753 141.527 66.8753C131.434 66.8753 123.252 75.065 123.252 85.1674C123.252 95.2699 131.434 103.46 141.527 103.46Z" fill="#FBBEBE"/>
<path d="M138.587 122.069C139.36 120.377 141.03 119.306 142.555 118.242C144.08 117.179 145.626 115.818 145.923 113.973C145.941 113.556 146.045 113.147 146.227 112.771C146.813 111.887 148.207 112.329 149.042 112.979C151.071 114.561 152.452 116.806 153.797 118.995C155.538 121.658 157.028 124.477 158.249 127.416C160.188 132.535 160.423 138.123 160.636 143.587C160.83 148.561 161.016 153.611 159.808 158.433C159.049 161.486 157.738 164.449 157.662 167.592C157.434 179.011 153.473 189.926 153.197 201.344C153.176 204.646 153.342 207.947 153.694 211.23L154.342 218.642C144.308 218.066 134.301 217.184 124.322 215.996C124.032 212.584 123.059 209.275 122.169 205.973C118.523 192.473 116.187 178.653 115.192 164.705C114.66 157.3 114.115 149.922 113.294 142.544C112.555 135.837 111.106 129.088 111.976 122.394C112.431 119.352 113.387 116.406 114.805 113.676C115.253 112.589 116.024 111.665 117.013 111.031C117.508 110.791 118.033 110.622 118.573 110.526C120.138 110.209 121.726 110.022 123.321 109.967C123.711 109.934 124.104 109.971 124.481 110.077C125.153 110.413 125.705 110.949 126.061 111.611C129.136 116.238 133.488 119.871 138.587 122.069Z" fill="#F2F2F2"/>
<path d="M130.112 120.605C131.396 122.442 134.115 122.878 135.302 124.75C135.702 125.532 136.005 126.36 136.206 127.216C136.931 129.53 138.394 131.54 139.284 133.799C140.568 137.046 140.602 140.638 140.616 144.126C140.742 146.905 140.529 149.689 139.981 152.416C139.567 154.122 138.89 155.745 138.394 157.431C137.55 160.297 137.236 163.294 137.469 166.273C137.469 166.917 137.64 167.549 137.966 168.104C138.434 168.658 139.045 169.074 139.732 169.306C141.755 170.197 143.873 171.109 146.082 170.901C146.535 170.887 146.974 170.741 147.345 170.48C147.6 170.247 147.811 169.968 147.966 169.658L149.346 167.323C150.595 165.189 151.899 162.798 151.416 160.36C151.065 159.101 150.538 157.899 149.85 156.789C148.968 154.986 148.216 153.123 147.6 151.214C145.398 144.879 143.169 138.455 142.672 131.768C142.38 129.223 142.663 126.645 143.501 124.225C144.149 122.735 144.964 121.324 145.93 120.018C145.711 119.724 145.409 119.504 145.062 119.387C144.716 119.27 144.342 119.261 143.991 119.362C143.296 119.576 142.624 119.856 141.982 120.197C139.953 121.054 137.703 120.743 135.654 120.156C134.853 119.921 133.583 119.12 132.755 119.175C132.472 119.21 130.16 120.688 130.112 120.605Z" fill="#006C61"/>
<path d="M146.268 120.529C145.854 120.197 145.212 119.893 144.846 120.28C144.723 120.448 144.634 120.638 144.584 120.84C144.225 121.807 143.169 122.284 142.21 122.657C141.251 123.03 140.216 123.237 139.636 122.525C139.453 122.248 139.363 121.92 139.379 121.588C139.395 121.257 139.517 120.939 139.726 120.681C140.15 120.169 140.662 119.736 141.237 119.403C144.411 117.16 146.574 113.754 147.255 109.925C148.145 110.634 148.734 111.653 148.904 112.778C149.132 113.877 149.16 115.01 149.387 116.108C149.725 117.683 150.478 119.154 150.65 120.75C150.74 121.6 150.65 122.456 150.65 123.306C150.681 124.137 150.778 124.964 150.94 125.779C149.325 124.066 148.187 122.056 146.268 120.529Z" fill="#F2F2F2"/>
<path d="M132.3 115.839C131.61 115.182 130.92 114.561 130.229 113.89C127.201 110.932 124.914 107.298 123.556 103.287C122.672 103.978 121.699 104.889 121.679 106.05C121.757 106.871 122.074 107.652 122.59 108.295C125.199 112.409 126.922 117.023 127.648 121.841C128.021 121.258 128.538 120.781 129.148 120.456C129.758 120.13 130.442 119.968 131.133 119.983C132.224 119.983 137.117 122.885 137.469 122.152C137.986 121.006 133.128 116.619 132.3 115.839Z" fill="#F2F2F2"/>
<path d="M147.71 110.34C154.202 116.808 162.149 121.624 170.885 124.384C171.753 124.573 172.559 124.982 173.224 125.572C173.722 126.193 174.056 126.929 174.197 127.713C175.881 134.303 176.447 141.121 177.006 147.898C177.153 149.019 177.129 150.155 176.937 151.269C176.53 153.079 175.246 154.543 173.983 155.904C170.022 160.153 165.502 164.594 164.832 170.369C164.781 171.483 164.65 172.591 164.439 173.685C164.094 174.97 163.328 176.103 162.859 177.353C160.554 183.508 165.764 190.962 162.589 196.695C164.308 200 165.487 203.559 166.082 207.237C166.188 208.631 166.507 210.001 167.027 211.299C167.972 213.274 169.919 214.532 171.451 216.134C176.123 220.928 176.696 228.264 176.972 234.958C177.144 238.73 177.089 243.061 174.211 245.534C172.548 246.978 170.277 247.448 168.104 247.807C165.212 248.29 162.065 248.636 159.505 247.206C157.669 246.184 156.42 244.394 155.226 242.667C152.962 239.372 150.692 236.084 148.545 232.706C145.15 227.38 141.948 221.294 142.928 215.05C142.652 221.439 141.306 227.878 138.173 233.445C135.04 239.013 129.995 243.662 123.873 245.5C117.752 247.337 110.595 246.038 106.033 241.562C104.544 240.028 103.266 238.302 102.231 236.43C99.6342 231.979 97.7394 227.153 96.6132 222.123C96.3165 220.818 96.0957 219.36 96.7513 218.193C97.0618 217.64 97.538 217.205 97.8624 216.659C98.9528 214.801 97.9038 212.459 96.8479 210.566C95.2399 210.718 94.0874 208.826 94.2323 207.209C94.3772 205.593 95.3434 204.19 96.0266 202.719C98.028 198.381 97.5863 193.331 96.6202 188.655C95.654 183.978 94.2116 179.329 94.322 174.556C94.4393 169.506 90.8093 164.961 88.0419 160.74C86.496 158.363 84.6947 156.153 83.349 153.659C80.5432 148.411 79.8945 142.275 81.5409 136.555C82.5072 133.618 83.7746 130.79 85.3228 128.114L87.6002 123.838C88.0242 122.816 88.6824 121.909 89.5216 121.189C90.3608 120.469 91.3575 119.956 92.4311 119.693L108.187 113.476C110.201 112.787 112.114 111.83 113.873 110.63C115.799 109.179 117.234 107.176 119.07 105.629C119.338 105.347 119.658 105.122 120.014 104.967C120.37 104.812 120.752 104.729 121.14 104.724C122.617 104.855 123.142 106.72 123.294 108.178C123.639 111.438 126.054 114.201 126.875 117.372C131.32 134.884 140.726 151.034 143.307 168.912C146.206 161.942 149.104 154.958 152.817 148.395C153.403 147.453 153.895 146.456 154.287 145.418C154.733 143.921 154.899 142.354 154.777 140.797C154.591 136.3 153.397 131.906 152.217 127.561C150.685 121.648 149.305 116.198 147.71 110.34Z" fill="#3F3D56"/>
<path d="M177.738 163.848C178.041 166.791 178.338 169.741 178.883 172.649C179.518 176.013 180.485 179.301 181.444 182.589C181.912 184.438 182.583 186.229 183.445 187.929C183.758 188.423 184.006 188.955 184.184 189.511C184.522 190.893 183.749 192.274 183.418 193.656C182.424 197.801 185.405 202.408 183.528 206.228C182.962 207.389 181.975 208.349 181.603 209.592C181.168 211.022 181.603 212.549 181.83 214.027C182.417 218.172 181.002 222.386 179.608 226.372L177.234 233.1C175.067 229.066 172.879 224.99 169.884 221.529C168.814 220.286 167.648 219.132 166.661 217.82C165.19 215.757 164.027 213.49 163.211 211.091C161.104 205.391 159.9 199.397 159.643 193.324C159.471 191.598 159.671 189.855 160.229 188.212C160.686 187.262 161.198 186.34 161.761 185.449C163.611 182.113 163.99 178.161 163.956 174.348C163.921 170.535 163.514 166.708 163.956 162.916C164.316 159.749 165.252 156.675 166.716 153.846C167.58 152.013 168.864 150.411 170.464 149.169C171.658 148.274 173.114 147.801 174.605 147.822C176.861 147.953 176.344 149.894 176.537 151.766L177.738 163.848Z" fill="#3F3D56"/>
<path d="M76.2269 154.447C74.819 158.591 73.5492 162.773 72.4173 166.991C71.3131 171.136 70.3263 175.304 69.4567 179.495C69.01 181.337 68.7602 183.222 68.7114 185.118C68.7997 187.325 69.1779 189.51 69.8363 191.618C74.2807 207.651 82.3828 222.441 91.5063 236.347C94.1133 233.092 97.2098 230.263 100.685 227.96C100.969 227.792 101.207 227.554 101.375 227.27C101.463 227.001 101.488 226.716 101.45 226.436C101.412 226.156 101.311 225.889 101.154 225.653C98.6353 220.486 94.6464 215.934 93.3903 210.318C92.8658 207.983 92.8451 205.551 92.2516 203.23C91.4856 200.225 89.7741 197.476 89.3807 194.395C88.9597 191.038 90.0708 187.377 88.4973 184.399C91.7064 183.149 93.5629 179.84 94.9224 176.669C96.3751 173.426 97.4139 170.012 98.0142 166.508C98.9592 159.791 97.6457 152.95 94.2806 147.062C92.637 144.125 90.5276 141.475 88.0349 139.215C87.2137 138.476 85.2744 136.355 84.0805 136.376C82.4863 136.41 81.9756 138.994 81.5201 140.154C79.6775 144.893 77.8556 149.639 76.2269 154.447Z" fill="#3F3D56"/>
<path d="M104.812 231.767C105.019 231.919 105.254 232.126 105.198 232.375C105.143 232.623 104.943 232.686 104.764 232.789C103.831 233.452 103.134 234.396 102.776 235.483C101.629 238.07 100.629 240.72 99.7809 243.42C98.2366 241.104 96.42 238.982 94.3703 237.1C92.7968 235.649 91.037 234.274 90.1951 232.312C90.1951 232.257 93.8113 229.584 94.1426 229.294C95.1571 228.389 96.4338 225.881 97.4828 225.329C98.6698 224.707 99.8016 227.145 100.706 228.126C101.949 229.474 103.325 230.694 104.812 231.767Z" fill="#FBBEBE"/>
<path d="M160.933 82.3076C160.885 81.4026 160.768 80.401 160.077 79.8138C159.472 79.3944 158.742 79.1923 158.007 79.2405C153.984 79.1092 149.822 79.7862 146.026 78.4322C143.528 77.5411 141.396 75.828 138.96 74.7641C136.523 73.7003 133.404 73.4171 131.437 75.2062C129.946 76.5878 129.539 78.7086 129.022 80.6635C127.882 84.9782 125.853 89.0066 123.066 92.4898C121.196 91.9095 119.857 90.2378 118.994 88.4832C116.061 82.501 117.503 75.3582 119.588 69.0168C120.278 66.8891 121.044 64.7822 121.81 62.6822L123.494 58.0401C125.704 57.8229 127.757 56.8001 129.263 55.1664L129.988 56.928C131.859 56.8606 133.665 56.2218 135.164 55.0974C135.744 56.1888 137.234 56.4789 138.442 56.1266C139.65 55.7743 140.692 55.0974 141.893 54.7451C145.102 53.7089 148.525 55.3046 151.892 55.4842C153.318 55.4495 154.744 55.491 156.164 55.6085C160.14 56.251 162.948 59.9951 164.163 63.8359C164.97 66.3918 165.64 69.5349 168.159 70.4398C168.214 71.4069 166.502 71.5934 166.358 72.5122C166.341 72.8185 166.412 73.1232 166.565 73.3895L168.877 78.3562C167.771 78.634 166.609 78.5762 165.536 78.1905C164.494 80.6428 161.037 84.1796 160.933 82.3076Z" fill="#192534"/>
<path d="M278.089 93.1184C279.261 96.9062 280.183 100.767 280.85 104.675C281.347 107.604 281.636 110.858 279.959 113.303C286.35 103.681 293.024 93.7678 302.734 87.5576C300.756 85.4116 299.252 82.8732 298.319 80.1074C297.386 77.3416 297.044 74.4102 297.316 71.5036C297.371 70.9234 289.345 73.9559 288.731 74.3013C285.915 75.8694 283.334 77.8174 280.588 79.4961C279.166 80.3595 273.245 82.4043 273.189 83.6408C273.189 84.4352 275.543 86.8668 275.984 87.7026C276.851 89.4392 277.556 91.2522 278.089 93.1184Z" fill="#FBBEBE"/>
<path d="M307.785 456.045C306.208 454.933 304.358 454.269 302.434 454.123C300.509 453.977 298.581 454.355 296.854 455.216C293.728 456.833 291.623 459.893 288.779 461.966C283.893 465.516 277.441 465.799 271.719 467.72C270.201 468.231 268.586 468.991 267.944 470.483C267.729 471.11 267.643 471.774 267.692 472.436C267.741 473.097 267.923 473.742 268.227 474.331C269.184 476.464 270.86 478.193 272.962 479.215C275.529 480.444 278.483 480.499 281.326 480.534L306.033 480.824C313.624 480.914 321.264 481.004 328.807 481.95C330.567 482.171 332.471 482.413 334.024 481.549C336.55 480.168 336.84 476.672 336.647 473.792C336.138 466.493 334.509 459.317 331.816 452.516C331.519 451.763 331.126 450.906 330.291 450.768C329.698 450.741 329.115 450.927 328.648 451.293C321.678 455.438 312.851 457.779 305.439 454.464" fill="white"/>
<path d="M320.153 298.269C317.392 314.316 319.193 330.805 322.299 346.783C322.871 349.965 323.624 353.11 324.556 356.206C325.667 359.729 327.164 363.113 328.206 366.657C330.857 375.637 330.484 385.239 330.09 394.613L328.282 437.27C328.13 440.848 327.992 444.509 329.069 447.922C329.504 449.303 330.035 451.03 328.938 451.963C328.509 452.271 328.007 452.464 327.482 452.522C322.544 453.433 317.443 452.667 312.989 450.346L312.499 407.255C312.347 393.971 312.189 380.632 310.146 367.514C308.524 357.083 305.708 346.79 305.522 336.235C305.329 325.182 308.034 314.275 310.795 303.56C311.388 301.267 313.555 299.588 315.336 298.034C315.957 297.421 316.713 296.962 317.544 296.694C318.372 296.466 319.642 297.571 320.153 298.269Z" fill="#3F3D56"/>
<path opacity="0.1" d="M320.153 298.269C317.392 314.316 319.193 330.805 322.299 346.783C322.871 349.965 323.624 353.11 324.556 356.206C325.667 359.729 327.164 363.113 328.206 366.657C330.857 375.637 330.484 385.239 330.09 394.613L328.282 437.27C328.13 440.848 327.992 444.509 329.069 447.922C329.504 449.303 330.035 451.03 328.938 451.963C328.509 452.271 328.007 452.464 327.482 452.522C322.544 453.433 317.443 452.667 312.989 450.346L312.499 407.255C312.347 393.971 312.189 380.632 310.146 367.514C308.524 357.083 305.708 346.79 305.522 336.235C305.329 325.182 308.034 314.275 310.795 303.56C311.388 301.267 313.555 299.588 315.336 298.034C315.957 297.421 316.713 296.962 317.544 296.694C318.372 296.466 319.642 297.571 320.153 298.269Z" fill="black"/>
<path d="M268.331 248.118C267.309 252.325 269.476 256.683 269.235 261.008C269.097 263.626 268.069 266.237 268.545 268.807C269.021 271.377 270.857 273.311 271.837 275.666C272.551 277.634 272.929 279.707 272.955 281.801C273.238 286.968 273.01 292.162 272.817 297.309C272.492 305.944 272.251 314.627 273.39 323.186C274.381 330.601 276.395 337.842 279.373 344.704C280.276 346.57 281.021 348.509 281.602 350.5C281.983 352.354 282.237 354.233 282.361 356.123C283.017 362.268 284.665 368.266 287.24 373.883C289 377.731 292.071 380.791 293.044 384.873C293.969 388.783 293.348 392.907 294.017 396.865C294.507 399.801 295.701 402.578 296.364 405.48C297.227 409.231 297.206 413.12 297.641 416.947C298.883 427.999 303.9 439.052 300.905 449.773C300.305 451.928 299.373 454.118 299.794 456.315C300.001 457.392 300.525 458.456 300.291 459.527C300.097 460.439 299.394 461.143 299.035 462.007C298.345 463.623 299.076 465.544 300.305 466.794C301.615 467.96 303.138 468.86 304.79 469.447C309.877 471.623 315.142 473.833 320.663 473.785C321.333 473.821 322.003 473.698 322.616 473.426C323.61 472.908 324.1 471.782 324.521 470.745L327.351 463.741C327.696 462.891 328.041 461.896 327.565 461.109C327.233 460.677 326.832 460.303 326.378 460.004C324.093 458.076 324.611 454.477 325.218 451.583C326.769 444.149 327.629 436.587 327.785 428.994C328.089 413.852 325.598 398.8 323.113 383.858C322.251 378.67 321.381 373.448 319.663 368.474C317.944 363.5 315.411 358.713 315.825 353.546C316.267 347.964 314.818 342.113 315.825 336.608C316.833 331.102 318.427 325.714 319.456 320.215C320.788 313.08 321.119 305.806 321.526 298.566C321.698 295.609 321.919 292.556 323.3 289.931C324.107 288.398 325.28 287.085 326.184 285.6C328.517 281.738 328.89 276.951 331.119 273.028C332.175 271.169 333.631 269.532 334.404 267.543C334.946 265.973 335.231 264.326 335.246 262.666C335.464 258.497 335.233 254.316 334.556 250.197C322.807 244.213 309.779 241.188 296.599 241.383C291.554 241.465 286.454 241.977 281.719 243.724C277.206 245.403 273.093 247.758 268.331 248.118Z" fill="#3F3D56"/>
<path d="M296.626 466.974C294.597 469.502 294.735 473.115 293.438 476.092C291.864 479.705 288.358 482.019 285.032 484.126L264.328 497.251C263.196 497.942 261.982 498.791 261.568 500.076C261.371 500.897 261.407 501.755 261.671 502.556C262.165 504.29 263.087 505.871 264.35 507.155C265.614 508.439 267.18 509.385 268.904 509.906C270.736 510.343 272.618 510.536 274.501 510.48L283.81 510.604C286.647 510.715 289.487 510.604 292.306 510.272C294.887 509.899 297.399 509.16 299.966 508.691C304.639 507.841 309.442 507.917 314.121 507.095C316.986 506.531 319.816 505.8 322.596 504.905C325.977 503.89 329.421 502.833 332.32 500.822C333.117 500.336 333.765 499.638 334.19 498.805C334.68 497.666 334.411 496.36 334.135 495.151L329.69 475.602C329.439 473.974 328.847 472.417 327.951 471.036C326.964 469.723 325.191 468.853 323.652 469.412C323.016 469.702 322.417 470.063 321.864 470.49C319.587 471.989 316.667 472.238 313.976 471.768C312.237 471.457 309.939 470.98 308.538 469.827C307.475 468.949 307.157 467.589 306.253 466.594C305.62 465.942 304.856 465.431 304.012 465.094C303.168 464.757 302.263 464.602 301.355 464.637C300.447 464.673 299.557 464.9 298.743 465.302C297.928 465.705 297.207 466.274 296.626 466.974Z" fill="white"/>
<path d="M283.203 90.4243C296.974 90.4243 308.137 79.2501 308.137 65.4661C308.137 51.682 296.974 40.5079 283.203 40.5079C269.432 40.5079 258.269 51.682 258.269 65.4661C258.269 79.2501 269.432 90.4243 283.203 90.4243Z" fill="#FBBEBE"/>
<path d="M263.969 66.9306C266.357 65.5904 266.357 61.7289 268.8 60.444C271.243 59.1592 274.018 61.3904 275.584 63.6424C277.868 66.9405 279.453 70.6712 280.243 74.6052C280.463 75.7243 280.67 76.947 281.512 77.7276C282.354 78.5082 283.459 78.6049 284.535 78.7154C287.687 79.0286 290.843 79.3141 294.004 79.572C297.523 79.8552 301.236 80.0832 304.432 78.5704C305.693 78.006 306.776 77.108 307.565 75.973C308.197 74.8832 308.649 73.6981 308.904 72.4638C310.553 66.1845 312.216 59.8293 312.354 53.3358C312.409 50.6556 312.175 47.8786 310.884 45.5299C310.132 44.1483 309.028 42.9464 308.717 41.4266C308.407 39.9069 309.407 37.9727 310.981 38.1385C309.559 38.197 308.142 37.9276 306.84 37.351C305.591 36.6602 304.666 35.175 305.108 33.821C301.602 34.27 299.049 30.8023 296.316 28.5572C295.871 28.1162 295.271 27.8681 294.646 27.8664C294.165 27.9863 293.702 28.165 293.265 28.3983C291.885 28.8819 290.443 27.9631 289.028 27.5625C285.232 26.4987 280.408 29.0684 277.592 26.3052C277.862 28.0667 275.701 29.248 273.921 29.2135C272.14 29.1789 270.305 28.5227 268.621 29.1167C268.865 29.5632 269.007 30.0581 269.038 30.5661C269.068 31.0741 268.986 31.5825 268.798 32.0551C268.609 32.5277 268.319 32.9527 267.947 33.2998C267.575 33.6468 267.131 33.9074 266.647 34.0628L267.482 35.8865C266.622 36.0586 265.827 36.4681 265.186 37.0687C264.546 37.6692 264.086 38.4369 263.859 39.2852C262.941 42.9118 263.169 48.0651 263.39 51.7954C263.5 53.4325 265.094 66.3158 263.969 66.9306Z" fill="#192534"/>
<path d="M285.246 97.6362C272.72 111.735 269.532 131.582 266.861 150.267L262.927 177.858C261.906 185.014 260.857 192.171 259.967 199.348C259.345 204.26 258.766 209.247 259.442 214.152C259.973 218.02 261.264 221.75 262.341 225.474C265.142 235.24 266.536 245.356 266.481 255.516C267.316 253.057 270.208 252.062 272.748 251.51C294.057 246.882 316.29 249.258 336.143 258.286C339.628 248.512 338.972 237.818 339.945 227.484C341.326 212.749 346.081 198.471 347.489 183.764C348.006 178.286 348.068 172.78 348.123 167.275C348.165 163.234 348.206 159.151 347.364 155.193C346.426 150.813 344.445 146.731 342.395 142.759C336.729 131.717 330.434 121.011 323.541 110.692C320.072 105.497 316.454 100.406 312.685 95.4188C310.776 92.8905 308.828 90.3898 306.84 87.9168C304.915 85.5198 304.079 83.4405 301.022 84.8773C295.246 87.5852 289.449 92.9043 285.246 97.6362Z" fill="#DADADA"/>
<path d="M292.423 214.988C289.368 215.098 286.308 215.001 283.265 214.697C281.009 214.476 278.704 214.145 276.502 214.697C275.545 214.939 274.649 215.379 273.873 215.989C273.585 216.246 273.378 216.58 273.278 216.952C273.177 217.324 273.187 217.718 273.307 218.084C273.426 218.451 273.649 218.775 273.95 219.016C274.25 219.257 274.614 219.406 274.997 219.443L277.358 219.65C278.855 219.782 280.415 219.934 281.581 221.032C282.06 221.464 282.365 222.056 282.437 222.697C282.582 224.306 281.188 225.184 279.939 225.854C278.163 226.688 276.521 227.782 275.067 229.1C273.928 230.202 273.212 231.669 273.044 233.245C273.039 233.386 273.071 233.525 273.136 233.649C273.202 233.774 273.299 233.879 273.418 233.954C273.537 234.028 273.673 234.071 273.814 234.076C273.954 234.081 274.093 234.05 274.218 233.984C276.978 232.603 278.779 228.506 281.809 229.19C279.053 230.064 276.693 231.881 275.142 234.323C274.76 234.906 274.585 235.601 274.647 236.296C274.709 236.991 275.004 237.644 275.483 238.15C275.962 238.657 276.598 238.986 277.288 239.085C277.978 239.184 278.681 239.047 279.283 238.695C279.732 238.433 280.165 238.144 280.581 237.832C282.633 236.169 284.472 234.257 286.053 232.14C283.845 236.803 281.609 242.26 284.149 246.895C284.275 247.15 284.473 247.363 284.718 247.507C284.963 247.652 285.245 247.723 285.529 247.71C286.329 247.627 286.564 246.874 286.695 246.211C287.109 244.077 287.213 241.825 288.262 239.925C290.691 235.518 296.681 235.089 301.243 232.941C306.716 230.399 310.463 224.928 311.975 219.084C312.503 217.38 312.596 215.57 312.244 213.82C311.229 209.889 306.385 208.985 303.272 210.884C299.456 213.309 297.24 214.836 292.423 214.988Z" fill="#FBBEBE"/>
<path opacity="0.1" d="M287.579 137.667C292.409 145.135 300.795 149.342 307.986 154.585C309.74 155.729 311.27 157.185 312.499 158.882C314.314 161.686 314.569 165.251 314.197 168.553C313.728 172.911 312.327 177.105 310.939 181.263L307.924 190.278C306.012 195.998 304.038 201.835 300.401 206.643C299.469 207.865 298.386 209.171 298.427 210.705C298.508 211.591 298.812 212.441 299.311 213.178C300.475 215.079 302.009 216.726 303.821 218.022C305.634 219.318 307.689 220.236 309.863 220.721C311.165 221.053 312.529 221.053 313.831 220.721C315.694 220.168 317.095 218.649 318.393 217.212C324.604 210.352 330.815 203.396 335.301 195.348C339.683 187.494 342.306 178.769 344.721 170.128C345.716 166.946 346.409 163.678 346.792 160.367C347.302 154.15 345.674 147.933 343.01 142.316C340.346 136.7 336.681 131.616 332.906 126.677C329.343 121.826 325.385 117.278 321.07 113.082C313.562 106.057 304.376 101.926 294.328 105.912C287.234 108.73 284.577 114.609 283.942 122.138C283.404 127.575 284.683 133.036 287.579 137.667Z" fill="black"/>
<path d="M290.091 135.775C294.922 143.242 303.313 147.449 310.498 152.692C312.246 153.847 313.769 155.313 314.99 157.016C316.805 159.821 317.061 163.379 316.688 166.688C316.212 171.046 314.818 175.24 313.424 179.398L310.408 188.378C308.496 194.098 306.523 199.928 302.886 204.743C301.961 205.966 300.877 207.264 300.919 208.805C300.995 209.69 301.299 210.54 301.802 211.271C302.964 213.173 304.497 214.821 306.308 216.119C308.12 217.416 310.174 218.335 312.347 218.821C313.652 219.153 315.018 219.153 316.322 218.821C318.186 218.276 319.58 216.749 320.884 215.319C327.095 208.453 333.306 201.503 337.792 193.456C342.175 185.601 344.797 176.877 347.213 168.228C348.21 165.05 348.903 161.784 349.283 158.474C349.794 152.257 348.165 146.04 345.508 140.417C342.851 134.794 339.179 129.716 335.404 124.777C331.829 119.951 327.861 115.43 323.541 111.259C316.039 104.24 306.854 100.102 296.806 104.095C289.704 106.914 287.054 112.785 286.412 120.322C285.906 125.738 287.199 131.169 290.091 135.775Z" fill="#DADADA"/>
</svg>
