<svg width="128" height="35" viewBox="0 0 128 35" fill="none" xmlns="http://www.w3.org/2000/svg">
<g clip-path="url(#clip0_262_6)">
<path d="M39.8579 16.8263C39.8579 22.5488 43.5027 26.5388 48.5532 26.5388C53.6038 26.5388 57.2486 22.5488 57.2486 16.8263C57.2486 11.1038 53.6038 7.11377 48.5532 7.11377C43.5027 7.11377 39.8579 11.1038 39.8579 16.8263ZM53.9162 16.8263C53.9162 20.9213 51.7033 23.5725 48.5532 23.5725C45.4031 23.5725 43.1902 20.9213 43.1902 16.8263C43.1902 12.7313 45.4031 10.08 48.5532 10.08C51.7033 10.08 53.9162 12.7313 53.9162 16.8263Z" fill="white"/>
<path d="M66.6327 26.5388C70.4597 26.5388 72.6465 23.2838 72.6465 19.3725C72.6465 15.4613 70.4597 12.2063 66.6327 12.2063C64.8624 12.2063 63.5607 12.915 62.7016 13.9388V12.4688H59.5775V30.975H62.7016V24.8063C63.5607 25.83 64.8624 26.5388 66.6327 26.5388ZM62.6235 18.9788C62.6235 16.38 64.0814 14.9625 66.0079 14.9625C68.2728 14.9625 69.4964 16.7475 69.4964 19.3725C69.4964 21.9975 68.2728 23.7825 66.0079 23.7825C64.0814 23.7825 62.6235 22.3388 62.6235 19.7925V18.9788Z" fill="white"/>
<path d="M81.101 26.5388C83.8346 26.5388 85.9954 25.095 86.9587 22.68L84.2772 21.6563C83.8606 23.0738 82.637 23.8613 81.101 23.8613C79.0964 23.8613 77.6906 22.4175 77.4563 20.055H87.0368V19.005C87.0368 15.225 84.928 12.2063 80.9709 12.2063C77.0137 12.2063 74.4624 15.33 74.4624 19.3725C74.4624 23.625 77.196 26.5388 81.101 26.5388ZM80.9448 14.8575C82.9234 14.8575 83.8606 16.17 83.8867 17.6925H77.6125C78.0811 15.8288 79.3307 14.8575 80.9448 14.8575Z" fill="white"/>
<path d="M89.3809 26.25H92.5049V18.165C92.5049 16.1963 93.9368 15.1463 95.3426 15.1463C97.0609 15.1463 97.7377 16.38 97.7377 18.0863V26.25H100.862V17.1675C100.862 14.2013 99.1436 12.2063 96.2798 12.2063C94.5095 12.2063 93.2859 13.02 92.5049 13.9388V12.4688H89.3809V26.25Z" fill="white"/>
<path d="M110.012 7.40247L102.93 26.25H106.237L107.825 21.945H115.895L117.509 26.25H120.868L113.787 7.40247H110.012ZM111.834 11.13L114.802 19.005H108.918L111.834 11.13Z" fill="white"/>
<path d="M126.231 7.45715H122.898V26.3047H126.231V7.45715Z" fill="white"/>
<path d="M32.2234 14.3249C33.011 11.9416 32.7398 9.33082 31.4804 7.16301C29.5864 3.83801 25.779 2.12738 22.0605 2.93238C20.4062 1.05332 18.0295 -0.0152722 15.5379 4.02676e-05C11.7369 -0.00870973 8.36446 2.45879 7.19511 6.10535C4.75335 6.60957 2.64568 8.15067 1.41233 10.3349C-0.49574 13.6511 -0.0607567 17.8314 2.4884 20.6752C1.70087 23.0585 1.97206 25.6693 3.23145 27.8371C5.12541 31.1621 8.93287 32.8727 12.6514 32.0677C14.3045 33.9468 16.6823 35.0154 19.174 34.9989C22.9771 35.0088 26.3506 32.5391 27.52 28.8893C29.9618 28.385 32.0694 26.8439 33.3028 24.6597C35.2087 21.3435 34.7726 17.1664 32.2245 14.3227L32.2234 14.3249ZM19.1761 32.7119C17.6542 32.7141 16.1801 32.1771 15.0118 31.1938C15.0649 31.1654 15.1571 31.1139 15.2168 31.0768L22.1288 27.0518C22.4824 26.8494 22.6994 26.4699 22.6972 26.0597V16.2346L25.6184 17.9354C25.6499 17.9507 25.6705 17.9813 25.6748 18.0163V26.1527C25.6705 29.7708 22.7645 32.7043 19.1761 32.7119ZM5.20026 26.693C4.43768 25.3652 4.16324 23.8088 4.42467 22.2983C4.47565 22.3289 4.56568 22.3847 4.62968 22.4219L11.5417 26.4469C11.8921 26.6536 12.326 26.6536 12.6774 26.4469L21.1157 21.5338V24.9354C21.1178 24.9704 21.1015 25.0043 21.0744 25.0261L14.0876 29.0938C10.9754 30.9007 7.00094 29.8266 5.20134 26.693H5.20026ZM3.38114 11.48C4.14046 10.15 5.33911 9.13285 6.76663 8.60457C6.76663 8.66473 6.76338 8.77082 6.76338 8.8452V16.8963C6.76121 17.3054 6.97816 17.6849 7.3307 17.8872L15.7689 22.7993L12.8477 24.5C12.8184 24.5197 12.7815 24.523 12.749 24.5088L5.76107 20.4379C2.65545 18.6244 1.59023 14.618 3.38006 11.4811L3.38114 11.48ZM27.3822 17.1118L18.944 12.1986L21.8652 10.4989C21.8945 10.4793 21.9314 10.476 21.9639 10.4902L28.9519 14.5579C32.0629 16.3702 33.1292 20.3832 31.3318 23.52C30.5714 24.8479 29.3738 25.865 27.9474 26.3944V18.1027C27.9506 17.6936 27.7348 17.3152 27.3833 17.1118H27.3822ZM30.2893 12.6996C30.2384 12.6679 30.1483 12.6132 30.0843 12.576L23.1723 8.55098C22.822 8.34426 22.3881 8.34426 22.0366 8.55098L13.5984 13.4641V10.0625C13.5962 10.0275 13.6125 9.99363 13.6396 9.97176L20.6264 5.90738C23.7386 4.09723 27.7174 5.17457 29.5116 8.31363C30.2698 9.63926 30.5443 11.1913 30.2872 12.6996H30.2893ZM12.0103 18.7622L9.08799 17.0614C9.05653 17.0461 9.03592 17.0155 9.03158 16.9805V8.8441C9.03375 5.2216 11.9485 2.28598 15.5411 2.28817C17.0609 2.28817 18.5318 2.82629 19.7001 3.80629C19.6469 3.83473 19.5558 3.88613 19.495 3.92332L12.583 7.94832C12.2294 8.15067 12.0125 8.5291 12.0146 8.93926L12.0103 18.76V18.7622ZM13.5973 15.3125L17.3559 13.1239L21.1146 15.3114V19.6875L17.3559 21.875L13.5973 19.6875V15.3125Z" fill="white"/>
<path d="M32.2234 14.3248C33.011 11.9415 32.7398 9.3307 31.4804 7.16289C29.5864 3.83789 25.779 2.12726 22.0605 2.93226C20.4062 1.0532 18.0295 -0.0153943 15.5379 -8.18027e-05C11.7369 -0.0088318 8.36446 2.45867 7.19511 6.10523C4.75335 6.60945 2.64568 8.15054 1.41233 10.3348C-0.49574 13.651 -0.0607567 17.8313 2.4884 20.6751C1.70087 23.0584 1.97206 25.6691 3.23145 27.8369C5.12541 31.1619 8.93287 32.8726 12.6514 32.0676C14.3045 33.9466 16.6823 35.0152 19.174 34.9988C22.9771 35.0087 26.3506 32.539 27.52 28.8891C29.9618 28.3849 32.0694 26.8438 33.3028 24.6596C35.2087 21.3434 34.7726 17.1663 32.2245 14.3226L32.2234 14.3248ZM19.1761 32.7118C17.6542 32.714 16.1801 32.177 15.0118 31.1937C15.0649 31.1652 15.1571 31.1138 15.2168 31.0766L22.1288 27.0516C22.4824 26.8493 22.6994 26.4698 22.6972 26.0596V16.2344L25.6184 17.9352C25.6499 17.9505 25.6705 17.9812 25.6748 18.0162V26.1526C25.6705 29.7707 22.7645 32.7041 19.1761 32.7118ZM5.20026 26.6929C4.43768 25.3651 4.16324 23.8087 4.42467 22.2982C4.47565 22.3288 4.56568 22.3846 4.62968 22.4218L11.5417 26.4468C11.8921 26.6535 12.326 26.6535 12.6774 26.4468L21.1157 21.5337V24.9352C21.1178 24.9702 21.1015 25.0041 21.0744 25.026L14.0876 29.0937C10.9754 30.9005 7.00094 29.8265 5.20134 26.6929H5.20026ZM3.38114 11.4799C4.14046 10.1499 5.33911 9.13273 6.76663 8.60445C6.76663 8.66461 6.76338 8.7707 6.76338 8.84508V16.8962C6.76121 17.3052 6.97816 17.6848 7.3307 17.8871L15.7689 22.7991L12.8477 24.4999C12.8184 24.5196 12.7815 24.5229 12.749 24.5087L5.76107 20.4377C2.65545 18.6243 1.59023 14.6179 3.38006 11.481L3.38114 11.4799ZM27.3822 17.1116L18.944 12.1985L21.8652 10.4988C21.8945 10.4791 21.9314 10.4759 21.9639 10.4901L28.9519 14.5577C32.0629 16.3701 33.1292 20.383 31.3318 23.5199C30.5714 24.8477 29.3738 25.8649 27.9474 26.3943V18.1026C27.9506 17.6935 27.7348 17.3151 27.3833 17.1116H27.3822ZM30.2893 12.6994C30.2384 12.6677 30.1483 12.613 30.0843 12.5759L23.1723 8.55086C22.822 8.34414 22.3881 8.34414 22.0366 8.55086L13.5984 13.464V10.0624C13.5962 10.0274 13.6125 9.99351 13.6396 9.97164L20.6264 5.90726C23.7386 4.09711 27.7174 5.17445 29.5116 8.31351C30.2698 9.63914 30.5443 11.1912 30.2872 12.6994H30.2893ZM12.0103 18.7621L9.08799 17.0613C9.05653 17.046 9.03592 17.0154 9.03158 16.9804V8.84398C9.03375 5.22148 11.9485 2.28586 15.5411 2.28804C17.0609 2.28804 18.5318 2.82617 19.7001 3.80617C19.6469 3.83461 19.5558 3.88601 19.495 3.9232L12.583 7.9482C12.2294 8.15054 12.0125 8.52898 12.0146 8.93914L12.0103 18.7599V18.7621ZM13.5973 15.3124L17.3559 13.1238L21.1146 15.3113V19.6874L17.3559 21.8749L13.5973 19.6874V15.3124Z" fill="white"/>
</g>
<defs>
<clipPath id="clip0_262_6">
<rect width="128" height="35" fill="white"/>
</clipPath>
</defs>
</svg>
