<svg width="152" height="186" viewBox="0 0 152 186" fill="none" xmlns="http://www.w3.org/2000/svg">
<path d="M75.1017 96.2486C97.5734 96.2486 115.79 77.4643 115.79 54.2928C115.79 31.1212 97.5734 12.3369 75.1017 12.3369C52.6299 12.3369 34.413 31.1212 34.413 54.2928C34.413 77.4643 52.6299 96.2486 75.1017 96.2486Z" fill="#FFB6B6"/>
<path d="M51.7436 102.453L49.9054 83.2925L86.6133 76.2148L108.289 130.634L70.5921 175.336L43.733 120.916L51.7436 102.453Z" fill="#FFB6B6"/>
<path d="M49.3158 92.8835L57.341 94.7533C57.341 94.7533 51.0323 74.1251 53.1736 72.1558C55.3149 70.1864 60.5623 73.2895 60.5623 73.2895L66.0764 79.6643L72.793 72.6129C72.793 72.6129 80.085 63.2634 82.94 60.6376C85.7951 58.0117 81.2092 48.2651 81.2092 48.2651C81.2092 48.2651 123.567 36.4876 107.806 15.3027C107.806 15.3027 98.5649 -1.30712 95.5555 4.10362C92.5462 9.51437 88.9578 0.921002 88.9578 0.921002L78.0004 3.06958C78.0004 3.06958 56.3744 -10.0787 35.8489 18.0493C15.3234 46.1773 49.3158 92.8835 49.3158 92.8835Z" fill="#2F2E41"/>
<path d="M151.626 157.308C129.39 175.899 101.881 186 72.8587 186C46.3578 186 21.115 177.575 0 161.958C0.0377063 161.55 0.0754087 161.147 0.108398 160.744C0.66914 154.427 1.16862 148.286 1.49845 143.193C2.77544 123.423 47.5075 110.245 47.5075 110.245C47.5075 110.245 47.7102 110.454 48.1154 110.819C50.5846 113.054 60.6072 121.158 78.1834 123.423C93.8559 125.444 99.0157 115.857 100.575 111.266C101.047 109.866 101.188 108.929 101.188 108.929L147.197 131.333C150.199 135.755 151.372 145.278 151.603 155.982C151.612 156.424 151.622 156.861 151.626 157.308Z" fill="#006C61"/>
</svg>
