<?xml version="1.0" encoding="UTF-8"?>
<svg id="_レイヤー_2" data-name="レイヤー 2" xmlns="http://www.w3.org/2000/svg" xmlns:xlink="http://www.w3.org/1999/xlink" viewBox="0 0 228 228">
  <defs>
    <style>
      .cls-1 {
        clip-path: url(#clippath);
      }

      .cls-2 {
        fill: none;
      }

      .cls-2, .cls-3, .cls-4, .cls-5 {
        stroke-width: 0px;
      }

      .cls-3 {
        fill: #2f2e41;
      }

      .cls-4 {
        fill: #a0616a;
      }

      .cls-5 {
        fill: #006c61;
      }
    </style>
    <clipPath id="clippath">
      <circle class="cls-2" cx="114" cy="114" r="114"/>
    </clipPath>
  </defs>
  <g id="_レイヤー_1-2" data-name="レイヤー 1">
    <g class="cls-1">
      <g>
        <path class="cls-4" d="m126,140c18.78,0,34-16.12,34-36s-15.22-36-34-36-34,16.12-34,36,15.22,36,34,36Z"/>
        <path class="cls-3" d="m115.16,74.74s16,4.28,24.28,6c8.28,1.71,7.43-3.14,7.43-3.14,0,0,10.86,1.43,10.28.29-.57-1.14,4.57-7.14-1.43-14-6-6.86-4.28-12-4.28-12h-5.14l-1.43-2h-8s-8.84-7.75-24.55-5.47c-15.71,2.29-34.29,8.33-36.01,17.75-.23,1.28-.54,2.7-.89,4.2-4.3,18.14,4.83,35.11,14.3,51.16,2.33,3.95,13.58,12.55,13.29,6.65-.29-5.9-10.13-19.16-3.28-20.02,6.86-.86,18.57-18.28,15.43-29.42Z"/>
        <path class="cls-5" d="m90.35,148.16h60.37l42.69,225.43s-37.22,3.18-58.49,11.16c-21.27,7.98-56.63-18.22-56.63-18.22l12.06-218.37Z"/>
        <path class="cls-3" d="m97.88,173.61v-25.46l-6.84-.04-49.94,31.75,10.84,173.97s12.83,58.04,32.28,57.44c19.45-.6,34.45-207.5,13.66-237.66Z"/>
        <path class="cls-3" d="m57.15,184.67l-16.04-4.8s-11.88,3.48-11.88,15.44-10.23,181.95-10.23,181.95l32.5,2.87,6.97-86.45-1.33-109.01Z"/>
        <path class="cls-3" d="m146.22,164.73l-3.2-16.58,9.18-1.37,33.24,13.29s29.91,218.69,16.62,225.33c-13.29,6.65-22.27,1.5-22.27,1.5,0,0-43.73-161.29-35.99-183.09l2.42-39.08Z"/>
        <path class="cls-3" d="m162.17,163.4l5.67-2.47s16.65-8.25,26.09,8.41c9.45,16.66,42.68,202.77,42.68,202.77l-27.35,5.14-20.44-66.98-26.66-146.88Z"/>
        <path class="cls-4" d="m103.69,148.16l3.41-21.42h27.27s7.77,13.14,7.77,26.28-38.45,5.84-38.45-4.87Z"/>
      </g>
    </g>
  </g>
</svg>