<svg width="164" height="186" viewBox="0 0 164 186" fill="none" xmlns="http://www.w3.org/2000/svg">
<path d="M101.262 121.537L106.794 86.0788L69.4545 70.4773L63.9227 124.373L101.262 121.537Z" fill="#A0616A"/>
<path d="M138.789 173.938C135.584 175.541 132.317 176.988 129.001 178.272C122.37 180.846 115.524 182.787 108.502 184.084C101.638 185.355 94.5917 186 87.5449 186C78.025 186 68.5601 184.829 59.4067 182.511C55.8223 181.61 52.2073 180.508 48.6535 179.224C48.2809 179.086 47.9024 178.948 47.5299 178.81C43.1211 177.17 38.7855 175.247 34.615 173.074C34.0531 172.786 33.4913 172.491 32.9296 172.178C32.3067 171.853 31.69 171.509 31.0671 171.151C30.2733 170.707 29.4855 170.243 28.6978 169.773C26.0599 168.208 23.4647 166.517 20.9855 164.757L20.8206 164.645C20.6741 164.538 20.5275 164.438 20.3871 164.332C20.4786 163.837 20.5642 163.386 20.6435 162.985C20.9488 161.413 21.1504 160.549 21.1504 160.549L37.8695 125.128L42.5288 115.258L44.8003 114.3L61.9593 107.066H103.898L117.13 112.678C117.13 112.678 117.197 112.935 117.332 113.429C118.651 118.283 126.345 145.838 138.283 172.798C138.447 173.174 138.619 173.556 138.789 173.938Z" fill="#006C61"/>
<path d="M91.8261 97.477C112.856 97.477 129.903 79.9931 129.903 58.4257C129.903 36.8583 112.856 19.3745 91.8261 19.3745C70.7967 19.3745 53.749 36.8583 53.749 58.4257C53.749 79.9931 70.7967 97.477 91.8261 97.477Z" fill="#A0616A"/>
<path d="M44.8669 113.963L44.8014 114.299L33.1926 170.907L33.0921 171.4L32.9304 172.18C32.3056 171.853 31.6896 171.507 31.0691 171.154C30.274 170.705 29.4875 170.244 28.6967 169.773C26.0621 168.21 23.4668 166.516 20.9851 164.759L20.8191 164.643C20.6749 164.54 20.5264 164.437 20.3865 164.334C18.4903 162.976 16.6422 161.56 14.8377 160.099C14.8246 160.09 14.8159 160.081 14.8027 160.068C11.5827 157.406 8.48057 154.543 5.51389 151.5C3.60022 149.537 1.76079 147.517 0 145.442L0.266543 144.295L0.292757 144.178L0.624791 142.718C3.57835 129.924 13.5706 120.107 26.1582 117.633L42.8834 114.349L44.8669 113.963Z" fill="#006C61"/>
<path d="M163.453 157.386C158.525 161.688 153.243 165.584 147.668 169.003C147.125 169.342 146.569 169.673 146.013 170.005C143.644 171.408 141.232 172.717 138.789 173.938C135.584 175.541 132.317 176.988 129.001 178.272L128.745 177.032L115.634 113.097L117.332 113.429L134.344 116.773C146.929 119.247 156.925 129.067 159.875 141.861L163.129 155.996L163.453 157.386Z" fill="#006C61"/>
<path d="M135.675 68.8647C134.686 72.6473 129.709 89.5501 116.965 93.1071C114.462 93.8086 108.49 94.6164 110.071 93.1071C110.432 92.7628 110.78 92.4246 111.128 92.0925C124.959 78.7533 130.601 70.5997 128.024 52.5007C126.387 40.9773 107.751 30.5125 97.2662 29.4729C92.8452 29.035 87.2029 30.5688 83.4781 34.5208C77.329 41.0335 78.3426 61.0242 74.9353 72.7666C74.0194 75.9101 72.792 78.4653 71.0271 80.0119C69.928 80.9764 69.2258 79.749 68.7067 77.7387C67.6016 73.4674 67.3146 65.6459 65.7452 67.8562C61.2082 74.2631 65.5314 82.7549 66.8383 86.0305C67.1069 86.7008 67.3817 87.3454 67.6564 87.9594V87.9655C67.8152 88.316 67.9801 88.667 68.1388 88.9991V89.0052C72.4987 98.1232 77.738 101.386 82.3545 107.066C84.1681 109.289 85.884 111.876 87.4167 115.333C88.467 117.701 89.2242 120.08 89.7432 122.416C92.3872 134.127 89.2486 144.767 88.3997 147.661C86.6228 153.685 83.5696 164.037 74.6116 169.88C63.3636 177.22 53.0989 170.751 48.1894 177.721C48.1283 177.802 48.0733 177.884 48.0184 177.965C47.8352 178.247 47.6703 178.529 47.5298 178.81C43.1211 177.17 38.7855 175.247 34.6149 173.074C34.0531 172.786 33.4913 172.491 32.9296 172.178C32.3067 171.853 31.69 171.508 31.0671 171.151C31.0427 170.663 31.0182 170.175 30.9999 169.68C30.6397 161.206 31.1831 151.894 33.241 142.606C34.5599 136.676 35.8668 130.795 37.8695 125.127C39.1764 121.433 40.7762 117.825 42.8828 114.35C44.5684 111.557 46.5711 108.845 49.0014 106.239C54.3385 100.522 59.0832 98.136 59.8343 92.0985C60.9088 83.4814 52.1585 80.8889 49.0014 67.8561C46.846 58.9448 44.5926 46.1004 46.7788 37.4454C48.8428 29.2667 50.638 22.1712 56.6284 15.2193C58.0694 13.5534 69.8975 1.96763 83.6002 0.0637888C89.9141 -0.806489 95.5443 7.48531 103.177 9.2699C111.952 11.3181 116.978 12.4892 121.887 16.3404C130.186 22.8408 132.524 32.5607 134.692 41.5913C136.39 48.6556 138.588 57.7926 135.675 68.8647Z" fill="#2F2E41"/>
</svg>
