<?xml version="1.0" encoding="UTF-8"?>
<svg id="_レイヤー_2" data-name="レイヤー 2" xmlns="http://www.w3.org/2000/svg" xmlns:xlink="http://www.w3.org/1999/xlink" viewBox="0 0 228 228">
  <defs>
    <style>
      .cls-1 {
        clip-path: url(#clippath);
      }

      .cls-2 {
        fill: none;
      }

      .cls-2, .cls-3, .cls-4, .cls-5 {
        stroke-width: 0px;
      }

      .cls-3 {
        fill: #2f2e41;
      }

      .cls-4 {
        fill: #fbbebe;
      }

      .cls-5 {
        fill: #006c61;
      }
    </style>
    <clipPath id="clippath">
      <circle class="cls-2" cx="114" cy="114" r="114"/>
    </clipPath>
  </defs>
  <g id="_レイヤー_1-2" data-name="レイヤー 1">
    <g class="cls-1">
      <path class="cls-3" d="m106.96,53.55c-25.54,0-46.24,22.98-46.24,51.32v36.01h11.08l6.41-13.34-1.6,13.34h71.19l5.83-12.13-1.46,12.13h8.01v-28.28c0-32.62-23.82-59.06-53.21-59.06Z"/>
      <path class="cls-5" d="m45.39,179.66l-6.13,6.9,1.53,132.55-13.79,62.83,30.65,3.07,15.32-126.42-4.6-64.36-22.99-14.56Z"/>
      <path class="cls-4" d="m102.87,135.85c18.18,0,32.92-14.74,32.92-32.92s-14.74-32.92-32.92-32.92-32.92,14.74-32.92,32.92,14.74,32.92,32.92,32.92Z"/>
      <path class="cls-4" d="m83.99,122.68s9.66,50.04,5.27,55.31c-4.39,5.27,46.53-9.66,46.53-9.66,0,0-16.68-34.24-7.9-53.55l-43.89,7.9Z"/>
      <path class="cls-5" d="m132.45,147.41c-3.99,1.27-16.02,7.16-27.13,8.15s-12.87-1.42-15.49-1.94c-.86-.15-1.74-.24-2.61-.28-7.49-.34-14.92,1.5-21.39,5.3-10.67,6.2-26.57,17.23-26.57,27.92s9.85,27.68,15.96,36.89c2.95,4.45,3.8,9.96,2.35,15.09-5.08,17.91-16.44,58.94-15.24,63.71,1.53,6.13-11.49,26.82-3.06,33.71,8.43,6.9,88.88,0,103.44,6.9,12.89,6.11,14.51-70.73,14.71-88.37.03-2.34.5-4.65,1.39-6.81,5.11-12.35,22.78-57.07,21.37-82.23-.4-7.12-5.03-13.32-11.68-15.89-3.12-1.21-17.56-5.24-22.21-4.94-3.49.23-9.36,1.35-13.83,2.78Z"/>
      <path class="cls-3" d="m120.1,67.69c-2.22-2.99-5.11-5.42-8.43-7.12-3.32-1.69-6.98-2.6-10.71-2.65h-.91c-17.5,0-31.69,15.84-31.69,35.38h5.87s.95-7.21.95-7.21l1.39,7.21h34.79l2.91-6.1-.73,6.1h6.84c3.19,15.86-1.4,31.72-13.77,47.58h11.66l5.83-12.2-1.46,12.2h22.22l4.37-28.06c0-21.01-12.21-38.83-29.14-45.13Z"/>
      <path class="cls-3" d="m126.49,70.64c9.57,0,17.32-7.75,17.32-17.32s-7.75-17.32-17.32-17.32-17.32,7.75-17.32,17.32,7.75,17.32,17.32,17.32Z"/>
    </g>
  </g>
</svg>