<?xml version="1.0" encoding="UTF-8"?>
<svg id="_レイヤー_2" data-name="レイヤー 2" xmlns="http://www.w3.org/2000/svg" viewBox="0 0 170.2 184">
  <defs>
    <style>
      .cls-1 {
        fill: #2f2e41;
      }

      .cls-1, .cls-2, .cls-3 {
        stroke-width: 0px;
      }

      .cls-2 {
        fill: #a0616a;
      }

      .cls-3 {
        fill: #006c61;
      }
    </style>
  </defs>
  <g id="_レイヤー_1-2" data-name="レイヤー 1">
    <path class="cls-2" d="m96.16,96c18.78,0,34-16.12,34-36s-15.22-36-34-36-34,16.12-34,36,15.22,36,34,36Z"/>
    <path class="cls-1" d="m85.33,30.74s16,4.28,24.28,6c8.28,1.71,7.43-3.14,7.43-3.14,0,0,10.86,1.43,10.28.29-.57-1.14,4.57-7.14-1.43-14-6-6.86-4.28-12-4.28-12h-5.14l-1.43-2h-8S98.19-1.86,82.48.42c-15.71,2.29-34.29,8.33-36.01,17.75-.23,1.28-.54,2.7-.89,4.2-4.3,18.14,4.83,35.11,14.3,51.16,2.33,3.95,13.58,12.55,13.29,6.65-.29-5.9-10.13-19.16-3.28-20.02,6.86-.86,18.57-18.28,15.43-29.42Z"/>
    <path class="cls-3" d="m56.29,180.56c8.92,2.24,18.26,3.44,27.87,3.44,17.81,0,34.67-4.09,49.68-11.37l-12.97-68.47h-60.37l-4.22,76.41Z"/>
    <path class="cls-1" d="m61.21,104.11l-49.94,31.75,1.43,22.95c17.96,14.47,40.41,23.61,64.93,24.99-1.06-25.74-4.06-46.19-9.58-54.2v-25.46l-6.84-.04Z"/>
    <path class="cls-1" d="m27.31,140.67l-16.04-4.8s-8.86,2.6-11.27,11.02c7.99,8.74,17.31,16.23,27.66,22.14l-.35-28.36Z"/>
    <path class="cls-1" d="m155.6,116.08l-33.24-13.29-9.18,1.37,3.2,16.58-2.42,39.08c-1.25,3.53-1.16,10.71-.12,20.27,17.64-4.74,33.59-13.61,46.75-25.51-2.87-22.94-5-38.5-5-38.5Z"/>
    <path class="cls-1" d="m170.2,144.79c-2.48-9.83-4.59-16.79-6.1-19.45-9.45-16.66-26.09-8.41-26.09-8.41l-5.67,2.47,8.94,49.28c10.92-6.33,20.69-14.42,28.92-23.89Z"/>
    <path class="cls-2" d="m73.85,104.16l3.41-21.42h27.27s7.77,13.14,7.77,26.28-38.45,5.84-38.45-4.87Z"/>
  </g>
</svg>