<?xml version="1.0" encoding="UTF-8"?>
<svg id="_レイヤー_2" data-name="レイヤー 2" xmlns="http://www.w3.org/2000/svg" viewBox="0 0 141.75 192">
  <defs>
    <style>
      .cls-1 {
        fill: #2f2e41;
      }

      .cls-1, .cls-2, .cls-3 {
        stroke-width: 0px;
      }

      .cls-2 {
        fill: #fbbebe;
      }

      .cls-3 {
        fill: #006c61;
      }
    </style>
  </defs>
  <g id="_レイヤー_1-2" data-name="レイヤー 1">
    <path class="cls-1" d="m67.7,17.55c-25.54,0-46.24,22.98-46.24,51.32v36.01h11.08l6.41-13.34-1.6,13.34h71.19l5.83-12.13-1.46,12.13h8.01v-28.28c0-32.62-23.82-59.06-53.21-59.06Z"/>
    <path class="cls-3" d="m29.12,158.22l-22.99-14.56-6.13,6.9.16,13.66c9.1,7.88,19.47,14.34,30.75,19.04l-1.79-25.04Z"/>
    <path class="cls-2" d="m63.61,99.85c18.18,0,32.92-14.74,32.92-32.92s-14.74-32.92-32.92-32.92-32.92,14.74-32.92,32.92,14.74,32.92,32.92,32.92Z"/>
    <path class="cls-2" d="m44.73,86.68s9.66,50.04,5.27,55.31c-4.39,5.27,46.53-9.66,46.53-9.66,0,0-16.68-34.24-7.9-53.55l-43.89,7.9Z"/>
    <path class="cls-3" d="m130.25,116.84c-6.45-2.73-12.01-4.81-16.59-6.39-4.41-1.52-9.07-2.14-13.72-1.83s-9.19,1.54-13.36,3.62c0,0-32.18,6.13-36.01,5.36-.86-.15-1.74-.24-2.61-.28-7.49-.34-14.92,1.5-21.39,5.3C15.9,128.83,0,139.86,0,150.56c0,5.12,2.1,11.4,4.95,17.58,19.29,14.95,43.5,23.86,69.79,23.86,17.77,0,34.59-4.07,49.58-11.32,9.08-26.29,17.57-58.91,5.93-63.84Z"/>
    <path class="cls-3" d="m116.46,117.61l-1.05,66.91c9.29-3.55,18-8.28,25.94-14,.25-21.53.39-37.2.39-38.35,0-3.83-7.7-11.65-7.7-11.65l-17.58-2.91Z"/>
    <path class="cls-1" d="m80.84,31.69c-2.22-2.99-5.11-5.42-8.43-7.12-3.32-1.69-6.98-2.6-10.71-2.65h-.91c-17.5,0-31.69,15.84-31.69,35.38h5.87s.95-7.21.95-7.21l1.39,7.21h34.79l2.91-6.1-.73,6.1h6.84c3.19,15.86-1.4,31.72-13.77,47.58h11.66l5.83-12.2-1.46,12.2h22.22l4.37-28.06c0-21.01-12.21-38.83-29.14-45.13Z"/>
    <path class="cls-1" d="m87.23,34.64c9.57,0,17.32-7.75,17.32-17.32S96.8,0,87.23,0s-17.32,7.75-17.32,17.32,7.75,17.32,17.32,17.32Z"/>
  </g>
</svg>