<svg width="164" height="186" viewBox="0 0 164 186" fill="none" xmlns="http://www.w3.org/2000/svg">
<path d="M128.328 115.057H68.288V31.5669L120.203 60.7884L128.328 115.057Z" fill="#2F2E41"/>
<path d="M79.3797 100.322C100.908 100.322 118.36 82.3899 118.36 60.27C118.36 38.1502 100.908 20.2185 79.3797 20.2185C57.8513 20.2185 40.399 38.1502 40.399 60.27C40.399 82.3899 57.8513 100.322 79.3797 100.322Z" fill="#FFB6B6"/>
<path d="M57.0022 106.244L55.2411 87.9534L90.4081 81.197L111.174 133.146L75.0595 175.819L49.3279 123.87L57.0022 106.244Z" fill="#FFB6B6"/>
<path d="M163.472 148.471C163.034 148.94 162.587 149.404 162.141 149.863C160.723 151.319 159.278 152.734 157.802 154.107C135.682 174.72 107.301 186 77.2308 186C49.5085 186 23.2216 176.413 1.9547 158.764C1.94118 158.754 1.93214 158.745 1.91858 158.731C1.27304 158.198 0.636531 157.655 0 157.103C0.112858 156.769 0.234753 156.44 0.356648 156.115C7.19581 137.808 20.7027 128.851 28.9006 124.932C32.9635 122.988 35.7217 122.279 35.7217 122.279L45.3463 104.467L52.1222 117.455L57.1151 127.028L77.601 166.301L95.2746 121.087L100.75 107.07L102.154 103.479L108.831 108.818L115.151 113.869L127.877 116.754L138.201 119.097L152.223 122.279C157.893 127.024 161.341 136.05 163.269 147.265C163.341 147.664 163.409 148.068 163.472 148.471Z" fill="#006C61"/>
<path d="M58.8753 14.7544C63.6235 6.55945 72.3441 0.936719 81.5913 0.107993C90.8384 -0.720724 100.375 3.26585 106.432 10.4925C110.042 14.7988 112.408 20.0727 115.927 24.458C123.498 33.8949 136.409 39.4127 139.717 51.1612C141.16 56.2879 140.441 61.7613 139.711 67.0452C139.085 71.5741 138.459 76.103 137.833 80.6319C137.346 84.1564 136.879 87.872 138.165 91.1774C139.674 95.0555 143.285 97.5954 145.62 101.014C149.593 106.831 149.303 115.348 144.943 120.865C143.052 123.258 140.546 125.063 138.564 127.376C136.582 129.689 135.111 132.852 135.942 135.813C137.532 141.486 146.191 142.847 147.141 148.67C147.627 151.647 145.625 154.619 143.003 155.981C140.381 157.342 137.295 157.382 134.378 157.017C123.294 155.633 113.031 148.517 107.635 138.474C102.238 128.43 101.845 115.715 106.611 105.34C110.525 96.8189 117.8 89.2889 117.72 79.8667C117.677 74.7335 115.386 69.9392 113.145 65.3511C108.559 55.9604 103.972 46.5697 99.3863 37.1791C96.9296 32.1488 94.0786 26.7281 89.0209 24.5672C85.1121 22.8971 80.677 23.5448 76.4962 24.2279C72.3154 24.911 67.8867 25.5759 63.9662 23.9349C60.0458 22.2938 57.0835 17.4181 58.9514 13.5148" fill="#2F2E41"/>
<path d="M65.7064 15.1824C58.1753 12.6353 49.7271 16.7243 44.6285 22.9629C39.5299 29.2016 37.0567 37.2054 34.7007 44.9838C33.3511 49.4393 32.0015 53.8948 30.652 58.3503C29.3824 62.5416 28.1129 66.7329 26.8434 70.9242C25.3501 75.8542 23.8446 81.0917 25.0701 86.0989C25.9561 89.719 28.2358 93.006 28.2849 96.7384C28.3362 100.637 25.9598 104.06 23.8773 107.32C21.7948 110.579 19.84 114.452 20.8322 118.216C22.3413 123.94 30.0874 127.087 29.6628 133.001C29.5211 134.975 28.4101 136.801 28.4303 138.78C28.4559 141.299 30.3748 143.474 32.6229 144.478C34.871 145.481 37.3998 145.536 39.8505 145.491C47.3674 145.355 54.8708 144.438 62.2089 142.758C65.0321 142.112 67.9031 141.319 70.2532 139.586C72.6033 137.854 74.3565 134.983 74.0506 132.028C73.574 127.422 68.7549 124.81 66.323 120.911C63.9343 117.081 63.9897 112.228 62.9597 107.804C61.5441 101.724 58.048 96.4155 55.4235 90.7752C45.5566 69.5706 49.0106 42.5425 63.8708 24.6739C65.1847 23.094 66.6201 21.5046 67.1683 19.5043C67.7164 17.504 67.0098 14.9554 65.1054 14.2556" fill="#2F2E41"/>
</svg>
