<svg width="168" height="186" viewBox="0 0 168 186" fill="none" xmlns="http://www.w3.org/2000/svg">
<path d="M82.884 103.087C103.717 103.087 120.606 85.7339 120.606 64.3283C120.606 42.9227 103.717 25.5701 82.884 25.5701C62.0507 25.5701 45.162 42.9227 45.162 64.3283C45.162 85.7339 62.0507 103.087 82.884 103.087Z" fill="#A0616A"/>
<path d="M51.6614 111.765L59.5248 91.118L100.152 84.834L104.517 130.54L63.4531 131.437L51.6614 111.765Z" fill="#A0616A"/>
<path d="M120.971 71.4793C120.482 73.4945 119.492 78.2928 117.947 78.3164C116.684 78.3353 115.475 57.5188 116.737 54.0756C118.185 50.12 114.378 45.1162 111.51 42.5476C106.353 37.9291 94.9066 47.8462 83.267 43.3537C82.9584 43.2348 83.0199 43.2482 79.3443 41.7415C68.0343 37.1049 67.4398 36.9711 66.7918 36.905C61.3091 36.3476 54.6179 40.9574 51.8857 46.578C49.0454 52.4205 51.4185 57.4318 48.7476 71.5666C48.4363 73.2142 47.9475 75.5624 47.1785 75.597C45.7726 75.66 44.3999 67.9447 44.0404 65.924C42.5341 57.4578 41.0819 49.2954 44.0404 40.1293C44.3631 39.1296 46.352 35.4187 50.3166 28.038C56.0282 17.4054 58.9009 12.069 59.731 11.1102C65.6847 4.23096 76.5218 -2.04454 85.6205 0.631123C90.2193 1.98352 89.3948 4.15774 95.0349 6.27371C105.086 10.0444 113.822 5.43299 115.433 8.69197C116.286 10.4183 113.898 11.8415 113.864 15.1407C113.804 20.8014 120.772 22.4371 124.847 28.038C127.038 31.049 130.787 31.0813 120.971 71.4793Z" fill="#2F2E41"/>
<path d="M167.704 145.877C166.184 147.632 164.607 149.351 162.973 151.03C141.025 173.58 111.843 186 80.8049 186C53.9778 186 28.5397 176.722 7.95947 159.643C7.94635 159.634 7.93761 159.625 7.9246 159.612C5.19426 157.35 2.55127 154.944 0 152.403C0.0479928 152.008 0.100469 151.618 0.157208 151.231C0.515459 148.628 0.913062 146.146 1.35856 143.861C5.00633 125.135 53.0036 105.475 54.2529 104.963C54.2704 104.959 54.2792 104.955 54.2792 104.955C54.2792 104.955 60.4563 128.349 86.9253 128.048C104.954 127.846 101.459 104.955 101.459 104.955C101.459 104.955 101.678 104.999 102.088 105.089C107.296 106.225 143.45 114.385 157.713 125.521C162.06 128.914 165.179 136.141 167.42 144.759C167.516 145.127 167.608 145.504 167.704 145.877Z" fill="#006C61"/>
</svg>
