<svg width="32" height="46" viewBox="0 0 32 46" fill="none" xmlns="http://www.w3.org/2000/svg">
<g clip-path="url(#clip0_953_34)">
<path d="M16 23C16 18.809 19.5452 15.4114 23.9186 15.4114C28.2918 15.4114 31.8371 18.809 31.8371 23C31.8371 27.1911 28.2918 30.5886 23.9186 30.5886C19.5452 30.5886 16 27.1911 16 23Z" fill="#1ABCFE"/>
<path d="M0.163086 38.1772C0.163086 33.9862 3.70834 30.5886 8.08164 30.5886H16.0002V38.1772C16.0002 42.3683 12.455 45.7659 8.08164 45.7659C3.70834 45.7659 0.163086 42.3683 0.163086 38.1772Z" fill="#0ACF83"/>
<path d="M16 0.234131V15.4113H23.9186C28.2919 15.4113 31.8371 12.0138 31.8371 7.82274C31.8371 3.63167 28.2919 0.234131 23.9186 0.234131H16Z" fill="#FF7262"/>
<path d="M0.163086 7.82275C0.163086 12.0138 3.70834 15.4113 8.08164 15.4113H16.0002V0.234131H8.08164C3.70834 0.234131 0.163086 3.63167 0.163086 7.82275Z" fill="#F24E1E"/>
<path d="M0.163086 23C0.163086 27.1911 3.70834 30.5886 8.08164 30.5886H16.0002V15.4114H8.08164C3.70834 15.4114 0.163086 18.809 0.163086 23Z" fill="#A259FF"/>
</g>
<defs>
<clipPath id="clip0_953_34">
<rect width="32" height="46" fill="white"/>
</clipPath>
</defs>
</svg>
