<svg width="24" height="48" viewBox="0 0 24 48" fill="none" xmlns="http://www.w3.org/2000/svg">
<path fill-rule="evenodd" clip-rule="evenodd" d="M16.4881 0.395775C17.9266 1.21779 18.4264 3.05032 17.6044 4.48884L8.81056 19.878C8.52484 20.378 8.88586 21 9.46172 21H20.9996C22.069 21 23.0574 21.5694 23.5942 22.4942C24.131 23.4192 24.1348 24.5598 23.6042 25.4884L11.6045 46.488C10.7825 47.9264 8.94994 48.4262 7.51142 47.6042C6.0729 46.7822 5.57312 44.9496 6.39514 43.5112L15.1889 28.122C15.4746 27.622 15.1136 27 14.5378 27H2.99994C1.93055 27 0.942016 26.4306 0.405262 25.5058C-0.131493 24.5808 -0.135303 23.4402 0.395262 22.5116L12.395 1.51206C13.217 0.0735421 15.0495 -0.426237 16.4881 0.395775Z" fill="black"/>
</svg>
