<svg width="59" height="59" viewBox="0 0 59 59" fill="none" xmlns="http://www.w3.org/2000/svg">
<g clip-path="url(#clip0_953_7)">
<path d="M38.7372 3.6875C44.9068 3.6875 48.8594 8.90992 48.8594 13.6898C48.8594 19.3755 43.6969 23.1875 41.2977 23.1875C41.2977 24.6048 48.7995 30.2513 48.7995 37.2622C48.7995 47.0156 39.5277 55.3125 27.6562 55.3125C16.3034 55.3125 10.1406 46.9027 10.1406 39.8849C10.1406 32.6459 16.5937 28.9538 21.6364 28.9538C26.5569 28.9538 31.6595 32.3624 31.6595 37.4235C31.6595 43.1714 26.5569 46.0753 24.863 46.0753C24.863 46.7667 28.1702 47.5065 30.0854 47.5065C34.9852 47.5065 39.5231 43.6946 39.5231 38.675C39.5231 31.7978 27.8475 27.8867 27.8475 15.3976C27.8475 7.60547 33.0907 3.6875 38.7372 3.6875Z" fill="#990000"/>
</g>
<defs>
<clipPath id="clip0_953_7">
<rect width="59" height="59" fill="white"/>
</clipPath>
</defs>
</svg>
